<?xml version="1.0" encoding="UTF-8"?>
<svg width="24px" height="24px" viewBox="0 0 24 24" version="1.1" xmlns="http://www.w3.org/2000/svg" xmlns:xlink="http://www.w3.org/1999/xlink">
    <!-- Generator: Sketch 48.1 (47250) - http://www.bohemiancoding.com/sketch -->
    <title>blur_active</title>
    <desc>Created with Sketch.</desc>
    <defs>
        <path d="M12,20 C15.8659932,20 19,17.3413067 19,14.0616422 C19,10.7819778 12,4 12,4 C12,4 5,10.7819778 5,14.0616422 C5,17.3413067 8.13400675,20 12,20 Z" id="path-1"></path>
    </defs>
    <g id="浅色_图标整理" stroke="none" stroke-width="1" fill="none" fill-rule="evenodd" transform="translate(-900.000000, -77.000000)">
        <g id="hover-copy" transform="translate(696.000000, 77.000000)">
            <g id="模糊" transform="translate(204.000000, 0.000000)">
                <rect id="Rectangle-11-Copy-8" fill="#D8D8D8" opacity="0" x="0" y="0" width="24" height="24"></rect>
                <g id="Oval-10">
                    <use fill="#2CA7F8" fill-rule="evenodd" xlink:href="#path-1"></use>
                    <path stroke="#2CA7F8" stroke-width="1" d="M12,4.7043578 C11.7770862,4.92854553 11.5312099,5.1805258 11.2678161,5.45628356 C10.4549276,6.30733015 9.64210954,7.20907941 8.88451844,8.12054917 C8.29005185,8.83576127 7.75424432,9.52802109 7.29156743,10.186172 C6.13849832,11.8263955 5.5,13.1738681 5.5,14.0616422 C5.5,17.0452605 8.39359062,19.5 12,19.5 C15.6064094,19.5 18.5,17.0452605 18.5,14.0616422 C18.5,13.1738681 17.8615017,11.8263955 16.7084326,10.186172 C16.2457557,9.52802109 15.7099481,8.83576127 15.1154816,8.12054917 C14.3578905,7.20907941 13.5450724,6.30733015 12.7321839,5.45628356 C12.4687901,5.1805258 12.2229138,4.92854553 12,4.7043578 Z"></path>
                </g>
            </g>
        </g>
    </g>
</svg>