<?xml version="1.0" encoding="UTF-8"?>
<svg width="48px" height="48px" viewBox="0 0 48 48" version="1.1" xmlns="http://www.w3.org/2000/svg" xmlns:xlink="http://www.w3.org/1999/xlink">
    <!-- Generator: Sketch 56.2 (81672) - https://sketch.com -->
    <title>screenshot tool_press</title>
    <desc>Created with Sketch.</desc>
    <g id="组件" stroke="none" stroke-width="1" fill="none" fill-rule="evenodd">
        <g id="press" transform="translate(-5.000000, -621.000000)">
            <g id="侧边工具栏-" transform="translate(5.000000, 141.000000)">
                <g id="编组-3">
                    <g id="screenshot-tool_press" transform="translate(0.000000, 480.000000)">
                        <rect id="Rectangle-11-Copy-8" fill="#D8D8D8" opacity="0" x="0" y="0" width="48" height="48"></rect>
                        <rect id="矩形" fill-opacity="0.1" fill="#000000" x="6" y="6" width="36" height="36" rx="8"></rect>
                        <path d="M19,21 L16,21 L16,19 L19,19 L19,16 L21,16 L21,19 L27,19 L29,19 L29,27 L32,27 L32,29 L29,29 L29,32 L27,32 L27,29 L21,29 L19,29 L19,21 Z M21,21 L21,27 L27,27 L27,21 L21,21 Z" id="形状结合" fill="#0081FF"></path>
                    </g>
                </g>
            </g>
        </g>
    </g>
</svg>