<?xml version="1.0" encoding="UTF-8"?>
<svg width="48px" height="48px" viewBox="0 0 48 48" version="1.1" xmlns="http://www.w3.org/2000/svg" xmlns:xlink="http://www.w3.org/1999/xlink">
    <!-- Generator: Sketch 58 (84663) - https://sketch.com -->
    <title>smudge tool_hover</title>
    <desc>Created with Sketch.</desc>
    <g id="画板" stroke="none" stroke-width="1" fill="none" fill-rule="evenodd">
        <g id="btn状态备份" transform="translate(-488.000000, -1014.000000)">
            <g id="编组" transform="translate(483.000000, 441.000000)">
                <g id="侧边工具栏-" transform="translate(5.000000, 141.000000)">
                    <g id="编组-3">
                        <g id="smudge-tool_hover" transform="translate(0.000000, 432.000000)">
                            <rect id="Rectangle-11-Copy-6" fill="#D8D8D8" opacity="0" x="0" y="0" width="48" height="48"></rect>
                            <rect id="矩形" fill-opacity="0.05" fill="#000000" x="6" y="6" width="36" height="36" rx="8"></rect>
                            <g id="Group-4" transform="translate(24.000000, 24.000000) rotate(-360.000000) translate(-24.000000, -24.000000) translate(18.000000, 16.000000)" stroke="#001A2E">
                                <path d="M6,0.714697577 C5.82475197,0.89707286 5.63381521,1.09999066 5.43063223,1.32106019 C4.73625402,2.07656573 4.0418889,2.88733448 3.39483089,3.72013262 C2.68891514,4.6286838 2.08307841,5.50828157 1.60816235,6.33576885 C0.887548081,7.59135737 0.5,8.6744706 0.5,9.51351351 C0.5,12.8280897 2.97151702,15.5 6,15.5 C9.02848298,15.5 11.5,12.8280897 11.5,9.51351351 C11.5,8.6744706 11.1124519,7.59135737 10.3918376,6.33576885 C9.91692159,5.50828157 9.31108486,4.6286838 8.60516911,3.72013262 C7.9581111,2.88733448 7.26374598,2.07656573 6.56936777,1.32106019 C6.36618479,1.09999066 6.17524803,0.89707286 6,0.714697577 Z" id="椭圆形"></path>
                            </g>
                        </g>
                    </g>
                </g>
            </g>
        </g>
    </g>
</svg>