<?xml version="1.0" encoding="UTF-8"?>
<svg width="16px" height="16px" viewBox="0 0 16 16" version="1.1" xmlns="http://www.w3.org/2000/svg" xmlns:xlink="http://www.w3.org/1999/xlink">
    <title>编组</title>
    <g id="控件" stroke="none" stroke-width="1" fill="none" fill-rule="evenodd">
        <g id="编组">
            <rect id="矩形" fill="#D8D8D8" opacity="0" x="0" y="0" width="16" height="16"></rect>
            <path d="M2.5,14 L14.5,14 C14.7761424,14 15,14.2238576 15,14.5 C15,14.7761424 14.7761424,15 14.5,15 L2.5,15 C2.22385763,15 2,14.7761424 2,14.5 C2,14.2238576 2.22385763,14 2.5,14 Z M4,2 L7,2 C7.55228475,2 8,2.44771525 8,3 L8,12 C8,12.5522847 7.55228475,13 7,13 L4,13 C3.44771525,13 3,12.5522847 3,12 L3,3 C3,2.44771525 3.44771525,2 4,2 Z M10,6 L13,6 C13.5522847,6 14,6.44771525 14,7 L14,12 C14,12.5522847 13.5522847,13 13,13 L10,13 C9.44771525,13 9,12.5522847 9,12 L9,7 C9,6.44771525 9.44771525,6 10,6 Z" id="形状结合" fill-opacity="0.7" fill="#000000" fill-rule="nonzero"></path>
        </g>
    </g>
</svg>