<?xml version="1.0" encoding="UTF-8"?>
<svg width="48px" height="48px" viewBox="0 0 48 48" version="1.1" xmlns="http://www.w3.org/2000/svg" xmlns:xlink="http://www.w3.org/1999/xlink">
    <title>brush tool_normal</title>
    <defs>
        <path d="M14.3,-4.54747351e-13 C14.8522847,-4.54848804e-13 15.3,0.44771525 15.3,1 L15.3,7.5 C15.3,8.05228475 14.8522847,8.5 14.3,8.5 L6,8.5 L6,-2.27373675e-13 L14.3,-4.54747351e-13 Z M5,8.5 L1,8.5 C0.44771525,8.5 1.8174656e-13,8.05228475 1.81188398e-13,7.5 L1.81188398e-13,1 C1.81120762e-13,0.44771525 0.44771525,-4.54645898e-13 1,-4.54747351e-13 L5,-2.27373675e-13 L5,8.5 Z" id="path-1"></path>
        <filter x="-71.9%" y="-82.4%" width="243.8%" height="358.8%" filterUnits="objectBoundingBox" id="filter-2">
            <feOffset dx="0" dy="4" in="SourceAlpha" result="shadowOffsetOuter1"></feOffset>
            <feGaussianBlur stdDeviation="3" in="shadowOffsetOuter1" result="shadowBlurOuter1"></feGaussianBlur>
            <feColorMatrix values="0 0 0 0 0.17254902   0 0 0 0 0.654901961   0 0 0 0 0.97254902  0 0 0 0.4 0" type="matrix" in="shadowBlurOuter1"></feColorMatrix>
        </filter>
        <rect id="path-3" x="6" y="16.6" width="10" height="1"></rect>
        <filter x="-110.0%" y="-700.0%" width="320.0%" height="2300.0%" filterUnits="objectBoundingBox" id="filter-4">
            <feOffset dx="0" dy="4" in="SourceAlpha" result="shadowOffsetOuter1"></feOffset>
            <feGaussianBlur stdDeviation="3" in="shadowOffsetOuter1" result="shadowBlurOuter1"></feGaussianBlur>
            <feColorMatrix values="0 0 0 0 0.17254902   0 0 0 0 0.654901961   0 0 0 0 0.97254902  0 0 0 0.4 0" type="matrix" in="shadowBlurOuter1"></feColorMatrix>
        </filter>
    </defs>
    <g id="5.10" stroke="none" stroke-width="1" fill="none" fill-rule="evenodd">
        <g id="切图" transform="translate(-740.000000, -675.000000)">
            <g id="编组-2" transform="translate(735.000000, 102.000000)">
                <g id="brush-tool_normal备份-2" transform="translate(5.000000, 573.000000)">
                    <rect id="Rectangle-11-Copy-7" fill="#D8D8D8" opacity="0" x="0" y="0" width="48" height="48"></rect>
                    <g id="编组-11" transform="translate(15.000000, 14.500000)">
                        <g id="形状结合" transform="translate(9.000000, 9.500000) rotate(-45.000000) translate(-9.000000, -9.500000) translate(1.000000, 5.000000)">
                            <use fill="black" fill-opacity="1" filter="url(#filter-2)" xlink:href="#path-1"></use>
                            <use fill="#0081FF" fill-rule="evenodd" xlink:href="#path-1"></use>
                        </g>
                        <g id="矩形">
                            <use fill="black" fill-opacity="1" filter="url(#filter-4)" xlink:href="#path-3"></use>
                            <use fill="#0081FF" fill-rule="evenodd" xlink:href="#path-3"></use>
                        </g>
                    </g>
                </g>
            </g>
        </g>
    </g>
</svg>