<?xml version="1.0" encoding="UTF-8"?>
<svg width="16px" height="16px" viewBox="0 0 16 16" version="1.1" xmlns="http://www.w3.org/2000/svg" xmlns:xlink="http://www.w3.org/1999/xlink">
    <title>编组</title>
    <g id="控件" stroke="none" stroke-width="1" fill="none" fill-rule="evenodd">
        <g id="编组">
            <rect id="矩形" fill="#D8D8D8" opacity="0" x="0" y="0" width="16" height="16"></rect>
            <path d="M14,1 C14.5522847,1 15,1.44771525 15,2 L15,14 C15,14.5522847 14.5522847,15 14,15 L2,15 C1.44771525,15 1,14.5522847 1,14 L1,2 C1,1.44771525 1.44771525,1 2,1 L14,1 Z M13,2 L3,2 C2.48716416,2 2.06449284,2.38604019 2.00672773,2.88337887 L2,3 L2,13 C2,13.5128358 2.38604019,13.9355072 2.88337887,13.9932723 L3,14 L13,14 C13.5128358,14 13.9355072,13.6139598 13.9932723,13.1166211 L14,13 L14,3 C14,2.44771525 13.5522847,2 13,2 Z M6,9 C6.55228475,9 7,9.44771525 7,10 L7,12 C7,12.5522847 6.55228475,13 6,13 L4,13 C3.44771525,13 3,12.5522847 3,12 L3,10 C3,9.44771525 3.44771525,9 4,9 L6,9 Z M12,9 C12.5522847,9 13,9.44771525 13,10 L13,12 C13,12.5522847 12.5522847,13 12,13 L10,13 C9.44771525,13 9,12.5522847 9,12 L9,10 C9,9.44771525 9.44771525,9 10,9 L12,9 Z M6,3 C6.55228475,3 7,3.44771525 7,4 L7,6 C7,6.55228475 6.55228475,7 6,7 L4,7 C3.44771525,7 3,6.55228475 3,6 L3,4 C3,3.44771525 3.44771525,3 4,3 L6,3 Z M12,3 C12.5522847,3 13,3.44771525 13,4 L13,6 C13,6.55228475 12.5522847,7 12,7 L10,7 C9.44771525,7 9,6.55228475 9,6 L9,4 C9,3.44771525 9.44771525,3 10,3 L12,3 Z" id="形状结合" fill-opacity="0.7" fill="#000000" fill-rule="nonzero"></path>
        </g>
    </g>
</svg>