<?xml version="1.0" encoding="UTF-8"?>
<svg width="30px" height="30px" viewBox="0 0 30 30" version="1.1" xmlns="http://www.w3.org/2000/svg" xmlns:xlink="http://www.w3.org/1999/xlink">
    <title>icon_calligraphy</title>
    <g id="页面-1" stroke="none" stroke-width="1" fill="none" fill-rule="evenodd">
        <g id="画笔属性栏" transform="translate(-677.000000, -89.000000)">
            <g id="编组-6" transform="translate(647.000000, 43.000000)">
                <g id="menuitem备份" transform="translate(0.000000, 44.000000)">
                    <g id="icon_calligraphy" transform="translate(30.000000, 2.000000)">
                        <path d="M10.3352349,4.3164942 C7.97231217,7.22211014 5.88463101,10.3562285 4.21240879,13.7110594 C3.82551266,14.4848517 2.68040396,16.2297792 3.08547642,17.1593686 C3.42303681,17.9357575 4.48765034,17.4553831 5.0485199,17.2061077 C7.07647884,16.2946947 8.8110199,14.5965063 10.579317,13.2748275 C11.4387977,12.6334628 12.3138581,11.9349725 13.2746069,11.4520014 C13.4901262,11.3429435 13.9860803,11.0625087 14.2613218,11.1456005 C14.7442928,11.2910111 14.3937494,11.3818927 14.6092687,11.6779072 C15.0532904,12.2829193 15.307759,10.1017599 15.7673605,9.48116811 C15.5310682,9.79795555 15.3311286,10.148499 15.1078194,10.4730763 C14.8040151,10.9196947 14.4872276,11.3585232 14.17823,11.8025449 C13.157759,13.2670377 12.158061,14.7393203 11.2102953,16.2531488 C10.1352953,17.9695135 9.10963101,19.7248275 8.19302473,21.5294773 C7.76198609,22.3785715 6.67919623,24.035214 6.88173246,25.1050208 C7.18813343,26.7279072 10.5819136,24.3987406 11.3764788,23.9053831 C15.3337252,21.4463855 19.342904,18.9302623 22.9677832,15.9986802 C24.1310682,15.0587043 24.9022639,13.2748275 25.5981576,11.9843082 C25.9590875,11.3169773 26.397916,10.6081005 26.6082421,9.87845072 C26.6368049,9.78237584 26.8886769,9.10985169 26.5459233,9.38768985 C23.5701986,11.7947551 20.3166358,13.877243 17.0968291,15.9415546 C15.5414547,16.938656 13.770561,18.3875691 11.9269619,18.857557 C11.6127711,18.9380522 11.1090271,19.0678831 10.8779281,18.7459024 C10.7688701,18.5927019 10.919474,18.2161923 10.864945,18.1590667 C10.9558267,18.2577382 10.0781697,19.5898034 10.6857784,18.6446343 C12.1087252,16.4297188 13.6978557,14.3316512 15.0974329,12.101156 C16.1256938,10.4600932 17.1227953,8.76969468 17.9173605,6.99880096 C18.1198967,6.54958599 18.9430247,5.10586618 18.4938098,4.58134927 C17.7693532,3.73225507 15.3181455,5.81474299 14.7468895,6.23279855 C12.8669378,7.60640966 11.0674813,9.38249661 8.97720348,10.434127 C8.59030734,10.6288734 8.08656338,10.8755522 7.6373484,10.8391995 C7.19073005,10.8028469 7.25564551,10.6106971 6.98300058,10.3873879 C6.99079043,10.3042961 7.00117691,10.2212043 7.00896676,10.1381126 C6.92587497,10.3068927 6.8453798,10.4782696 6.76228802,10.6470498 C6.74670831,10.6756126 5.89242087,12.2959024 5.78855613,12.3374483 C6.20401507,12.1686681 7.04531942,10.6730159 7.31536773,10.3432454 C8.429317,8.97482753 9.31476386,7.372714 10.1015392,5.79916328 C10.2677228,5.45640966 11.2622276,3.17657874 10.3352349,4.3164942 L10.3352349,4.3164942 Z" id="路径" fill="#F5A623" fill-rule="nonzero"></path>
                        <rect id="矩形" opacity="0.558305286" x="0" y="0" width="30" height="30"></rect>
                    </g>
                </g>
            </g>
        </g>
    </g>
</svg>