<?xml version="1.0" encoding="UTF-8"?>
<svg width="20px" height="20px" viewBox="0 0 20 20" version="1.1" xmlns="http://www.w3.org/2000/svg" xmlns:xlink="http://www.w3.org/1999/xlink">
    <title>menu_ungroup_normal</title>
    <g id="浅色主题" stroke="none" stroke-width="1" fill="none" fill-rule="evenodd">
        <g id="1040切图" transform="translate(-61.000000, -290.000000)">
            <g id="菜单-3备份" transform="translate(42.000000, 239.000000)">
                <g id="menu_ungroup_normal" transform="translate(19.000000, 51.000000)">
                    <path d="M15,7 C16.1045695,7 17,7.8954305 17,9 L17,15 C17,16.1045695 16.1045695,17 15,17 L9,17 C7.8954305,17 7,16.1045695 7,15 L7,12 L4,12 C2.8954305,12 2,11.1045695 2,10 L2,4 C2,2.8954305 2.8954305,2 4,2 L10,2 C11.1045695,2 12,2.8954305 12,4 L12,7 L15,7 Z M15,8 L9,8 C8.48716416,8 8.06449284,8.38604019 8.00672773,8.88337887 L8,9 L8,15 C8,15.5128358 8.38604019,15.9355072 8.88337887,15.9932723 L9,16 L15,16 C15.5128358,16 15.9355072,15.6139598 15.9932723,15.1166211 L16,15 L16,9 C16,8.48716416 15.6139598,8.06449284 15.1166211,8.00672773 L15,8 Z M11,4 C11,3.48716416 10.6139598,3.06449284 10.1166211,3.00672773 L10,3 L4,3 C3.48716416,3 3.06449284,3.38604019 3.00672773,3.88337887 L3,4 L3,10 C3,10.5128358 3.38604019,10.9355072 3.88337887,10.9932723 L4,11 L7,11 L7,9 C7,7.8954305 7.8954305,7 9,7 L11,7 L11,4 Z" id="形状结合" fill="#536076" fill-rule="nonzero"></path>
                    <rect id="矩形" x="0" y="0" width="20" height="20"></rect>
                </g>
            </g>
        </g>
    </g>
</svg>