<?xml version="1.0" encoding="UTF-8"?>
<svg width="36px" height="36px" viewBox="0 0 36 36" version="1.1" xmlns="http://www.w3.org/2000/svg" xmlns:xlink="http://www.w3.org/1999/xlink">
    <title>icon_open_normal</title>
    <g id="浅色主题" stroke="none" stroke-width="1" fill="none" fill-rule="evenodd">
        <g id="1040切图" transform="translate(-115.000000, -493.000000)" fill="#626E88" fill-rule="nonzero">
            <g id="形状" transform="translate(115.000000, 493.000000)">
                <path d="M17.6603056,12.3948972 L17.5861396,12.4568662 L12.4567272,17.5861187 C12.3548874,17.6880584 12.3,17.8234347 12.3,17.9647046 C12.3,18.0777992 12.3350678,18.1869358 12.40123,18.278253 L12.4566199,18.3431831 L17.5861429,23.4725463 C17.7952847,23.6816881 18.1342269,23.6816881 18.3432663,23.4725463 C18.5290358,23.2867768 18.5496769,22.9981717 18.4051895,22.7895498 L18.3432663,22.7154229 L13.592548,17.9647046 L18.3432144,13.2140383 C18.5522656,13.0048846 18.5522656,12.6658622 18.3432663,12.4568629 C18.1806751,12.2941919 17.939509,12.2580473 17.7419484,12.34842 L17.6603056,12.3948972 Z M22.8602963,12.3948972 L22.7861302,12.4568662 L17.6567177,17.5861188 C17.5547841,17.6881524 17.4999907,17.8233363 17.4999907,17.9647046 C17.4999907,18.0777205 17.5351186,18.1869645 17.6012568,18.2782796 L17.6566105,18.3431831 L22.7861335,23.4725463 C22.9952754,23.6816881 23.3342176,23.6816881 23.543257,23.4725463 C23.7290265,23.2867768 23.7496675,22.9981717 23.6051802,22.7895498 L23.543257,22.7154229 L18.7925387,17.9647046 L23.543205,13.2140383 C23.7522563,13.0048846 23.7522563,12.6658622 23.543205,12.4568109 C23.3806592,12.2941855 23.1394988,12.2580465 22.941939,12.3484199 L22.8602963,12.3948972 Z" transform="translate(18.000000, 17.964702) scale(-1, 1) translate(-18.000000, -17.964702) "></path>
            </g>
        </g>
    </g>
</svg>