<?xml version="1.0" encoding="UTF-8"?>
<svg width="46px" height="46px" viewBox="0 0 46 46" version="1.1" xmlns="http://www.w3.org/2000/svg" xmlns:xlink="http://www.w3.org/1999/xlink">
    <title>icon_ungroup_normal</title>
    <g id="浅色主题" stroke="none" stroke-width="1" fill="none" fill-rule="evenodd">
        <g id="1040切图" transform="translate(-140.000000, -399.000000)" fill="#536076" fill-rule="nonzero">
            <g id="icon_ungroup_normal" transform="translate(140.000000, 399.000000)">
                <g id="置顶-(5)" transform="translate(23.000000, 23.000000) scale(1, -1) translate(-23.000000, -23.000000) ">
                    <g id="置顶-(8)" transform="translate(23.500000, 23.000000) scale(1, -1) translate(-23.500000, -23.000000) translate(15.000000, 15.000000)">
                        <path d="M13,6 C14.1045695,6 15,6.8954305 15,8 L15,14 C15,15.1045695 14.1045695,16 13,16 L7,16 C5.8954305,16 5,15.1045695 5,14 L5,11 L2,11 C0.8954305,11 0,10.1045695 0,9 L0,3 C0,1.8954305 0.8954305,1 2,1 L8,1 C9.1045695,1 10,1.8954305 10,3 L10,6 L13,6 Z M13,7 L7,7 C6.48716416,7 6.06449284,7.38604019 6.00672773,7.88337887 L6,8 L6,14 C6,14.5128358 6.38604019,14.9355072 6.88337887,14.9932723 L7,15 L13,15 C13.5128358,15 13.9355072,14.6139598 13.9932723,14.1166211 L14,14 L14,8 C14,7.48716416 13.6139598,7.06449284 13.1166211,7.00672773 L13,7 Z M9,3 C9,2.48716416 8.61395981,2.06449284 8.11662113,2.00672773 L8,2 L2,2 C1.48716416,2 1.06449284,2.38604019 1.00672773,2.88337887 L1,3 L1,9 C1,9.51283584 1.38604019,9.93550716 1.88337887,9.99327227 L2,10 L5,10 L5,8 C5,6.8954305 5.8954305,6 7,6 L9,6 L9,3 Z" id="形状结合"></path>
                    </g>
                </g>
            </g>
        </g>
    </g>
</svg>