<?xml version="1.0" encoding="UTF-8"?>
<svg width="46px" height="46px" viewBox="0 0 46 46" version="1.1" xmlns="http://www.w3.org/2000/svg" xmlns:xlink="http://www.w3.org/1999/xlink">
    <title>icon_group_normal</title>
    <g id="浅色主题" stroke="none" stroke-width="1" fill="none" fill-rule="evenodd">
        <g id="1040切图" transform="translate(-80.000000, -399.000000)" fill="#536076" fill-rule="nonzero">
            <g id="icon_group_normal" transform="translate(80.000000, 399.000000)">
                <g id="置顶-(8)" transform="translate(14.000000, 14.000000)">
                    <path d="M16,0 C17.1045695,0 18,0.8954305 18,2 L18,16 C18,17.1045695 17.1045695,18 16,18 L2,18 C0.8954305,18 0,17.1045695 0,16 L0,2 C0,0.8954305 0.8954305,0 2,0 L16,0 Z M16,1 L2,1 C1.48716416,1 1.06449284,1.38604019 1.00672773,1.88337887 L1,2 L1,16 C1,16.5128358 1.38604019,16.9355072 1.88337887,16.9932723 L2,17 L16,17 C16.5128358,17 16.9355072,16.6139598 16.9932723,16.1166211 L17,16 L17,2 C17,1.48716416 16.6139598,1.06449284 16.1166211,1.00672773 L16,1 Z M9,3 C10.1045695,3 11,3.8954305 11,5 L11,7 L13,7 C14.1045695,7 15,7.8954305 15,9 L15,13 C15,14.1045695 14.1045695,15 13,15 L9,15 C7.8954305,15 7,14.1045695 7,13 L7,11 L5,11 C3.8954305,11 3,10.1045695 3,9 L3,5 C3,3.8954305 3.8954305,3 5,3 L9,3 Z M13,8 L9,8 C8.48716416,8 8.06449284,8.38604019 8.00672773,8.88337887 L8,9 L8,13 C8,13.5128358 8.38604019,13.9355072 8.88337887,13.9932723 L9,14 L13,14 C13.5128358,14 13.9355072,13.6139598 13.9932723,13.1166211 L14,13 L14,9 C14,8.48716416 13.6139598,8.06449284 13.1166211,8.00672773 L13,8 Z M9,4 L5,4 C4.48716416,4 4.06449284,4.38604019 4.00672773,4.88337887 L4,5 L4,9 C4,9.51283584 4.38604019,9.93550716 4.88337887,9.99327227 L5,10 L7,10 L7,9 C7,7.8954305 7.8954305,7 9,7 L10,7 L10,5 C10,4.48716416 9.61395981,4.06449284 9.11662113,4.00672773 L9,4 Z" id="形状结合"></path>
                </g>
            </g>
        </g>
    </g>
</svg>