<?xml version="1.0" encoding="UTF-8"?>
<svg width="25px" height="28px" viewBox="0 0 25 28" version="1.1" xmlns="http://www.w3.org/2000/svg" xmlns:xlink="http://www.w3.org/1999/xlink">
    <title>apps/128/deepin-draw</title>
    <defs>
        <filter x="-9.2%" y="-6.2%" width="118.4%" height="122.1%" filterUnits="objectBoundingBox" id="filter-1">
            <feOffset dx="0" dy="1" in="SourceAlpha" result="shadowOffsetOuter1"></feOffset>
            <feGaussianBlur stdDeviation="0.5" in="shadowOffsetOuter1" result="shadowBlurOuter1"></feGaussianBlur>
            <feColorMatrix values="0 0 0 0 0   0 0 0 0 0   0 0 0 0 0  0 0 0 0.20036604 0" type="matrix" in="shadowBlurOuter1" result="shadowMatrixOuter1"></feColorMatrix>
            <feMerge>
                <feMergeNode in="shadowMatrixOuter1"></feMergeNode>
                <feMergeNode in="SourceGraphic"></feMergeNode>
            </feMerge>
        </filter>
        <linearGradient x1="50%" y1="2.37536127%" x2="50%" y2="94.5953062%" id="linearGradient-2">
            <stop stop-color="#E9E9E9" offset="0%"></stop>
            <stop stop-color="#C8DFFF" offset="100%"></stop>
        </linearGradient>
        <path d="M10.875,1.6905523 C11.5089443,1.6905523 11.7454459,2.26290926 11.9645372,2.89705428 L12.0743914,3.21691206 C12.3168894,3.91085051 12.6132895,4.5774359 13.4467694,4.56752478 C15.348922,4.54490581 17.1852922,4.78398761 19.3251789,6.58885836 C20.9481647,7.95775301 21.75,10.5890633 21.75,12.5641065 C21.75,18.5694046 16.8810967,23.4376606 10.875,23.4376606 C4.86890335,23.4376606 0,18.5694046 0,12.5641065 C0,6.55880832 4.86890335,1.6905523 10.875,1.6905523 Z M7.646564,5.27388265 C7.10055522,6.21947187 7.32874941,7.37327103 8.15625,7.8509652 C8.98375059,8.32865937 10.0971999,7.94935549 10.6432087,7.00376626 C11.1892175,6.05817704 10.9610233,4.90437787 10.1335227,4.4266837 C9.30602214,3.94898953 8.19257279,4.32829342 7.646564,5.27388265 Z" id="path-3"></path>
        <filter x="-6.9%" y="-6.9%" width="113.8%" height="113.8%" filterUnits="objectBoundingBox" id="filter-4">
            <feGaussianBlur stdDeviation="1" in="SourceAlpha" result="shadowBlurInner1"></feGaussianBlur>
            <feOffset dx="0" dy="-1" in="shadowBlurInner1" result="shadowOffsetInner1"></feOffset>
            <feComposite in="shadowOffsetInner1" in2="SourceAlpha" operator="arithmetic" k2="-1" k3="1" result="shadowInnerInner1"></feComposite>
            <feColorMatrix values="0 0 0 0 0   0 0 0 0 0.108032992   0 0 0 0 0.378311821  0 0 0 0.2 0" type="matrix" in="shadowInnerInner1"></feColorMatrix>
        </filter>
        <linearGradient x1="40.7675756%" y1="0%" x2="40.7675756%" y2="100%" id="linearGradient-5">
            <stop stop-color="#FFFFFF" stop-opacity="0.2" offset="0%"></stop>
            <stop stop-color="#000000" stop-opacity="0.2" offset="100%"></stop>
        </linearGradient>
        <filter x="-25.9%" y="-4.8%" width="151.8%" height="119.4%" filterUnits="objectBoundingBox" id="filter-6">
            <feOffset dx="0" dy="1" in="SourceAlpha" result="shadowOffsetOuter1"></feOffset>
            <feGaussianBlur stdDeviation="0.5" in="shadowOffsetOuter1" result="shadowBlurOuter1"></feGaussianBlur>
            <feColorMatrix values="0 0 0 0 0   0 0 0 0 0   0 0 0 0 0  0 0 0 0.20036604 0" type="matrix" in="shadowBlurOuter1" result="shadowMatrixOuter1"></feColorMatrix>
            <feMerge>
                <feMergeNode in="shadowMatrixOuter1"></feMergeNode>
                <feMergeNode in="SourceGraphic"></feMergeNode>
            </feMerge>
        </filter>
        <linearGradient x1="52.4314481%" y1="0%" x2="34.8331847%" y2="86.2898213%" id="linearGradient-7">
            <stop stop-color="#1B90FF" offset="0%"></stop>
            <stop stop-color="#53A0FD" offset="47.5247532%"></stop>
            <stop stop-color="#68FFAD" offset="100%"></stop>
        </linearGradient>
        <linearGradient x1="51.9006097%" y1="0%" x2="62.6734318%" y2="71.0304085%" id="linearGradient-8">
            <stop stop-color="#BC6FFF" offset="0%"></stop>
            <stop stop-color="#3EFF90" offset="100%"></stop>
        </linearGradient>
        <linearGradient x1="62.4020117%" y1="18.2999345%" x2="33.6419514%" y2="92.1740161%" id="linearGradient-9">
            <stop stop-color="#D10BFF" offset="0%"></stop>
            <stop stop-color="#FFEE28" offset="100%"></stop>
        </linearGradient>
        <linearGradient x1="96.2409665%" y1="20.6323961%" x2="0.127394189%" y2="84.8116024%" id="linearGradient-10">
            <stop stop-color="#FF035B" offset="0%"></stop>
            <stop stop-color="#FFC800" offset="100%"></stop>
        </linearGradient>
        <linearGradient x1="95.7922523%" y1="45.1478281%" x2="0%" y2="52.5630705%" id="linearGradient-11">
            <stop stop-color="#E06C00" offset="0%"></stop>
            <stop stop-color="#FFFF46" offset="100%"></stop>
        </linearGradient>
        <linearGradient x1="-37.3227872%" y1="100%" x2="100%" y2="100%" id="linearGradient-12">
            <stop stop-color="#828282" offset="0%"></stop>
            <stop stop-color="#353535" offset="100%"></stop>
        </linearGradient>
    </defs>
    <g id="apps/128/deepin-draw" stroke="none" fill="none" transform="translate(0.5, 2)">
        <g id="Group" filter="url(#filter-1)" stroke-width="1" fill-rule="evenodd" transform="translate(1.125, -0.6167)">
            <g id="Mask">
                <use fill="url(#linearGradient-2)" fill-rule="evenodd" xlink:href="#path-3"></use>
                <use fill="black" fill-opacity="1" filter="url(#filter-4)" xlink:href="#path-3"></use>
            </g>
            <path d="M10.875,1.6905523 C11.5208584,1.6905523 11.754195,2.28462484 11.9768739,2.93287017 L12.008656,3.02578687 L12.0466225,3.13675778 C12.2948839,3.85857398 12.5812325,4.5778171 13.4467694,4.56752478 C15.348922,4.54490581 17.1852922,4.78398761 19.3251789,6.58885836 C20.9481647,7.95775301 21.75,10.5890633 21.75,12.5641065 C21.75,18.5694046 16.8810967,23.4376606 10.875,23.4376606 C4.86890335,23.4376606 0,18.5694046 0,12.5641065 C0,6.55880832 4.86890335,1.6905523 10.875,1.6905523 Z M10.875,1.8780523 C4.97245116,1.8780523 0.1875,6.66236729 0.1875,12.5641065 C0.1875,18.4658456 4.97245116,23.2501606 10.875,23.2501606 C16.7775488,23.2501606 21.5625,18.4658456 21.5625,12.5641065 C21.5625,10.3938362 20.6454268,7.94769915 19.2042914,6.73218475 C17.3738265,5.18829344 15.7996387,4.72705948 13.4489989,4.75501153 C12.6108878,4.76497771 12.2502034,4.30516322 11.8692182,3.19745322 L11.8312054,3.08634695 C11.5135342,2.15551992 11.3239896,1.8780523 10.875,1.8780523 Z M10.2272634,4.26429854 C11.1496333,4.79675827 11.4008008,6.06671537 10.8055831,7.09752561 C10.210373,8.12832263 8.98486303,8.54580071 8.06250935,8.01335036 C7.14013942,7.48089064 6.88897193,6.21093354 7.48418964,5.1801233 C8.07939971,4.14932628 9.30490969,3.7318482 10.2272634,4.26429854 Z M7.646564,5.27388265 C7.10055522,6.21947187 7.32874941,7.37327103 8.15625,7.8509652 C8.98375059,8.32865937 10.0971999,7.94935549 10.6432087,7.00376626 C11.1892175,6.05817704 10.9610233,4.90437787 10.1335227,4.4266837 C9.30602214,3.94898953 8.19257279,4.32829342 7.646564,5.27388265 Z" id="Mask" fill="url(#linearGradient-5)" fill-rule="nonzero"></path>
            <g id="Group-2" filter="url(#filter-6)" transform="translate(11.4154, 10.9604) rotate(27) translate(-11.4154, -10.9604)translate(7.5563, 0.6256)">
                <g id="Group-4" transform="translate(3.8591, 15.4846) scale(1, -1) rotate(-15) translate(-3.8591, -15.4846)translate(1.1044, 10.8547)">
                    <path d="M2.24703384,8.52651283e-14 C6.28683207,1.06786774 6.10693024,7.11081279 4.22684502,8.66168253 C3.82549969,8.99274961 3.41905455,9.17817963 3.02742761,9.26031717 L0.698243825,8.59294679 C0.0832330472,7.9274389 -0.269648007,6.45564179 0.25500873,5.17872961 C1.17929463,2.92919801 4.22684502,1.67104532 2.24703384,8.52651283e-14 Z" id="Mask" fill="url(#linearGradient-7)"></path>
                    <path d="M2.66284128,0.158839611 L2.77773238,0.177922221 C6.26669538,1.61404512 6.02048954,7.18211715 4.22684502,8.66168253 C3.82637711,8.99202583 3.42083167,9.17736816 3.02999635,9.25977699 L0.770811935,8.61188737 C0.683870674,8.01914961 0.707050795,7.38190583 0.888525881,6.76275872 C1.73155508,3.88655624 5.30470265,1.95195671 2.66284128,0.158839611 Z" id="Combined-Shape" fill="url(#linearGradient-8)"></path>
                    <path d="M3.99190106,0.984610618 L4.02238166,0.994576425 C6.16830547,3.0834804 5.77108231,7.3878515 4.22684502,8.66168253 C3.82637711,8.99202583 3.42083167,9.17736816 3.02999635,9.25977699 L0.776112902,8.61399536 C0.804044082,8.06575682 0.933651114,7.49969279 1.19458999,6.97258255 C2.47977862,4.37643393 6.2054871,3.1346555 3.99190106,0.984610618 Z" id="Combined-Shape" fill="url(#linearGradient-9)"></path>
                    <path d="M4.22684502,8.66168253 C3.82637711,8.99202583 3.42083167,9.17736816 3.02999635,9.25977699 L0.789323793,8.6180357 C0.942835815,8.23682868 1.15951085,7.86811359 1.4461319,7.54229397 C2.6996311,6.11736503 4.90088026,5.60854953 5.49345316,4.53341802 C5.60823276,6.2463014 5.10154258,7.94015036 4.22684502,8.66168253 Z" id="Combined-Shape" fill="url(#linearGradient-10)"></path>
                    <path d="M4.22684502,8.66168253 C3.82637711,8.99202583 3.42083167,9.17736816 3.02999635,9.25977699 L0.936338235,8.65804046 C1.00925111,8.61618869 1.08451317,8.5772757 1.16204917,8.54167369 C1.67258137,8.30725395 2.23783833,8.20847858 2.78574791,8.14575302 L3.1118354,8.11164691 C3.8264832,8.04220003 4.48510588,8.0012067 4.91885999,7.75534664 C4.72726864,8.12963926 4.49425426,8.44109843 4.22684502,8.66168253 Z" id="Combined-Shape" fill="url(#linearGradient-11)"></path>
                </g>
                <path d="M3.50487512,2.47126231 L4.98782967,2.47126231 L4.98782967,7.90803938 L3.50487512,7.90803938 Z M3.22695418,8.39271774 L5.06644036,8.38709225 C5.29166137,8.38640348 5.48956253,8.53633175 5.54986508,8.75333078 L5.885531,9.96122631 C5.95949042,10.2273697 5.80369457,10.5030774 5.53755122,10.5770368 C5.49394459,10.5891548 5.44889492,10.5952979 5.40363584,10.5952979 L2.9215918,10.5952979 C2.64536314,10.5952979 2.42143555,10.3713704 2.42143555,10.0951417 C2.42143555,10.0534205 2.42665583,10.0118631 2.43697473,9.97143814 L2.74386667,8.7691681 C2.8002614,8.54823793 2.99894098,8.39341505 3.22695418,8.39271774 Z M3.50487512,1.97700985 L4.98782967,1.97700985 L4.98782967,0.50015625 C4.98782967,0.223927581 4.76390209,0 4.48767342,0 L4.00503137,0 C3.7288027,-2.22044605e-16 3.50487512,0.223927581 3.50487512,0.50015625 L3.50487512,1.97700985 L3.50487512,1.97700985 Z" id="Combined-Shape" fill="url(#linearGradient-12)"></path>
            </g>
        </g>
        <g id="Guide/128"></g>
    </g>
</svg>