<?xml version="1.0" encoding="UTF-8"?>
<svg width="24px" height="24px" viewBox="0 0 24 24" version="1.1" xmlns="http://www.w3.org/2000/svg" xmlns:xlink="http://www.w3.org/1999/xlink">
    <!-- Generator: Sketch 48.1 (47250) - http://www.bohemiancoding.com/sketch -->
    <title>filp_Vertical_normal</title>
    <desc>Created with Sketch.</desc>
    <defs></defs>
    <g id="浅色_图标整理" stroke="none" stroke-width="1" fill="none" fill-rule="evenodd" transform="translate(-185.000000, -297.000000)" opacity="0.971">
        <g id="flip-vertical-normal" transform="translate(185.000000, 297.000000)">
            <rect id="rect34212" fill="#D8D8D8" opacity="0" x="-5.68434189e-14" y="0" width="24" height="24" rx="1.7382799e-05"></rect>
            <path d="M6.53379827,5.00000285 C6.25840961,5.00107675 6.0357237,5.2246121 6.03569827,5.50000285 L6.03569827,10.5000029 C6.03572587,10.7761338 6.25956733,10.9999753 6.53569827,11.0000029 L18.5356983,11.0000029 C18.7736706,10.9997923 18.9785269,10.8319045 19.0254772,10.5986095 C19.0724275,10.3653145 18.9484633,10.1312519 18.7290983,10.0390029 L6.72909827,5.03900285 C6.66727174,5.01303946 6.60085472,4.99977646 6.53379827,5.00000285 L6.53379827,5.00000285 Z M7.03569827,6.24810285 L16.0376983,10.0000029 L7.03569827,10.0000029 L7.03569827,6.24810285 L7.03569827,6.24810285 Z M4.47519827,12.0000029 C4.29655325,12.0090967 4.13633205,12.1128115 4.05489514,12.2720748 C3.97345823,12.431338 3.98317946,12.6219504 4.08039654,12.7721023 C4.17761362,12.9222541 4.34755499,13.0091307 4.52619827,13.0000029 L20.5593983,13.0000029 C20.7397152,13.0025514 20.9074363,12.9078133 20.9983386,12.7520652 C21.0892408,12.596317 21.0892408,12.4036887 20.9983386,12.2479405 C20.9074363,12.0921924 20.7397152,11.9974543 20.5593983,12.0000029 L4.52619827,12.0000029 C4.50920934,11.9991354 4.49218721,11.9991354 4.47519827,12.0000029 L4.47519827,12.0000029 Z M6.53569827,14.0000029 C6.25956733,14.0000304 6.03572587,14.2238719 6.03569827,14.5000029 L6.03569827,19.5000029 C6.0357508,19.6673648 6.1195263,19.823604 6.25889726,19.9162634 C6.39826821,20.0089228 6.57475345,20.0257153 6.72909827,19.9610029 L18.7290983,14.9610029 C18.9484633,14.8687538 19.0724275,14.6346912 19.0254772,14.4013962 C18.9785269,14.1681012 18.7736706,14.0002134 18.5356983,14.0000029 L6.53569827,14.0000029 L6.53569827,14.0000029 Z M7.03569827,15.0000029 L16.0376983,15.0000029 L7.03569827,18.7519029 L7.03569827,15.0000029 L7.03569827,15.0000029 Z" id="path34226" fill="#303030"></path>
        </g>
    </g>
</svg>