<?xml version="1.0" encoding="UTF-8"?>
<svg width="24px" height="24px" viewBox="0 0 24 24" version="1.1" xmlns="http://www.w3.org/2000/svg" xmlns:xlink="http://www.w3.org/1999/xlink">
    <!-- Generator: Sketch 48.1 (47250) - http://www.bohemiancoding.com/sketch -->
    <title>flip_Horizontal_normal</title>
    <desc>Created with Sketch.</desc>
    <defs></defs>
    <g id="浅色_图标整理" stroke="none" stroke-width="1" fill="none" fill-rule="evenodd" transform="translate(-151.000000, -297.000000)" opacity="0.971">
        <g id="flip-horizontal-normal" transform="translate(151.000000, 297.000000)">
            <rect id="rect34210" fill="#D8D8D8" opacity="0" transform="translate(12.000000, 12.000000) scale(1, -1) translate(-12.000000, -12.000000) " x="0" y="0" width="24" height="24" rx="1.7382798e-05"></rect>
            <path d="M11.1406849,4.15202 C11.0483901,4.24725161 10.9977028,4.37525201 10.9997742,4.5078611 L10.9997742,19.5410611 C10.9972259,19.721378 11.0919524,19.8890992 11.2476816,19.9800014 C11.4034107,20.0709036 11.5960155,20.0709036 11.7517446,19.9800014 C11.9074737,19.8890992 12.0022003,19.721378 11.999652,19.5410611 L11.999652,4.5078611 C12.0017657,4.37254718 11.948951,4.24215438 11.8532697,4.14646132 C11.7575883,4.05076826 11.6272114,3.99794716 11.491914,4.0000611 C11.3593211,4.00212691 11.2329796,4.05678839 11.1406849,4.15202 Z M8.92637022,6.26193685 L2.06903741,17.2617149 C1.97309136,17.416626 1.97740628,17.6042856 2.08039567,17.7556949 C2.18338505,17.9071042 2.3698469,17.999914 2.57122275,18 L9.42855556,18 C9.74414252,17.9999724 9.99996842,17.7761355 9.99999996,17.5000101 L9.99999996,6.50023205 C10.0000593,6.36488324 9.9374075,6.23529466 9.82635683,6.14106979 C9.71530616,6.04684492 9.56534345,5.99603319 9.41072649,6.00024213 C9.20757515,6.00590658 9.0231488,6.10555101 8.92637022,6.26193685 Z M13,6.50017323 L13,17.5000075 C13.0000316,17.7761343 13.2558538,17.9999724 13.5714363,18 L20.4286711,18 C20.6300645,17.9999492 20.8165606,17.9071529 20.9195762,17.7557366 C21.0225919,17.6043202 21.026918,17.4166387 20.9309636,17.2617111 L14.0737287,6.26187682 C13.9712119,6.09628163 13.771055,5.9951293 13.5558932,6.00018077 C13.2463969,6.00757564 12.9999156,6.22927075 13,6.50017323 Z M9,17 L3.37510621,17 L9,8 L9,17 Z M19.4877004,17 L14,17 L14,8 L19.4877004,17 Z" id="path34220" fill="#303030"></path>
        </g>
    </g>
</svg>