<?xml version="1.0" encoding="UTF-8"?>
<svg width="24px" height="24px" viewBox="0 0 24 24" version="1.1" xmlns="http://www.w3.org/2000/svg" xmlns:xlink="http://www.w3.org/1999/xlink">
    <!-- Generator: Sketch 48.1 (47250) - http://www.bohemiancoding.com/sketch -->
    <title>Import_normal</title>
    <desc>Created with Sketch.</desc>
    <defs></defs>
    <g id="浅色_图标整理" stroke="none" stroke-width="1" fill="none" fill-rule="evenodd" transform="translate(-83.000000, -77.000000)">
        <g id="图片" transform="translate(83.000000, 77.000000)">
            <rect id="Rectangle-11-Copy-6" fill="#D8D8D8" opacity="0" x="0" y="0" width="24" height="24"></rect>
            <path d="M4,19 L4,5 L20,5 L20,19 L4,19 Z M5,18 L19,18 L19,6 L5,6 L5,18 Z M16,15 L14,12 L13,15 L10,10 L8,15 L16,15 Z M12,12 L13,13 L13,12 L14,12 L13,12 L14,10 L18,16 L6,16 L10,8 L12,12 Z" id="Combined-Shape" fill="#303030" fill-rule="nonzero"></path>
        </g>
    </g>
</svg>