<?xml version="1.0" encoding="UTF-8"?>
<svg width="48px" height="48px" viewBox="0 0 48 48" version="1.1" xmlns="http://www.w3.org/2000/svg" xmlns:xlink="http://www.w3.org/1999/xlink">
    <title>layer_down_normal备份</title>
    <defs>
        <linearGradient x1="50%" y1="0%" x2="50%" y2="95.6533653%" id="linearGradient-1">
            <stop stop-color="#E6E6E6" offset="0%"></stop>
            <stop stop-color="#E3E3E3" offset="100%"></stop>
        </linearGradient>
        <path d="M0,8.00074125 C0,3.58205387 3.58493529,-3.06954487e-13 7.99845994,-3.06954487e-13 L32.0015401,-3.06954487e-13 C36.4189675,-3.06954487e-13 40,3.58343124 40,8.00074125 L40,27.9992587 C40,32.4179461 36.4150647,36 32.0015401,36 L7.99845994,36 C3.58103249,36 0,32.4165688 0,27.9992587 L0,8.00074125 Z" id="path-2"></path>
        <filter x="-17.5%" y="-13.9%" width="135.0%" height="138.9%" filterUnits="objectBoundingBox" id="filter-3">
            <feOffset dx="0" dy="2" in="SourceAlpha" result="shadowOffsetOuter1"></feOffset>
            <feGaussianBlur stdDeviation="2" in="shadowOffsetOuter1" result="shadowBlurOuter1"></feGaussianBlur>
            <feComposite in="shadowBlurOuter1" in2="SourceAlpha" operator="out" result="shadowBlurOuter1"></feComposite>
            <feColorMatrix values="0 0 0 0 0   0 0 0 0 0   0 0 0 0 0  0 0 0 0.05 0" type="matrix" in="shadowBlurOuter1"></feColorMatrix>
        </filter>
    </defs>
    <g id="浅色主题" stroke="none" stroke-width="1" fill="none" fill-rule="evenodd">
        <g id="新增切图" transform="translate(-103.000000, -736.000000)">
            <g id="layer_down_normal备份" transform="translate(103.000000, 736.000000)">
                <g id="rect34160" transform="translate(4.000000, 6.000000)">
                    <use fill="black" fill-opacity="1" filter="url(#filter-3)" xlink:href="#path-2"></use>
                    <use fill-opacity="0.08" fill="#000000" fill-rule="evenodd" xlink:href="#path-2"></use>
                    <path stroke-opacity="0.03" stroke="#000000" stroke-width="1" d="M32.0015401,0.5 C34.0720021,0.5 35.9464521,1.3397458 37.3033631,2.69704378 C38.6605397,4.05460754 39.5,5.92993393 39.5,8.00074125 L39.5,8.00074125 L39.5,27.9992587 C39.5,30.070082 38.6601043,31.9448807 37.3031977,33.3021743 C35.9457357,34.6600235 34.0708019,35.5 32.0015401,35.5 L32.0015401,35.5 L7.99845994,35.5 C5.92799786,35.5 4.05354789,34.6602542 2.69663693,33.3029562 C1.33946026,31.9453925 0.5,30.0700661 0.5,27.9992587 L0.5,27.9992587 L0.5,8.00074125 C0.5,5.92991801 1.33989569,4.0551193 2.69680225,2.69782572 C4.05426429,1.3399765 5.92919809,0.5 7.99845994,0.5 L7.99845994,0.5 Z" stroke-linejoin="square" fill="url(#linearGradient-1)" fill-rule="evenodd"></path>
                </g>
                <g id="置顶-(5)" transform="translate(24.500000, 24.000000) scale(1, -1) translate(-24.500000, -24.000000) translate(16.000000, 16.000000)" stroke="#536076">
                    <g id="置顶-(8)" transform="translate(8.500000, 8.000000) scale(1, -1) translate(-8.500000, -8.000000) ">
                        <rect id="矩形" fill="#CDCDCD" x="0.5" y="1.5" width="9" height="9" rx="2"></rect>
                        <rect id="矩形备份" fill="#E5E5E5" x="5.5" y="6.5" width="9" height="9" rx="2"></rect>
                    </g>
                </g>
            </g>
        </g>
    </g>
</svg>