<?xml version="1.0" encoding="UTF-8"?>
<svg width="20px" height="20px" viewBox="0 0 20 20" version="1.1" xmlns="http://www.w3.org/2000/svg" xmlns:xlink="http://www.w3.org/1999/xlink">
    <title>icon/toolbar/arrow/highlight</title>
    <defs>
        <path d="M9.67466739,1.75427284 C9.79196074,1.80481097 9.88546803,1.89831827 9.93600616,2.01561162 L14.6366289,12.9252312 C14.7458989,13.1788346 14.6288935,13.4730015 14.3752901,13.5822715 C14.2828761,13.6220899 14.1805978,13.6330975 14.0818274,13.6138552 L10.5829996,12.9313347 L10.5837258,16.5062119 C10.5837258,16.7823542 10.3598682,17.0062119 10.0837258,17.0062119 L8.86990737,17.0062119 C8.593765,17.0062119 8.36990737,16.7823542 8.36990737,16.5062119 L8.36899956,12.9343347 L4.87140188,13.6143463 C4.60033275,13.6670354 4.33787486,13.4900034 4.28518577,13.2189342 C4.26599957,13.1202272 4.27702071,13.0180285 4.31681027,12.9256814 L9.01762702,2.01561162 C9.126897,1.76200822 9.42106399,1.64500286 9.67466739,1.75427284 Z" id="path-1"></path>
        <filter x="-105.8%" y="-45.8%" width="311.5%" height="243.9%" filterUnits="objectBoundingBox" id="filter-2">
            <feOffset dx="0" dy="4" in="SourceAlpha" result="shadowOffsetOuter1"></feOffset>
            <feGaussianBlur stdDeviation="3" in="shadowOffsetOuter1" result="shadowBlurOuter1"></feGaussianBlur>
            <feColorMatrix values="0 0 0 0 0   0 0 0 0 0.505882353   0 0 0 0 1  0 0 0 0.4 0" type="matrix" in="shadowBlurOuter1"></feColorMatrix>
        </filter>
    </defs>
    <g id="icon/toolbar/arrow/highlight" stroke="none" stroke-width="1" fill="none" fill-rule="evenodd">
        <g id="箭头">
            <rect id="矩形" fill-opacity="0.1" fill="#FFFFFF" opacity="0" x="0" y="0" width="20" height="20" rx="4"></rect>
            <g id="形状结合" transform="translate(9.476783, 9.359773) rotate(-30.000000) translate(-9.476783, -9.359773) ">
                <use fill="black" fill-opacity="1" filter="url(#filter-2)" xlink:href="#path-1"></use>
                <use fill="#0081FF" fill-rule="evenodd" xlink:href="#path-1"></use>
            </g>
        </g>
    </g>
</svg>