<?xml version="1.0" encoding="UTF-8"?>
<svg width="20px" height="20px" viewBox="0 0 20 20" version="1.1" xmlns="http://www.w3.org/2000/svg" xmlns:xlink="http://www.w3.org/1999/xlink">
    <title>icon/toolbar/arrow/normal</title>
    <g id="icon/toolbar/arrow/normal" stroke="none" stroke-width="1" fill="none" fill-rule="evenodd">
        <g id="箭头">
            <rect id="矩形" fill-opacity="0.1" fill="#FFFFFF" opacity="0" x="0" y="0" width="20" height="20" rx="4"></rect>
            <path d="M9.69785435,1.74806055 C9.81514769,1.79859868 9.90865499,1.89210597 9.95919312,2.00939932 L14.6598159,12.9190189 C14.7690859,13.1726223 14.6520805,13.4667893 14.3984771,13.5760592 C14.306063,13.6158776 14.2037848,13.6268852 14.1050144,13.6076429 L10.6061016,12.9248696 L10.6069128,16.4999996 C10.6069128,16.7761419 10.3830551,16.9999996 10.1069128,16.9999996 L8.89309433,16.9999996 C8.61695195,16.9999996 8.39309433,16.7761419 8.39309433,16.4999996 L8.39210161,12.9278696 L4.89458883,13.608134 C4.62351971,13.6608231 4.36106181,13.4837911 4.30837272,13.2127219 C4.28918652,13.1140149 4.30020766,13.0118162 4.33999722,12.9194691 L9.04081398,2.00939932 C9.15008396,1.75579592 9.44425095,1.63879057 9.69785435,1.74806055 Z" id="形状结合" fill-opacity="0.7" fill="#000000" fill-rule="nonzero" transform="translate(9.499969, 9.399935) rotate(-30.000000) translate(-9.499969, -9.399935) "></path>
        </g>
    </g>
</svg>