<?xml version="1.0" encoding="UTF-8"?>
<svg width="20px" height="20px" viewBox="0 0 20 20" version="1.1" xmlns="http://www.w3.org/2000/svg" xmlns:xlink="http://www.w3.org/1999/xlink">
    <title>tailor@1x</title>
    <g id="画板V23一期" stroke="none" stroke-width="1" fill="none" fill-rule="evenodd">
        <g id="12-画板-icon切图" transform="translate(-117, -757)">
            <g id="tailor" transform="translate(117, 757)">
                <rect id="矩形" fill-opacity="0" fill="#000000" x="0" y="0" width="20" height="20"></rect>
                <g id="icon-toolbar-vague">
                    <g id="箭头" fill="#FFFFFF" fill-opacity="0.1" opacity="0">
                        <rect id="矩形" x="0" y="0" width="20" height="20" rx="4"></rect>
                    </g>
                    <path d="M15,4 C15.5522847,4 16,4.44771525 16,5 L16,14 L18,14 C18.5522847,14 19,14.4477153 19,15 C19,15.5522847 18.5522847,16 18,16 L16,16 L16,18 C16,18.5522847 15.5522847,19 15,19 C14.4477153,19 14,18.5522847 14,18 L14,16 L5,16 C4.44771525,16 4,15.5522847 4,15 L4,6 L2,6 C1.44771525,6 1,5.55228475 1,5 C1,4.44771525 1.44771525,4 2,4 L4,4 L4,2 C4,1.44771525 4.44771525,1 5,1 C5.55228475,1 6,1.44771525 6,2 L6,4 L15,4 Z M14,14 L14,6 L6,6 L6,14 L14,14 Z" id="形状结合" fill-opacity="0.7" fill="#000000" fill-rule="nonzero"></path>
                </g>
            </g>
        </g>
    </g>
</svg>