<?xml version="1.0" encoding="UTF-8"?>
<svg width="20px" height="20px" viewBox="0 0 20 20" version="1.1" xmlns="http://www.w3.org/2000/svg" xmlns:xlink="http://www.w3.org/1999/xlink">
    <title>icon/toolbar/brush/normal</title>
    <g id="icon/toolbar/brush/normal" stroke="none" stroke-width="1" fill="none" fill-rule="evenodd">
        <g id="箭头">
            <rect id="矩形" fill-opacity="0.1" fill="#FFFFFF" opacity="0" x="0" y="0" width="20" height="20" rx="4"></rect>
            <path d="M6.2239986,12.1125711 C6.2239986,12.1125711 4.28026872,13.1834779 4.20505624,14.8619618 C4.12986512,16.5404674 2.55065937,17.7612144 2.02425746,17.9137861 C1.49785554,18.0663579 9.71979791,18.4117578 9.11820488,14.8258458 L6.22401997,12.1125711 L6.2239986,12.1125711 Z M9.83716785,13.2519813 C10.1366503,13.5468275 10.2124824,13.9603189 10.0065882,14.1756059 C9.80071543,14.3908712 9.3909997,14.3263566 9.09158137,14.0315104 L7.10941192,12.1125927 C6.80995086,11.8177682 6.73409736,11.4042551 6.93999153,11.1889898 C7.1458857,10.9737245 7.55558007,11.0382174 7.85501977,11.3330636 L9.83716785,13.2519813 L9.83716785,13.2519813 Z M16.711717,3.16978358 C16.1744606,2.80006058 15.6916264,3.13156478 15.4835955,3.25226942 C14.8618745,3.67467063 10.4143809,8.05986071 8.48178334,10.085132 C8.24450077,10.4059705 8.08456741,10.6551406 9.222434,11.8095521 C10.1828889,12.7839906 10.6304459,12.7202999 11.1168484,12.2995462 C11.9267929,11.4778095 15.3753066,6.59976378 16.6492394,4.74004951 C16.8584668,4.43455924 17.2870712,3.56573729 16.711717,3.16978358 Z" id="形状" fill-opacity="0.7" fill="#000000" fill-rule="nonzero"></path>
        </g>
    </g>
</svg>