<?xml version="1.0" encoding="UTF-8"?>
<svg width="20px" height="20px" viewBox="0 0 20 20" version="1.1" xmlns="http://www.w3.org/2000/svg" xmlns:xlink="http://www.w3.org/1999/xlink">
    <title>icon/toolbar/picture/light</title>
    <defs>
        <path d="M16,4 C17.1045695,4 18,4.8954305 18,6 L18,14 C18,15.1045695 17.1045695,16 16,16 L4,16 C2.8954305,16 2,15.1045695 2,14 L2,6 C2,4.8954305 2.8954305,4 4,4 L16,4 Z M8.78322347,6.89006366 C8.53227202,6.39358075 8.11829602,6.39719045 7.85303406,6.88714971 L7.85303406,6.88714971 L4.48029927,13.1168503 C4.20900567,13.6179504 4.44882258,14.0037493 5.00247329,14.0034401 L5.00247329,14.0034401 L14.9975267,13.997858 C15.544239,13.9975527 15.7472117,13.6280352 15.4353815,13.1725263 L15.4353815,13.1725263 L12.5646185,8.9790321 C12.2502179,8.51976842 11.7878556,8.54598665 11.5261623,9.02920568 L11.5261623,9.02920568 L11.1405044,9.74132646 C10.8808897,10.2207071 10.465244,10.2177768 10.2167765,9.72620826 L10.2167765,9.72620826 Z" id="path-1"></path>
        <filter x="-68.8%" y="-58.3%" width="237.5%" height="283.3%" filterUnits="objectBoundingBox" id="filter-2">
            <feOffset dx="0" dy="4" in="SourceAlpha" result="shadowOffsetOuter1"></feOffset>
            <feGaussianBlur stdDeviation="3" in="shadowOffsetOuter1" result="shadowBlurOuter1"></feGaussianBlur>
            <feColorMatrix values="0 0 0 0 0   0 0 0 0 0.505882353   0 0 0 0 1  0 0 0 0.4 0" type="matrix" in="shadowBlurOuter1"></feColorMatrix>
        </filter>
    </defs>
    <g id="icon/toolbar/picture/light" stroke="none" stroke-width="1" fill="none" fill-rule="evenodd">
        <g id="箭头">
            <rect id="矩形" fill-opacity="0.1" fill="#FFFFFF" opacity="0" x="0" y="0" width="20" height="20" rx="4"></rect>
            <g id="形状结合">
                <use fill="black" fill-opacity="1" filter="url(#filter-2)" xlink:href="#path-1"></use>
                <use fill="#0081FF" fill-rule="evenodd" xlink:href="#path-1"></use>
            </g>
        </g>
    </g>
</svg>