<?xml version="1.0" encoding="UTF-8"?>
<svg width="20px" height="20px" viewBox="0 0 20 20" version="1.1" xmlns="http://www.w3.org/2000/svg" xmlns:xlink="http://www.w3.org/1999/xlink">
    <title>icon/toolbar/withdraw/normal</title>
    <g id="icon/toolbar/withdraw/normal" stroke="none" stroke-width="1" fill="none" fill-rule="evenodd" fill-opacity="0.7">
        <path d="M6.69559003,17 L6.58337887,16.9932723 C6.08604019,16.9355072 5.7,16.5128358 5.7,16 C5.7,15.4477153 6.14771525,15 6.7,15 L6.69559003,15 L11.6666667,15 C13.8758057,15 15.6666667,13.209139 15.6666667,11 C15.6666667,8.85780461 13.9826982,7.10892112 11.866307,7.00489531 L11.6666667,7 L7.333,7 L7.33333333,8.98805753 C7.33333333,9.2641999 7.10947571,9.48805753 6.83333333,9.48805753 C6.72352882,9.48805753 6.61677763,9.45191166 6.52956143,9.38520061 L2.52959928,6.32565814 C2.31026321,6.15788954 2.26845951,5.84407921 2.4362281,5.62474315 C2.46502651,5.58709289 2.49903249,5.55372908 2.53722486,5.5256536 L6.537187,2.58525286 C6.75968124,2.42169575 7.07263768,2.46947374 7.23619479,2.69196798 C7.29929981,2.77781264 7.33333333,2.88157066 7.33333333,2.98811431 L7.333,5 L11.6666667,5 C14.9803752,5 17.6666667,7.6862915 17.6666667,11 C17.6666667,14.2383969 15.1010918,16.8775718 11.8916049,16.9958615 L11.6666667,17 L6.69559003,17 Z" id="形状结合" fill="#000000" fill-rule="nonzero"></path>
    </g>
</svg>