<?xml version="1.0" encoding="UTF-8"?>
<svg width="20px" height="20px" viewBox="0 0 20 20" version="1.1" xmlns="http://www.w3.org/2000/svg" xmlns:xlink="http://www.w3.org/1999/xlink">
    <title>icon/toolbar/rubber/normal</title>
    <g id="icon/toolbar/rubber/normal" stroke="none" stroke-width="1" fill="none" fill-rule="evenodd" fill-opacity="0.7">
        <path d="M10.0933296,15.5527386 L3.54220368,11.1054599 C3.04359846,10.7669715 2.92242989,10.1007014 3.27156376,9.61729918 L8.44383244,2.45574497 C8.79298835,1.97234278 9.48021271,1.85484742 9.97881793,2.19331443 L16.5299218,6.64063589 C17.028527,6.97912428 17.1497176,7.64539439 16.8006058,8.12879657 L11.628293,15.2903294 C11.2791592,15.7737316 10.5919348,15.891227 10.0933296,15.5527599 L10.0933296,15.5527386 Z M6.01424515,17.6133312 L2.9401522,15.5264314 C1.94291972,14.8494546 1.70056055,13.5169144 2.39882829,12.5500887 L2.889939,11.8700773 L9.57534888,16.4085229 L9.08423817,17.0885342 C8.38597043,18.0553386 7.01149968,18.290308 6.01428924,17.6133312 L6.01424515,17.6133312 Z" id="形状" fill="#000000" fill-rule="nonzero"></path>
    </g>
</svg>