<?xml version="1.0" encoding="UTF-8"?>
<svg width="20px" height="20px" viewBox="0 0 20 20" version="1.1" xmlns="http://www.w3.org/2000/svg" xmlns:xlink="http://www.w3.org/1999/xlink">
    <title>icon/toolbar/rubber/highlight</title>
    <defs>
        <path d="M11.0933296,15.5527386 L4.54220368,11.1054599 C4.04359846,10.7669715 3.92242989,10.1007014 4.27156376,9.61729918 L9.44383244,2.45574497 C9.79298835,1.97234278 10.4802127,1.85484742 10.9788179,2.19331443 L17.5299218,6.64063589 C18.028527,6.97912428 18.1497176,7.64539439 17.8006058,8.12879657 L12.628293,15.2903294 C12.2791592,15.7737316 11.5919348,15.891227 11.0933296,15.5527599 L11.0933296,15.5527386 Z M7.01424515,17.6133312 L3.9401522,15.5264314 C2.94291972,14.8494546 2.70056055,13.5169144 3.39882829,12.5500887 L3.889939,11.8700773 L10.5753489,16.4085229 L10.0842382,17.0885342 C9.38597043,18.0553386 8.01149968,18.290308 7.01428924,17.6133312 L7.01424515,17.6133312 Z" id="path-1"></path>
        <filter x="-73.3%" y="-43.8%" width="246.7%" height="237.5%" filterUnits="objectBoundingBox" id="filter-2">
            <feOffset dx="0" dy="4" in="SourceAlpha" result="shadowOffsetOuter1"></feOffset>
            <feGaussianBlur stdDeviation="3" in="shadowOffsetOuter1" result="shadowBlurOuter1"></feGaussianBlur>
            <feColorMatrix values="0 0 0 0 0   0 0 0 0 0.505882353   0 0 0 0 1  0 0 0 0.4 0" type="matrix" in="shadowBlurOuter1"></feColorMatrix>
        </filter>
    </defs>
    <g id="icon/toolbar/rubber/highlight" stroke="none" stroke-width="1" fill="none" fill-rule="evenodd">
        <g id="箭头" fill="#FFFFFF" fill-opacity="0.1" opacity="0">
            <rect id="矩形" x="0" y="0" width="20" height="20" rx="4"></rect>
        </g>
        <g id="形状">
            <use fill="black" fill-opacity="1" filter="url(#filter-2)" xlink:href="#path-1"></use>
            <use fill="#0081FF" fill-rule="evenodd" xlink:href="#path-1"></use>
        </g>
    </g>
</svg>