<?xml version="1.0" encoding="UTF-8"?>
<svg width="20px" height="20px" viewBox="0 0 20 20" version="1.1" xmlns="http://www.w3.org/2000/svg" xmlns:xlink="http://www.w3.org/1999/xlink">
    <title>icon/toolbar/star/normal@1x</title>
    <g id="icon/toolbar/star/normal" stroke="none" stroke-width="1" fill="none" fill-rule="evenodd">
        <g id="箭头" fill="#FFFFFF" fill-opacity="0.1" opacity="0">
            <rect id="矩形" x="0" y="0" width="20" height="20" rx="4"></rect>
        </g>
        <path d="M9.53465887,14.7446443 L6.50340488,16.3382688 C6.0145603,16.5952696 5.40993314,16.4073231 5.15293233,15.9184785 C5.05059326,15.7238181 5.01527859,15.50085 5.05245543,15.2840924 L5.63137343,11.9087414 C5.68701137,11.5843474 5.57946288,11.2533472 5.3437768,11.02361 L2.8914408,8.63317322 C2.49595723,8.247672 2.48786492,7.61455874 2.87336613,7.21907516 C3.02687474,7.06159153 3.22801715,6.95910435 3.44565418,6.92747984 L6.83469917,6.43502277 C7.16040933,6.38769432 7.44197492,6.18312494 7.58763693,5.88798147 L9.10326392,2.81698575 C9.34768622,2.32173209 9.94731205,2.11839309 10.4425657,2.36281539 C10.6397783,2.46014562 10.7994058,2.61977315 10.8967361,2.81698575 L12.4123631,5.88798147 C12.5580251,6.18312494 12.8395907,6.38769432 13.1653008,6.43502277 L16.5543458,6.92747984 C17.1008907,7.00689745 17.4795721,7.51434031 17.4001545,8.06088517 C17.36853,8.2785222 17.2660428,8.47966461 17.1085592,8.63317322 L14.6562232,11.02361 C14.4205371,11.2533472 14.3129886,11.5843474 14.3686266,11.9087414 L14.9475446,15.2840924 C15.0409056,15.8284288 14.6753178,16.3453847 14.1309813,16.4387457 C13.9142237,16.4759226 13.6912556,16.4406079 13.4965951,16.3382688 L10.4653411,14.7446443 C10.1740171,14.5914862 9.8259829,14.5914862 9.53465887,14.7446443 Z" id="星形" fill-opacity="0.7" fill="#000000" fill-rule="nonzero"></path>
    </g>
</svg>