<?xml version="1.0" encoding="UTF-8"?>
<svg width="25px" height="25px" viewBox="0 0 25 25" version="1.1" xmlns="http://www.w3.org/2000/svg" xmlns:xlink="http://www.w3.org/1999/xlink">
    <!-- Generator: Sketch 64 (93537) - https://sketch.com -->
    <title>icon_drag_up</title>
    <desc>Created with Sketch.</desc>
    <defs>
        <path d="M19.0832006,10 C19.236465,10 19.3718153,10.0557325 19.4832803,10.1691879 L21.7603503,12.4442675 C21.8678344,12.5577229 21.9235669,12.6930732 21.9235669,12.8463376 C21.9235669,12.9996019 21.8678344,13.1349522 21.754379,13.2464172 L19.4812898,15.5234873 C19.3698248,15.6349522 19.2344745,15.6926752 19.0812102,15.6926752 C18.9279459,15.6926752 18.7925955,15.6369427 18.6811306,15.5234873 C18.5696656,15.4120223 18.5119427,15.2786624 18.5119427,15.1234076 L18.5119427,13.2464172 L13.0636354,13.246 L13.0636354,12.444 L18.5119427,12.4442675 L18.5139331,10.5692675 C18.5139331,10.4160032 18.5696656,10.2806529 18.683121,10.1691879 C18.794586,10.0577229 18.9279459,10 19.0832006,10 Z M5.33698248,10 C5.49024682,10 5.62559713,10.0557325 5.7370621,10.1691879 C5.84852707,10.2806529 5.90625,10.4160032 5.90625,10.5692675 L5.90625,12.4442675 L10.9856354,12.444 L10.9856354,13.246 L5.90625,13.2464172 L5.90625,15.1234076 C5.90625,15.276672 5.85051752,15.4120223 5.7370621,15.5234873 C5.62559713,15.6349522 5.49024682,15.6926752 5.33698248,15.6926752 C5.18371815,15.6926752 5.04836783,15.6369427 4.93690287,15.5234873 L2.66182325,13.2444268 C2.55035828,13.1329618 2.49263535,12.9996019 2.49263535,12.8443471 C2.49263535,12.6910828 2.54836783,12.5557325 2.66182325,12.4442675 L4.93690287,10.1691879 C5.04836783,10.0577229 5.18172771,10 5.33698248,10 Z" id="path-1"></path>
        <filter x="-33.8%" y="-113.1%" width="167.2%" height="327.3%" filterUnits="objectBoundingBox" id="filter-2">
            <feMorphology radius="0.5" operator="dilate" in="SourceAlpha" result="shadowSpreadOuter1"></feMorphology>
            <feOffset dx="0" dy="0" in="shadowSpreadOuter1" result="shadowOffsetOuter1"></feOffset>
            <feGaussianBlur stdDeviation="2" in="shadowOffsetOuter1" result="shadowBlurOuter1"></feGaussianBlur>
            <feComposite in="shadowBlurOuter1" in2="SourceAlpha" operator="out" result="shadowBlurOuter1"></feComposite>
            <feColorMatrix values="0 0 0 0 0   0 0 0 0 0   0 0 0 0 0  0 0 0 0.3 0" type="matrix" in="shadowBlurOuter1"></feColorMatrix>
        </filter>
    </defs>
    <g id="浅色主题" stroke="none" stroke-width="1" fill="none" fill-rule="evenodd">
        <g id="画板" transform="translate(-198.000000, -28.000000)">
            <g id="icon_drag_up" transform="translate(211.000000, 41.000000) rotate(90.000000) translate(-211.000000, -41.000000) translate(198.500000, 28.500000)">
                <g id="形状结合" fill-rule="nonzero">
                    <use fill="black" fill-opacity="1" filter="url(#filter-2)" xlink:href="#path-1"></use>
                    <path stroke="#FFFFFF" stroke-width="0.5" d="M18.264032,10.4759599 L18.2622079,12.1942553 L12.8136354,12.1939877 L12.8136354,13.4959809 L18.2619427,13.4963981 L18.2619427,15.1234076 C18.2619427,15.3468442 18.3436377,15.5395478 18.5043539,15.700264 C18.6639466,15.8627205 18.8597979,15.9426752 19.0812102,15.9426752 C19.3017822,15.9426752 19.4973503,15.8609801 19.6580665,15.700264 L21.9313103,13.4230392 C22.0936122,13.2636012 22.1735669,13.0677499 22.1735669,12.8463376 C22.1735669,12.6278681 22.0952857,12.4343034 21.9418385,12.2723314 L19.213705,9.81218559 C19.0668357,9.81218559 18.841617,9.79876976 18.264032,10.4759599 Z M4.78433166,9.95506908 L2.2944977,13.3205927 L6.15625,15.5570922 L6.15625,13.4963967 L11.2356354,13.4959795 L11.2356354,12.1939868 L6.11440521,12.1942566 L5.46748684,9.81218559 C5.32420989,9.81218559 5.11407647,9.84892419 4.78433166,9.95506908 Z" fill="#001A2E" fill-rule="evenodd"></path>
                </g>
                <path d="M11.7889648,10 L12.3401855,10 C12.395414,10 12.4401855,10.0447715 12.4401855,10.1 L12.4401855,15.9 C12.4401855,15.9552285 12.395414,16 12.3401855,16 L11.7889648,16 C11.7337364,16 11.6889648,15.9552285 11.6889648,15.9 L11.6889648,10.1 C11.6889648,10.0447715 11.7337364,10 11.7889648,10 Z" id="矩形" fill="#000000"></path>
                <path d="M12.5852966,9.70943097 L11.4353022,9.88602155 L11.5438538,16.290569 L12.6938482,16.1139785 L12.5852966,9.70943097 Z" id="矩形" stroke="#FFFFFF" stroke-width="0.5" fill="#000000"></path>
            </g>
        </g>
    </g>
</svg>