<?xml version="1.0" encoding="UTF-8"?>
<svg width="25px" height="25px" viewBox="0 0 25 25" version="1.1" xmlns="http://www.w3.org/2000/svg" xmlns:xlink="http://www.w3.org/1999/xlink">
    <!-- Generator: Sketch 64 (93537) - https://sketch.com -->
    <title>icon_drag_rightup</title>
    <desc>Created with Sketch.</desc>
    <defs>
        <path d="M17.0832006,6 C17.236465,6 17.3718153,6.05573248 17.4832803,6.1691879 L19.7603503,8.44426752 C19.8678344,8.55772293 19.9235669,8.69307325 19.9235669,8.84633758 C19.9235669,8.99960191 19.8678344,9.13495223 19.754379,9.2464172 L17.4812898,11.5234873 C17.3698248,11.6349522 17.2344745,11.6926752 17.0812102,11.6926752 C16.9279459,11.6926752 16.7925955,11.6369427 16.6811306,11.5234873 C16.5696656,11.4120223 16.5119427,11.2786624 16.5119427,11.1234076 L16.5119427,9.2464172 L11.0636354,9.246 L11.0636354,8.444 L16.5119427,8.44426752 L16.5139331,6.56926752 C16.5139331,6.41600318 16.5696656,6.28065287 16.683121,6.1691879 C16.794586,6.05772293 16.9279459,6 17.0832006,6 Z M3.33698248,6 C3.49024682,6 3.62559713,6.05573248 3.7370621,6.1691879 C3.84852707,6.28065287 3.90625,6.41600318 3.90625,6.56926752 L3.90625,8.44426752 L8.98563535,8.444 L8.98563535,9.246 L3.90625,9.2464172 L3.90625,11.1234076 C3.90625,11.276672 3.85051752,11.4120223 3.7370621,11.5234873 C3.62559713,11.6349522 3.49024682,11.6926752 3.33698248,11.6926752 C3.18371815,11.6926752 3.04836783,11.6369427 2.93690287,11.5234873 L0.661823248,9.24442675 C0.55035828,9.13296178 0.49263535,8.99960191 0.49263535,8.84434713 C0.49263535,8.6910828 0.548367834,8.55573248 0.661823248,8.44426752 L2.93690287,6.1691879 C3.04836783,6.05772293 3.18172771,6 3.33698248,6 Z" id="path-1"></path>
        <filter x="-33.8%" y="-113.1%" width="167.2%" height="327.3%" filterUnits="objectBoundingBox" id="filter-2">
            <feMorphology radius="0.5" operator="dilate" in="SourceAlpha" result="shadowSpreadOuter1"></feMorphology>
            <feOffset dx="0" dy="0" in="shadowSpreadOuter1" result="shadowOffsetOuter1"></feOffset>
            <feGaussianBlur stdDeviation="2" in="shadowOffsetOuter1" result="shadowBlurOuter1"></feGaussianBlur>
            <feComposite in="shadowBlurOuter1" in2="SourceAlpha" operator="out" result="shadowBlurOuter1"></feComposite>
            <feColorMatrix values="0 0 0 0 0   0 0 0 0 0   0 0 0 0 0  0 0 0 0.3 0" type="matrix" in="shadowBlurOuter1"></feColorMatrix>
        </filter>
    </defs>
    <g id="浅色主题" stroke="none" stroke-width="1" fill="none" fill-rule="evenodd">
        <g id="画板" transform="translate(-37.000000, -29.000000)">
            <g id="icon_drag_rightup" transform="translate(49.707107, 41.207107) rotate(-45.000000) translate(-49.707107, -41.207107) translate(39.707107, 31.707107)">
                <g id="形状结合" fill-rule="nonzero">
                    <use fill="black" fill-opacity="1" filter="url(#filter-2)" xlink:href="#path-1"></use>
                    <path stroke="#FFFFFF" stroke-width="0.5" d="M16.264032,6.4759599 L16.2622079,8.19425525 L10.8136354,8.19398772 L10.8136354,9.49598086 L16.2619427,9.49639805 L16.2619427,11.1234076 C16.2619427,11.3468442 16.3436377,11.5395478 16.5043539,11.700264 C16.6639466,11.8627205 16.8597979,11.9426752 17.0812102,11.9426752 C17.3017822,11.9426752 17.4973503,11.8609801 17.6580665,11.700264 L19.9313103,9.42303916 C20.0936122,9.26360121 20.1735669,9.06774985 20.1735669,8.84633758 C20.1735669,8.62786813 20.0952857,8.43430341 19.9418385,8.27233135 L17.213705,5.81218559 C17.0668357,5.81218559 16.841617,5.79876976 16.264032,6.4759599 Z M2.78433166,5.95506908 L0.294497697,9.32059268 L4.15625,11.5570922 L4.15625,9.49639666 L9.23563535,9.49597947 L9.23563535,8.19398683 L4.11440521,8.19425655 L3.46748684,5.81218559 C3.32420989,5.81218559 3.11407647,5.84892419 2.78433166,5.95506908 Z" fill="#001A2E" fill-rule="evenodd"></path>
                </g>
                <path d="M9.78896484,6 L10.3401855,6 C10.395414,6 10.4401855,6.04477153 10.4401855,6.1 L10.4401855,11.9 C10.4401855,11.9552285 10.395414,12 10.3401855,12 L9.78896484,12 C9.73373637,12 9.68896484,11.9552285 9.68896484,11.9 L9.68896484,6.1 C9.68896484,6.04477153 9.73373637,6 9.78896484,6 Z" id="矩形" fill="#000000"></path>
                <path d="M10.5852966,5.70943097 L9.43530218,5.88602155 L9.54385384,12.290569 L10.6938482,12.1139785 L10.5852966,5.70943097 Z" id="矩形" stroke="#FFFFFF" stroke-width="0.5" fill="#000000"></path>
            </g>
        </g>
    </g>
</svg>