<?xml version="1.0" encoding="UTF-8"?>
<svg width="24px" height="24px" viewBox="0 0 24 24" version="1.1" xmlns="http://www.w3.org/2000/svg" xmlns:xlink="http://www.w3.org/1999/xlink">
    <!-- Generator: Sketch 48.2 (47327) - http://www.bohemiancoding.com/sketch -->
    <title>mouse_rectangle</title>
    <desc>Created with Sketch.</desc>
    <defs>
        <path d="M6,13 L6,7 L7,7 L7,13 L13,13 L13,14 L7,14 L7,20 L6,20 L6,14 L0,14 L0,13 L6,13 Z M6,13 L6,14 L7,14 L7,13 L6,13 Z" id="path-1"></path>
    </defs>
    <g id="浅色_图标整理" stroke="none" stroke-width="1" fill="none" fill-rule="evenodd" transform="translate(-104.000000, -454.000000)">
        <g id="Group-8" transform="translate(105.000000, 457.000000)" fill-rule="nonzero">
            <path d="M10,0 L10,10 L20,10 L20,0 L10,0 Z M9,-1 L21,-1 L21,11 L9,11 L9,-1 Z" id="Rectangle-6" fill-opacity="0.4" fill="#FFFFFF"></path>
            <path d="M11,1 L11,9 L19,9 L19,1 L11,1 Z M10,0 L20,0 L20,10 L10,10 L10,0 Z" id="Rectangle-6" fill="#000000"></path>
            <g id="Combined-Shape">
                <use fill="#000000" fill-rule="evenodd" xlink:href="#path-1"></use>
                <path stroke-opacity="0.4" stroke="#FFFFFF" stroke-width="1" d="M5.5,12.5 L5.5,6.5 L7.5,6.5 L7.5,12.5 L13.5,12.5 L13.5,14.5 L7.5,14.5 L7.5,20.5 L5.5,20.5 L5.5,14.5 L-0.5,14.5 L-0.5,12.5 L5.5,12.5 Z M6.5,13.5 L7,13.5 L6.5,13 L6.5,13.5 L6.5,13 L6,13.5 L6.5,13.5 L6,13.5 L6.5,14 L6.5,13.5 L6.5,14 L7,13.5 L6.5,13.5 Z"></path>
            </g>
        </g>
    </g>
</svg>