<?xml version="1.0" encoding="UTF-8"?>
<svg width="36px" height="36px" viewBox="0 0 36 36" version="1.1" xmlns="http://www.w3.org/2000/svg" xmlns:xlink="http://www.w3.org/1999/xlink">
    <title>icon/toolbar/自适应画布2</title>
    <g id="icon/toolbar/自适应画布2" stroke="none" stroke-width="1" fill="none" fill-rule="evenodd">
        <rect id="矩形" fill-opacity="0" fill="#000000" x="0" y="0" width="36" height="36" rx="8"></rect>
        <rect id="矩形" fill-opacity="0.151479868" fill="#000000" x="9" y="11" width="18" height="14" rx="3"></rect>
        <path d="M26,18 C26.5128358,18 26.9355072,18.3860402 26.9932723,18.8833789 L27,19 L27,22 C27,23.5976809 25.75108,24.9036609 24.1762728,24.9949073 L24,25 L21,25 C20.4477153,25 20,24.5522847 20,24 C20,23.4871642 20.3860402,23.0644928 20.8833789,23.0067277 L21,23 L24,23 C24.5128358,23 24.9355072,22.6139598 24.9932723,22.1166211 L25,22 L25,19 C25,18.4477153 25.4477153,18 26,18 Z" id="路径-9" fill-opacity="0.7" fill="#000000" fill-rule="nonzero"></path>
        <path d="M15,11 C15.5128358,11 15.9355072,11.3860402 15.9932723,11.8833789 L16,12 L16,15 C16,16.5976809 14.75108,17.9036609 13.1762728,17.9949073 L13,18 L10,18 C9.44771525,18 9,17.5522847 9,17 C9,16.4871642 9.38604019,16.0644928 9.88337887,16.0067277 L10,16 L13,16 C13.5128358,16 13.9355072,15.6139598 13.9932723,15.1166211 L14,15 L14,12 C14,11.4477153 14.4477153,11 15,11 Z" id="路径-9" fill-opacity="0.7" fill="#000000" fill-rule="nonzero" transform="translate(12.500000, 14.500000) scale(-1, -1) translate(-12.500000, -14.500000) "></path>
    </g>
</svg>