<?xml version="1.0" encoding="UTF-8"?>
<svg width="16px" height="16px" viewBox="0 0 16 16" version="1.1" xmlns="http://www.w3.org/2000/svg" xmlns:xlink="http://www.w3.org/1999/xlink">
    <title>编组</title>
    <g id="控件" stroke="none" stroke-width="1" fill="none" fill-rule="evenodd">
        <g id="编组">
            <rect id="矩形" fill="#D8D8D8" opacity="0" x="0" y="0" width="16" height="16"></rect>
            <path d="M7.68882537,1.24161178 C7.97035286,1.10084803 8.30172507,1.10084803 8.58325256,1.24161178 L8.58325256,1.24161178 L14.5832526,4.24161178 C15.3203011,4.61013605 15.3203011,5.66194189 14.5832526,6.03046616 L14.5832526,6.03046616 L13.372039,6.63503897 L14.5832526,7.24161178 C15.2815091,7.59074003 15.3182594,8.55311823 14.6935036,8.96679911 L14.5832526,9.03046616 L13.372039,9.63603897 L14.5832526,10.2416118 C15.2815091,10.59074 15.3182594,11.5531182 14.6935036,11.9667991 L14.5832526,12.0304662 L8.58325256,15.0304662 C8.34194329,15.1511208 8.0640134,15.1683572 7.81224109,15.0821753 L7.68882537,15.0304662 L1.68882537,12.0304662 C0.990568863,11.6813379 0.95381852,10.7189597 1.57857435,10.3052788 L1.68882537,10.2416118 L2.90003897,9.63603897 L1.68882537,9.03046616 C0.990568863,8.6813379 0.95381852,7.71895971 1.57857435,7.30527882 L1.68882537,7.24161178 L2.89903897,6.63603897 L1.68882537,6.03046616 C0.990568863,5.6813379 0.95381852,4.71895971 1.57857435,4.30527882 L1.68882537,4.24161178 Z M12.254039,10.194039 L8.58325256,12.0304662 C8.34194329,12.1511208 8.0640134,12.1683572 7.81224109,12.0821753 L7.68882537,12.0304662 L4.01703897,10.195039 L2.13603897,11.136039 L8.13603897,14.136039 L14.136039,11.136039 L12.254039,10.194039 Z M12.255039,7.19403897 L8.58325256,9.03046616 C8.30172507,9.17122991 7.97035286,9.17122991 7.68882537,9.03046616 L7.68882537,9.03046616 L4.01603897,7.19403897 L2.13603897,8.13603897 L8.13603897,11.136039 L14.136039,8.13603897 L12.255039,7.19403897 Z" id="形状结合" fill-opacity="0.7" fill="#000000" fill-rule="nonzero" transform="translate(8.136039, 8.136039) scale(-1, -1) translate(-8.136039, -8.136039) "></path>
        </g>
    </g>
</svg>