<?xml version="1.0" encoding="UTF-8"?>
<svg width="90px" height="30px" viewBox="0 0 90 30" version="1.1" xmlns="http://www.w3.org/2000/svg" xmlns:xlink="http://www.w3.org/1999/xlink">
    <title>书法笔</title>
    <g id="画板V23一期" stroke="none" stroke-width="1" fill="none" fill-rule="evenodd">
        <g id="12-画板-icon切图" transform="translate(-735.000000, -540.000000)">
            <g id="书法笔" transform="translate(735.000000, 540.000000)">
                <rect id="矩形" fill-opacity="0.1" fill="#FFFFFF" opacity="0" x="0" y="0" width="90" height="30"></rect>
                <path d="M5.18647044,15.3647424 C17.4220815,8.58139216 30.21793,7.2153217 43.412176,11.2897371 L52.9933829,14.2340795 L54.7612742,14.7601527 L56.169658,15.1624116 L57.033696,15.394438 L57.8786358,15.6016425 L58.4980926,15.7341146 L59.0531643,15.8335029 L59.2241874,15.8599438 C59.3937875,15.8851681 59.5596387,15.9068807 59.7264209,15.9263229 L60.2342404,15.9790798 L61.7124992,16.1002527 L62.2234262,16.1366303 L62.7364047,16.1625687 C62.8221448,16.1660063 62.9080249,16.1689973 62.9940723,16.1715358 L63.5125823,16.1812911 L64.0364162,16.179908 L64.5668828,16.1671067 C64.7449559,16.1609055 64.9243526,16.1527547 65.1052911,16.1426076 L65.65295,16.106131 L66.2111686,16.0573971 L66.7812557,15.9961263 L67.3645202,15.9220388 C67.4629018,15.9086073 67.561887,15.8946301 67.6615031,15.8801014 L68.2669881,15.7862645 C68.3692367,15.7695064 68.4721708,15.7521852 68.5758175,15.734295 L69.2064681,15.6200793 L69.855532,15.491928 C69.9653164,15.4693926 70.0759226,15.446265 70.1873779,15.4225392 L70.8665158,15.2729602 L71.5673394,15.1087465 C71.6860231,15.0801424 71.805665,15.0509169 71.9262923,15.0210642 L72.6620984,14.8343738 L73.4228625,14.6323494 L74.2098935,14.4147112 L75.0245003,14.1811796 L75.8679918,13.9314748 L76.7416771,13.6653171 L77.6468649,13.3824268 L79.0665775,12.9261059 L80.0562485,12.6001603 L81.6088215,12.0779454 L82.6911566,11.7071965 L86.1732494,10.4943223 L83.8047205,13.9314748 L80.848229,14.9625824 L79.1198428,15.5561299 L77.4776249,16.1074097 L76.4283619,16.4518795 L74.9193073,16.9346573 L73.48388,17.3775007 L72.5655103,17.6509759 L71.6763803,17.9073506 L70.8150965,18.1468841 C70.6737924,18.1854173 70.5335904,18.2232596 70.3944616,18.2604164 L69.5723346,18.4751741 C69.4373823,18.5096104 69.3034452,18.543372 69.1704942,18.5764643 L68.3843887,18.7670296 L67.6205557,18.9417906 L66.8776018,19.1010067 C66.7554387,19.1262617 66.6340874,19.1508798 66.5135191,19.1748664 L65.7992711,19.3112512 C65.5641651,19.3542156 65.3319584,19.3946972 65.1024187,19.4327392 L64.4215683,19.5395896 C64.3093494,19.5561926 64.1977391,19.5721965 64.0867085,19.5876067 L63.4272485,19.6729869 C63.3184204,19.686044 63.210114,19.6985181 63.1023001,19.7104148 L62.4610953,19.7749081 L61.8303188,19.8258009 C61.4129676,19.8552535 61.0016397,19.875812 60.5944771,19.8878219 L59.986625,19.8994687 C59.6840287,19.9021296 59.3832528,19.9000792 59.0835137,19.8934634 L58.4851853,19.8741875 C58.1864799,19.8615492 57.8882887,19.8444426 57.5898278,19.8230136 L55.7556531,19.6767581 L55.2336089,19.6277488 L54.9551728,19.5974628 C54.7400669,19.5726721 54.5272528,19.5447102 54.3089985,19.5115503 L53.725031,19.4124496 L53.1953304,19.3057533 L52.6097266,19.1725145 L51.6623334,18.9325733 L50.6987794,18.6686501 L49.1411067,18.2185783 L46.6536323,17.4715403 L41.9369026,16.067139 C30.2434992,12.4561874 18.4114399,11.2266126 7.53190842,17.0937448 L6.98820608,17.3910599 L5.79872686,17.9073506 L3,16.5769086 L5.18647044,15.3647424 Z" id="路径-8" fill-opacity="0.7" fill="#000000" fill-rule="nonzero"></path>
            </g>
        </g>
    </g>
</svg>