<?xml version="1.0" encoding="UTF-8"?>
<svg width="16px" height="16px" viewBox="0 0 16 16" version="1.1" xmlns="http://www.w3.org/2000/svg" xmlns:xlink="http://www.w3.org/1999/xlink">
    <title>icon/array/alignment/middle2</title>
    <g id="画板V23一期" stroke="none" stroke-width="1" fill="none" fill-rule="evenodd">
        <g id="12-画板-icon切图" transform="translate(-437.000000, -298.000000)">
            <g id="icon/array/alignment/middle2" transform="translate(437.000000, 298.000000)">
                <rect id="矩形" fill="#D8D8D8" opacity="0" x="0" y="0" width="16" height="16"></rect>
                <path d="M8.5,1 C8.77614237,1 9,1.22385763 9,1.5 L9,2.999 L11,3 C11.5522847,3 12,3.44771525 12,4 L12,6 C12,6.55228475 11.5522847,7 11,7 L9,7 L9,8 L13,8 C13.5522847,8 14,8.44771525 14,9 L14,12 C14,12.5522847 13.5522847,13 13,13 L9,13 L9,14.5 C9,14.7761424 8.77614237,15 8.5,15 C8.22385763,15 8,14.7761424 8,14.5 L8,13 L4,13 C3.44771525,13 3,12.5522847 3,12 L3,9 C3,8.44771525 3.44771525,8 4,8 L8,8 L8,7 L6,7 C5.44771525,7 5,6.55228475 5,6 L5,4 C5,3.44771525 5.44771525,3 6,3 L8,3 L8,1.5 C8,1.22385763 8.22385763,1 8.5,1 Z" id="形状结合" fill-opacity="0.7" fill="#000000" fill-rule="nonzero" transform="translate(8.500000, 8.000000) scale(1, -1) translate(-8.500000, -8.000000) "></path>
            </g>
        </g>
    </g>
</svg>