<?xml version="1.0" encoding="UTF-8"?>
<svg width="16px" height="16px" viewBox="0 0 16 16" version="1.1" xmlns="http://www.w3.org/2000/svg" xmlns:xlink="http://www.w3.org/1999/xlink">
    <title>icon-array-flip-up and down</title>
    <g id="控件" stroke="none" stroke-width="1" fill="none" fill-rule="evenodd">
        <g id="icon-array-flip-up-and-down">
            <rect id="矩形" fill="#D8D8D8" opacity="0" x="0" y="0" width="16" height="16"></rect>
            <path d="M9.37888544,2.75777088 L14.6381966,13.2763932 C14.7616912,13.5233825 14.6615791,13.823719 14.4145898,13.9472136 C14.3451621,13.9819275 14.2686056,14 14.190983,14 L9.5,14 C9.22385763,14 9,13.7761424 9,13.5 L9,2.8472136 C9,2.73675665 9.08954305,2.6472136 9.2,2.6472136 C9.27575441,2.6472136 9.34500704,2.69001407 9.37888544,2.75777088 Z M7.62111456,2.75777088 L2.3618034,13.2763932 C2.23830877,13.5233825 2.33842095,13.823719 2.5854102,13.9472136 C2.65483791,13.9819275 2.73139445,14 2.80901699,14 L7.5,14 C7.77614237,14 8,13.7761424 8,13.5 L8,2.8472136 C8,2.73675665 7.91045695,2.6472136 7.8,2.6472136 C7.72424559,2.6472136 7.65499296,2.69001407 7.62111456,2.75777088 Z" id="形状结合" fill-opacity="0.7" fill="#000000" fill-rule="nonzero"></path>
        </g>
    </g>
</svg>