<?xml version="1.0" encoding="UTF-8"?>
<svg width="16px" height="16px" viewBox="0 0 16 16" version="1.1" xmlns="http://www.w3.org/2000/svg" xmlns:xlink="http://www.w3.org/1999/xlink">
    <title>icon/array/alignment/middle</title>
    <g id="画板V23一期" stroke="none" stroke-width="1" fill="none" fill-rule="evenodd">
        <g id="12-画板-icon切图" transform="translate(-340.000000, -298.000000)">
            <g id="icon/array/alignment/middle" transform="translate(340.000000, 298.000000)">
                <rect id="矩形" fill="#D8D8D8" opacity="0" x="0" y="0" width="16" height="16"></rect>
                <path d="M1.00159323,7.5 C1.00159323,7.77614237 1.22545085,8 1.50159323,8 L2.999,8 L3,10 C3,10.5522847 3.44771525,11 4,11 L6,11 C6.55228475,11 7,10.5522847 7,10 L7,8 L8.00696413,8 L8.00696413,12 C8.00696413,12.5522847 8.45467938,13 9.00696413,13 L12.0069641,13 C12.5592489,13 13.0069641,12.5522847 13.0069641,12 L13.0069641,8 L14.5,8 C14.7761424,8 15,7.77614237 15,7.5 C15,7.22385763 14.7761424,7 14.5,7 L13.0069641,7 L13.0069641,3 C13.0069641,2.44771525 12.5592489,2 12.0069641,2 L9.00696413,2 C8.45467938,2 8.00696413,2.44771525 8.00696413,3 L8.00696413,7 L7,7 L7,5 C7,4.44771525 6.55228475,4 6,4 L4,4 C3.44771525,4 3,4.44771525 3,5 L3,7 L1.50159323,7 C1.22545085,7 1.00159323,7.22385763 1.00159323,7.5 Z" id="路径" fill-opacity="0.7" fill="#000000" fill-rule="nonzero"></path>
            </g>
        </g>
    </g>
</svg>