<?xml version="1.0" encoding="UTF-8"?>
<svg width="24px" height="24px" viewBox="0 0 24 24" version="1.1" xmlns="http://www.w3.org/2000/svg" xmlns:xlink="http://www.w3.org/1999/xlink">
    <title>icon/fillet/part</title>
    <g id="icon/fillet/part" stroke="none" stroke-width="1" fill="none" fill-rule="evenodd">
        <rect id="矩形" fill-opacity="0.1" fill="#FFFFFF" opacity="0" x="0" y="0" width="24" height="24" rx="6"></rect>
        <path d="M6,14 L6,16 C6,17.0543618 6.81587779,17.9181651 7.85073766,17.9945143 L8,18 L10,18 L10,19 L8,19 C6.34314575,19 5,17.6568542 5,16 L5,14 L6,14 Z M19,14 L19,16 C19,17.6568542 17.6568542,19 16,19 L14,19 L14,18 L16,18 C17.0543618,18 17.9181651,17.1841222 17.9945143,16.1492623 L18,16 L18,14 L19,14 Z M10,5 L10,6 L8,6 C6.9456382,6 6.08183488,6.81587779 6.00548574,7.85073766 L6,8 L6,10 L5,10 L5,8 C5,6.34314575 6.34314575,5 8,5 L10,5 Z M16,5 C17.6568542,5 19,6.34314575 19,8 L19,9.999 L18,9.999 L18,8 C18,6.8954305 17.1045695,6 16,6 L14,6 L14,5 L16,5 Z" id="形状结合" fill-opacity="0.7" fill="#000000" fill-rule="nonzero"></path>
    </g>
</svg>