<?xml version="1.0" encoding="UTF-8"?>
<svg width="16px" height="16px" viewBox="0 0 16 16" version="1.1" xmlns="http://www.w3.org/2000/svg" xmlns:xlink="http://www.w3.org/1999/xlink">
    <title>编组</title>
    <g id="控件" stroke="none" stroke-width="1" fill="none" fill-rule="evenodd">
        <g id="编组">
            <rect id="矩形" fill="#D8D8D8" opacity="0" x="0" y="0" width="16" height="16"></rect>
            <path d="M3,2 L6,2 C6.55228475,2 7,2.44771525 7,3 L7,6 C7,6.55228475 6.55228475,7 6,7 L3,7 C2.44771525,7 2,6.55228475 2,6 L2,3 C2,2.44771525 2.44771525,2 3,2 Z M3,9 L6,9 C6.55228475,9 7,9.44771525 7,10 L7,13 C7,13.5522847 6.55228475,14 6,14 L3,14 C2.44771525,14 2,13.5522847 2,13 L2,10 C2,9.44771525 2.44771525,9 3,9 Z M10,2 L13,2 C13.5522847,2 14,2.44771525 14,3 L14,6 C14,6.55228475 13.5522847,7 13,7 L10,7 C9.44771525,7 9,6.55228475 9,6 L9,3 C9,2.44771525 9.44771525,2 10,2 Z M10,9 L13,9 C13.5522847,9 14,9.44771525 14,10 L14,13 C14,13.5522847 13.5522847,14 13,14 L10,14 C9.44771525,14 9,13.5522847 9,13 L9,10 C9,9.44771525 9.44771525,9 10,9 Z" id="形状结合" fill-opacity="0.7" fill="#000000" fill-rule="nonzero"></path>
        </g>
    </g>
</svg>