<?xml version="1.0" encoding="UTF-8"?>
<svg width="16px" height="16px" viewBox="0 0 16 16" version="1.1" xmlns="http://www.w3.org/2000/svg" xmlns:xlink="http://www.w3.org/1999/xlink">
    <title>编组</title>
    <g id="控件" stroke="none" stroke-width="1" fill="none" fill-rule="evenodd">
        <g id="编组">
            <rect id="矩形" fill="#D8D8D8" opacity="0" x="0" y="0" width="16" height="16"></rect>
            <path d="M7.68882537,2.24161178 C7.97035286,2.10084803 8.30172507,2.10084803 8.58325256,2.24161178 L8.58325256,2.24161178 L14.5832526,5.24161178 C15.3203011,5.61013605 15.3203011,6.66194189 14.5832526,7.03046616 L14.5832526,7.03046616 L11.372039,8.63603897 L14.5832526,10.2416118 C15.2815091,10.59074 15.3182594,11.5531182 14.6935036,11.9667991 L14.5832526,12.0304662 L8.58325256,15.0304662 C8.30172507,15.1712299 7.97035286,15.1712299 7.68882537,15.0304662 L7.68882537,15.0304662 L1.68882537,12.0304662 C0.951776834,11.6619419 0.951776834,10.610136 1.68882537,10.2416118 L1.68882537,10.2416118 L4.89903897,8.63603897 L1.68882537,7.03046616 C0.990568863,6.6813379 0.95381852,5.71895971 1.57857435,5.30527882 L1.68882537,5.24161178 Z M10.254039,9.19503897 L8.58325256,10.0304662 C8.30172507,10.1712299 7.97035286,10.1712299 7.68882537,10.0304662 L7.68882537,10.0304662 L6.01803897,9.19503897 L2.13603897,11.136039 L8.13603897,14.136039 L14.136039,11.136039 L10.254039,9.19503897 Z" id="形状结合" fill-opacity="0.7" fill="#000000" fill-rule="nonzero"></path>
        </g>
    </g>
</svg>