<?xml version="1.0" encoding="UTF-8"?>
<svg width="16px" height="16px" viewBox="0 0 16 16" version="1.1" xmlns="http://www.w3.org/2000/svg" xmlns:xlink="http://www.w3.org/1999/xlink">
    <title>编组</title>
    <g id="控件" stroke="none" stroke-width="1" fill="none" fill-rule="evenodd">
        <g id="编组">
            <rect id="矩形" fill="#D8D8D8" opacity="0" x="0" y="0" width="16" height="16"></rect>
            <path d="M4,3 L4,14 C4,14.2761424 3.77614237,14.5 3.5,14.5 C3.22385763,14.5 3,14.2761424 3,14 L3,3 C3,2.72385763 3.22385763,2.5 3.5,2.5 C3.77614237,2.5 4,2.72385763 4,3 Z M14,3 L14,14 C14,14.2761424 13.7761424,14.5 13.5,14.5 C13.2238576,14.5 13,14.2761424 13,14 L13,3 C13,2.72385763 13.2238576,2.5 13.5,2.5 C13.7761424,2.5 14,2.72385763 14,3 Z M7,4 L10,4 C10.5522847,4 11,4.44771525 11,5 L11,12 C11,12.5522847 10.5522847,13 10,13 L7,13 C6.44771525,13 6,12.5522847 6,12 L6,5 C6,4.44771525 6.44771525,4 7,4 Z" id="形状结合" fill-opacity="0.7" fill="#000000" fill-rule="nonzero"></path>
        </g>
    </g>
</svg>