<?xml version="1.0" encoding="UTF-8"?>
<svg width="90px" height="30px" viewBox="0 0 90 30" version="1.1" xmlns="http://www.w3.org/2000/svg" xmlns:xlink="http://www.w3.org/1999/xlink">
    <title>水彩笔</title>
    <g id="画板V23一期" stroke="none" stroke-width="1" fill="none" fill-rule="evenodd">
        <g id="12-画板-icon切图" transform="translate(-735.000000, -501.000000)">
            <g id="水彩笔" transform="translate(735.000000, 501.000000)">
                <rect id="矩形" fill-opacity="0.1" fill="#FFFFFF" opacity="0" x="0" y="0" width="90" height="30"></rect>
                <path d="M5.00051886,15.0120768 C17.1960497,7.97271775 31.2048165,7.12579588 46.8833779,12.4143919 L47.528642,12.6351853 C62.3967085,17.7947407 74.4276154,17.1809207 83.7871483,10.9220307 C84.7053353,10.3080223 85.9474251,10.5546078 86.5614335,11.4727949 C87.1754419,12.390982 86.9288564,13.6330718 86.0106694,14.2470802 C75.6381497,21.1833729 62.5274332,21.9354939 46.83793,16.6268144 L46.2172684,16.4141136 C31.3242135,11.2458867 18.3016463,11.9530762 7.00014944,18.4763917 C6.0435053,19.0285744 4.82035945,18.7006937 4.26817671,17.7440495 C3.71599398,16.7874054 4.04387472,15.5642596 5.00051886,15.0120768 Z" id="路径-2" fill-opacity="0.7" fill="#000000" fill-rule="nonzero"></path>
            </g>
        </g>
    </g>
</svg>