<?xml version="1.0" encoding="UTF-8"?>
<svg width="48px" height="48px" viewBox="0 0 48 48" version="1.1" xmlns="http://www.w3.org/2000/svg" xmlns:xlink="http://www.w3.org/1999/xlink">
    <!-- Generator: Sketch 58 (84663) - https://sketch.com -->
    <title>screenshot too_hover</title>
    <desc>Created with Sketch.</desc>
    <g id="画板" stroke="none" stroke-width="1" fill="none" fill-rule="evenodd">
        <g id="btn状态备份" transform="translate(-488.000000, -1062.000000)">
            <g id="编组" transform="translate(483.000000, 441.000000)">
                <g id="侧边工具栏-" transform="translate(5.000000, 141.000000)">
                    <g id="编组-3">
                        <g id="screenshot-too_hover" transform="translate(0.000000, 480.000000)">
                            <rect id="Rectangle-11-Copy-8" fill="#D8D8D8" opacity="0" x="0" y="0" width="48" height="48"></rect>
                            <rect id="矩形" fill-opacity="0.05" fill="#000000" x="6" y="6" width="36" height="36" rx="8"></rect>
                            <g id="Group" transform="translate(16.000000, 16.000000)" fill="#001A2E">
                                <path d="M4,0 L4,3 L13,3 L13,12 L16,12 L16,13 L13,13 L13,16 L12,16 L12,13 L3,13 L3,4 L0,4 L0,3 L3,3 L3,0 L4,0 Z M4,4 L4,12 L12,12 L12,4 L4,4 Z" id="形状结合"></path>
                            </g>
                        </g>
                    </g>
                </g>
            </g>
        </g>
    </g>
</svg>