<?xml version="1.0" encoding="UTF-8"?>
<svg width="48px" height="48px" viewBox="0 0 48 48" version="1.1" xmlns="http://www.w3.org/2000/svg" xmlns:xlink="http://www.w3.org/1999/xlink">
    <!-- Generator: Sketch 56.2 (81672) - https://sketch.com -->
    <title>screenshot tool_active</title>
    <desc>Created with Sketch.</desc>
    <defs>
        <path d="M19,21 L16,21 L16,19 L19,19 L19,16 L21,16 L21,19 L27,19 L29,19 L29,27 L32,27 L32,29 L29,29 L29,32 L27,32 L27,29 L21,29 L19,29 L19,21 Z M21,21 L21,27 L27,27 L27,21 L21,21 Z" id="path-1"></path>
        <filter x="-68.8%" y="-43.8%" width="237.5%" height="237.5%" filterUnits="objectBoundingBox" id="filter-2">
            <feOffset dx="0" dy="4" in="SourceAlpha" result="shadowOffsetOuter1"></feOffset>
            <feGaussianBlur stdDeviation="3" in="shadowOffsetOuter1" result="shadowBlurOuter1"></feGaussianBlur>
            <feColorMatrix values="0 0 0 0 0.17254902   0 0 0 0 0.654901961   0 0 0 0 0.97254902  0 0 0 0.4 0" type="matrix" in="shadowBlurOuter1"></feColorMatrix>
        </filter>
    </defs>
    <g id="页面-1" stroke="none" stroke-width="1" fill="none" fill-rule="evenodd">
        <g id="画板" transform="translate(-1520.000000, -962.000000)">
            <g id="编组-2" transform="translate(1515.000000, 341.000000)">
                <g id="侧边工具栏-" transform="translate(5.000000, 141.000000)">
                    <g id="编组-3">
                        <g id="screenshot-tool_active" transform="translate(0.000000, 480.000000)">
                            <rect id="Rectangle-11-Copy-8" fill="#D8D8D8" opacity="0" x="0" y="0" width="48" height="48"></rect>
                            <g id="形状结合">
                                <use fill="black" fill-opacity="1" filter="url(#filter-2)" xlink:href="#path-1"></use>
                                <use fill="#0081FF" fill-rule="evenodd" xlink:href="#path-1"></use>
                            </g>
                        </g>
                    </g>
                </g>
            </g>
        </g>
    </g>
</svg>