<?xml version="1.0" encoding="UTF-8"?>
<svg width="30px" height="30px" viewBox="0 0 30 30" version="1.1" xmlns="http://www.w3.org/2000/svg" xmlns:xlink="http://www.w3.org/1999/xlink">
    <title>icon/裁剪比例/正方形</title>
    <g id="icon/裁剪比例/正方形" stroke="none" stroke-width="1" fill="none" fill-rule="evenodd">
        <rect id="矩形" fill-opacity="0" fill="#FFFFFF" x="0" y="0" width="30" height="30" rx="8"></rect>
        <path d="M25.6666667,1 L4.33333333,1 C2.49238417,1 1,2.49238417 1,4.33333333 L1,25.6666667 C1,27.5076158 2.49238417,29 4.33333333,29 L25.6666667,29 C27.5076158,29 29,27.5076158 29,25.6666667 L29,4.33333333 C29,2.49238417 27.5076158,1 25.6666667,1 Z M4.05263158,2 L25.9473684,2 C27.0810055,2 28,2.91899446 28,4.05263158 L28,25.9473684 C28,27.0810055 27.0810055,28 25.9473684,28 L4.05263158,28 C2.91899446,28 2,27.0810055 2,25.9473684 L2,4.05263158 C2,2.91899446 2.91899446,2 4.05263158,2 Z" id="矩形" fill-opacity="0.7" fill="#000000" fill-rule="nonzero"></path>
    </g>
</svg>