<?xml version="1.0" encoding="UTF-8"?>
<svg width="30px" height="30px" viewBox="0 0 30 30" version="1.1" xmlns="http://www.w3.org/2000/svg" xmlns:xlink="http://www.w3.org/1999/xlink">
    <title>icon/裁剪比例/16:9</title>
    <g id="icon/裁剪比例/16:9" stroke="none" stroke-width="1" fill="none" fill-rule="evenodd">
        <rect id="矩形" fill-opacity="0" fill="#FFFFFF" x="0" y="0" width="30" height="30" rx="8"></rect>
        <path d="M25.6666667,7 L4.33333333,7 C2.49238417,7 1,8.49238417 1,10.3333333 L1,19.6666667 C1,21.5076158 2.49238417,23 4.33333333,23 L25.6666667,23 C27.5076158,23 29,21.5076158 29,19.6666667 L29,10.3333333 C29,8.49238417 27.5076158,7 25.6666667,7 Z M4.05263158,8 L25.9473684,8 C27.0810055,8 28,8.94020203 28,10.1 L28,19.9 C28,21.059798 27.0810055,22 25.9473684,22 L4.05263158,22 C2.91899446,22 2,21.059798 2,19.9 L2,10.1 C2,8.94020203 2.91899446,8 4.05263158,8 Z" id="矩形" fill-opacity="0.7" fill="#000000" fill-rule="nonzero"></path>
    </g>
</svg>