<?xml version="1.0" encoding="UTF-8"?>
<svg width="30px" height="30px" viewBox="0 0 30 30" version="1.1" xmlns="http://www.w3.org/2000/svg" xmlns:xlink="http://www.w3.org/1999/xlink">
    <title>icon/裁剪比例/2:3</title>
    <g id="icon/裁剪比例/2:3" stroke="none" stroke-width="1" fill="none" fill-rule="evenodd">
        <rect id="矩形" fill-opacity="0" fill="#FFFFFF" x="0" y="0" width="30" height="30" rx="8"></rect>
        <path d="M24.5,26.5603217 L24.5,3.43967828 C24.5,2.09228117 23.3807119,1 22,1 L8,1 C6.61928813,1 5.5,2.09228117 5.5,3.43967828 L5.5,26.5603217 C5.5,27.9077188 6.61928813,29 8,29 L22,29 C23.3807119,29 24.5,27.9077188 24.5,26.5603217 Z M23.5,3.43967828 L23.5,26.5603217 C23.5,27.36876 22.8284271,28.0241287 22,28.0241287 L8,28.0241287 C7.17157288,28.0241287 6.5,27.36876 6.5,26.5603217 L6.5,3.43967828 C6.5,2.63124002 7.17157288,1.97587131 8,1.97587131 L22,1.97587131 C22.8284271,1.97587131 23.5,2.63124002 23.5,3.43967828 Z" id="矩形" fill-opacity="0.7" fill="#000000" fill-rule="nonzero"></path>
    </g>
</svg>