<?xml version="1.0" encoding="UTF-8"?>
<svg width="30px" height="30px" viewBox="0 0 30 30" version="1.1" xmlns="http://www.w3.org/2000/svg" xmlns:xlink="http://www.w3.org/1999/xlink">
    <title>icon/裁剪比例/8:5</title>
    <g id="icon/裁剪比例/8:5" stroke="none" stroke-width="1" fill="none" fill-rule="evenodd">
        <rect id="矩形" fill-opacity="0" fill="#FFFFFF" x="0" y="0" width="30" height="30" rx="8"></rect>
        <path d="M25.6666667,6 L4.33333333,6 C2.49238417,6 1,7.25919914 1,8.8125 L1,21.1875 C1,22.7408009 2.49238417,24 4.33333333,24 L25.6666667,24 C27.5076158,24 29,22.7408009 29,21.1875 L29,8.8125 C29,7.25919914 27.5076158,6 25.6666667,6 Z M4.05263158,7 L25.9473684,7 C27.0810055,7 28,7.76751186 28,8.71428571 L28,21.2857143 C28,22.2324881 27.0810055,23 25.9473684,23 L4.05263158,23 C2.91899446,23 2,22.2324881 2,21.2857143 L2,8.71428571 C2,7.76751186 2.91899446,7 4.05263158,7 Z" id="矩形" fill-opacity="0.7" fill="#000000" fill-rule="nonzero"></path>
    </g>
</svg>