<?xml version="1.0" encoding="UTF-8"?>
<svg width="60px" height="20px" viewBox="0 0 60 20" version="1.1" xmlns="http://www.w3.org/2000/svg" xmlns:xlink="http://www.w3.org/1999/xlink">
    <title>圆2</title>
    <g id="画板V23一期" stroke="none" stroke-width="1" fill="none" fill-rule="evenodd">
        <g id="12-画板-icon切图" transform="translate(-1221.000000, -192.000000)">
            <g id="圆2" transform="translate(1221.000000, 192.000000)">
                <rect id="矩形" stroke="#979797" fill="#D8D8D8" opacity="0" x="0.5" y="0.5" width="59" height="19"></rect>
                <g id="编组" transform="translate(29.500000, 10.202247) scale(-1, 1) translate(-29.500000, -10.202247) translate(10.000000, 4.702247)" fill="#000000" fill-rule="nonzero">
                    <rect id="矩形" x="0" y="5.29775301" width="29" height="1" rx="0.5"></rect>
                    <path d="M33.5,0 C36.5375661,0 39,2.46243388 39,5.5 C39,8.53756612 36.5375661,11 33.5,11 C30.4624339,11 28,8.53756612 28,5.5 C28,2.46243388 30.4624339,0 33.5,0 Z M33.5,1 C31.0147186,1 29,3.01471863 29,5.5 C29,7.98528137 31.0147186,10 33.5,10 C35.9852814,10 38,7.98528137 38,5.5 C38,3.01471863 35.9852814,1 33.5,1 Z" id="椭圆形"></path>
                </g>
            </g>
        </g>
    </g>
</svg>