<?xml version="1.0" encoding="UTF-8"?>
<svg width="16px" height="16px" viewBox="0 0 16 16" version="1.1" xmlns="http://www.w3.org/2000/svg" xmlns:xlink="http://www.w3.org/1999/xlink">
    <title>icon/array/flip/left and right</title>
    <g id="画板V23一期" stroke="none" stroke-width="1" fill="none" fill-rule="evenodd">
        <g id="12-画板-icon切图" transform="translate(-414.000000, -267.000000)">
            <g id="icon/array/flip/left-and-right" transform="translate(414.000000, 267.000000)">
                <rect id="矩形" fill="#D8D8D8" opacity="0" x="0" y="0" width="16" height="16"></rect>
                <path d="M9.06997797,2.11055728 L14.3292891,12.6291796 C14.4527838,12.8761689 14.3526716,13.1765054 14.1056823,13.3 C14.0362546,13.3347139 13.9596981,13.3527864 13.8820755,13.3527864 L9.19109253,13.3527864 C8.91495016,13.3527864 8.69109253,13.1289288 8.69109253,12.8527864 L8.69109253,2.2 C8.69109253,2.08954305 8.78063558,2 8.89109253,2 C8.96684695,2 9.03609957,2.04280048 9.06997797,2.11055728 Z M7.3122071,2.11055728 L2.05289593,12.6291796 C1.92940131,12.8761689 2.02951348,13.1765054 2.27650273,13.3 C2.34593045,13.3347139 2.42248698,13.3527864 2.50010953,13.3527864 L7.19109253,13.3527864 C7.46723491,13.3527864 7.69109253,13.1289288 7.69109253,12.8527864 L7.69109253,2.2 C7.69109253,2.08954305 7.60154948,2 7.49109253,2 C7.41533812,2 7.3460855,2.04280048 7.3122071,2.11055728 Z" id="形状结合" fill-opacity="0.7" fill="#000000" fill-rule="nonzero"></path>
            </g>
        </g>
    </g>
</svg>