<?xml version="1.0" encoding="UTF-8"?>
<svg width="60px" height="20px" viewBox="0 0 60 20" version="1.1" xmlns="http://www.w3.org/2000/svg" xmlns:xlink="http://www.w3.org/1999/xlink">
    <title>箭头</title>
    <g id="画板V23一期" stroke="none" stroke-width="1" fill="none" fill-rule="evenodd">
        <g id="12-画板-icon切图" transform="translate(-1336.000000, -157.000000)">
            <g id="箭头" transform="translate(1366.000000, 167.000000) scale(-1, 1) translate(-1366.000000, -167.000000) translate(1336.000000, 157.000000)">
                <rect id="矩形" stroke="#979797" fill="#D8D8D8" opacity="0" x="0.5" y="0.5" width="59" height="19"></rect>
                <g id="编组-15" transform="translate(10.499959, 2.999959)" fill="#000000" fill-rule="nonzero">
                    <g id="编组" transform="translate(19.500041, 6.500041) scale(-1, 1) translate(-19.500041, -6.500041) translate(0.500041, 6.000041)">
                        <rect id="矩形" x="0" y="0" width="38" height="1" rx="0.5"></rect>
                    </g>
                    <path d="M8.71169962,0.0915572917 C8.93729907,-0.0676893761 9.24927849,-0.0138998215 9.40852515,0.211699624 C9.55007775,0.412232465 9.52330543,0.681016147 9.35716276,0.850114165 L9.28838282,0.908525155 L0.788382822,6.90852515 C0.562783376,7.06777182 0.250803959,7.01398227 0.0915572917,6.78838282 C-0.0499953019,6.58784998 -0.023222979,6.3190663 0.14291969,6.14996828 L0.211699624,6.09155729 L8.71169962,0.0915572917 Z" id="路径-7"></path>
                    <path d="M8.71169962,6.09155729 C8.93729907,5.93231062 9.24927849,5.98610018 9.40852515,6.21169962 C9.55007775,6.41223247 9.52330543,6.68101615 9.35716276,6.85011416 L9.28838282,6.90852515 L0.788382822,12.9085252 C0.562783376,13.0677718 0.250803959,13.0139823 0.0915572917,12.7883828 C-0.0499953019,12.58785 -0.023222979,12.3190663 0.14291969,12.1499683 L0.211699624,12.0915573 L8.71169962,6.09155729 Z" id="路径-7" transform="translate(4.750041, 9.500041) scale(1, -1) translate(-4.750041, -9.500041) "></path>
                </g>
            </g>
        </g>
    </g>
</svg>