<?xml version="1.0" encoding="UTF-8"?>
<svg width="22px" height="22px" viewBox="0 0 22 22" version="1.1" xmlns="http://www.w3.org/2000/svg" xmlns:xlink="http://www.w3.org/1999/xlink">
    <title>形状结合</title>
    <g id="控件" stroke="none" stroke-width="1" fill="none" fill-rule="evenodd" fill-opacity="0.7">
        <g id="编组-5" transform="translate(-102.000000, -35.000000)" fill="#000000" fill-rule="nonzero">
            <g id="DTK-/-Entry-/-OptionEntry-Light" transform="translate(26.000000, 0.000000)">
                <g id="DTK-/-Button-/-Light-/-Down" transform="translate(63.000000, 0.000000)">
                    <path d="M24,35 C30.0751322,35 35,39.9248678 35,46 C35,52.0751322 30.0751322,57 24,57 C17.9248678,57 13,52.0751322 13,46 C13,39.9248678 17.9248678,35 24,35 Z M27.027903,43.799944 L26.9420747,43.8716521 L24,46.8146479 L21.0579253,43.8716521 C20.8428008,43.6565276 20.5088664,43.6326249 20.2673397,43.799944 L20.1815113,43.8716521 C19.9663868,44.0867766 19.9424841,44.4207111 20.1098031,44.6622378 L20.1815113,44.7480662 L23.561793,48.1283479 C23.7769175,48.3434724 24.1108519,48.3673751 24.3523787,48.200056 L24.438207,48.1283479 L27.8184887,44.7480662 C28.0605038,44.5060511 28.0605038,44.1136672 27.8184887,43.8716521 C27.6033642,43.6565276 27.2694297,43.6326249 27.027903,43.799944 Z" id="形状结合"></path>
                </g>
            </g>
        </g>
    </g>
</svg>