<?xml version="1.0" encoding="UTF-8"?>
<svg width="30px" height="30px" viewBox="0 0 30 30" version="1.1" xmlns="http://www.w3.org/2000/svg" xmlns:xlink="http://www.w3.org/1999/xlink">
    <title>icon/裁剪比例/自由</title>
    <g id="icon/裁剪比例/自由" stroke="none" stroke-width="1" fill="none" fill-rule="evenodd">
        <rect id="矩形" fill-opacity="0" fill="#FFFFFF" x="0" y="0" width="30" height="30" rx="8"></rect>
        <path d="M26.2,1 C27.7463973,1 29,2.2536027 29,3.8 L29,26.2 C29,27.7463973 27.7463973,29 26.2,29 L3.8,29 C2.2536027,29 1,27.7463973 1,26.2 L1,3.8 C1,2.2536027 2.2536027,1 3.8,1 L26.2,1 Z M26.5555556,2 L3.44444444,2 C2.70368157,2 2.09315632,2.55761361 2.00971783,3.27599171 L2,3.44444444 L2,26.5555556 C2,27.2963184 2.55761361,27.9068437 3.27599171,27.9902822 L3.44444444,28 L26.5555556,28 C27.2963184,28 27.9068437,27.4423864 27.9902822,26.7240083 L28,26.5555556 L28,3.44444444 C28,2.70368157 27.4423864,2.09315632 26.7240083,2.00971783 L26.5555556,2 Z" id="矩形" fill="#979797" fill-rule="nonzero" opacity="0.200000003"></path>
        <path d="M1,24.6 L2,24.6 L2,26.5555556 C2,27.2963184 2.55761361,27.9068437 3.27599171,27.9902822 L3.44444444,28 L6.099,28 L6.099,29 L3.8,29 C2.2536027,29 1,27.7463973 1,26.2 L1,24.6 Z M13.099,28 L13.099,29 L10.299,29 L10.299,28 L13.099,28 Z M20.099,28 L20.099,29 L17.299,29 L17.299,28 L20.099,28 Z M29,24.6 L29,26.2 C29,27.7463973 27.7463973,29 26.2,29 L24.299,29 L24.299,28 L26.5555556,28 C27.2963184,28 27.9068437,27.4423864 27.9902822,26.7240083 L28,26.5555556 L28,24.6 L29,24.6 Z M29,20.4 L28,20.4 L28,17.6 L29,17.6 L29,20.4 Z M1,17.6 L2,17.6 L2,20.4 L1,20.4 L1,17.6 Z M29,13.4 L28,13.4 L28,10.6 L29,10.6 L29,13.4 Z M1,10.6 L2,10.6 L2,13.4 L1,13.4 L1,10.6 Z M29,3.8 L29,6.4 L28,6.4 L28,3.44444444 C28,2.70368157 27.4423864,2.09315632 26.7240083,2.00971783 L26.5555556,2 L24.299,2 L24.299,1 L26.2,1 C27.7463973,1 29,2.2536027 29,3.8 Z M6.099,1 L6.099,2 L3.44444444,2 C2.70368157,2 2.09315632,2.55761361 2.00971783,3.27599171 L2,3.44444444 L2,6.4 L1,6.4 L1,3.8 C1,2.2536027 2.2536027,1 3.8,1 L6.099,1 Z M13.099,1 L13.099,2 L10.299,2 L10.299,1 L13.099,1 Z M20.099,1 L20.099,2 L17.299,2 L17.299,1 L20.099,1 Z" id="形状结合" fill-opacity="0.7" fill="#000000" fill-rule="nonzero"></path>
        <path d="M15,11 C12.790861,11 11,12.790861 11,15 C11,17.209139 12.790861,19 15,19 C17.209139,19 19,17.209139 19,15 C19,12.790861 17.209139,11 15,11 Z M15,12 C16.6568542,12 18,13.3431458 18,15 C18,16.6568542 16.6568542,18 15,18 C13.3431458,18 12,16.6568542 12,15 C12,13.3431458 13.3431458,12 15,12 Z" id="椭圆形" fill-opacity="0.7" fill="#000000" fill-rule="nonzero"></path>
    </g>
</svg>