<?xml version="1.0" encoding="UTF-8"?>
<svg width="30px" height="30px" viewBox="0 0 30 30" version="1.1" xmlns="http://www.w3.org/2000/svg" xmlns:xlink="http://www.w3.org/1999/xlink">
    <title>icon/裁剪比例/原图</title>
    <g id="icon/裁剪比例/原图" stroke="none" stroke-width="1" fill="none" fill-rule="evenodd">
        <rect id="矩形" fill-opacity="0" fill="#FFFFFF" x="0" y="0" width="30" height="30" rx="8"></rect>
        <g id="编组-7" transform="translate(1.000000, 1.000000)" fill="#000000" fill-opacity="0.7" fill-rule="nonzero">
            <path d="M24.6666667,0 L3.33333333,0 C1.49238417,0 0,1.49238417 0,3.33333333 L0,24.6666667 C0,26.5076158 1.49238417,28 3.33333333,28 L24.6666667,28 C26.5076158,28 28,26.5076158 28,24.6666667 L28,3.33333333 C28,1.49238417 26.5076158,0 24.6666667,0 Z M3.05263158,1 L24.9473684,1 C26.0810055,1 27,1.91899446 27,3.05263158 L27,24.9473684 C27,26.0810055 26.0810055,27 24.9473684,27 L3.05263158,27 C1.91899446,27 1,26.0810055 1,24.9473684 L1,3.05263158 C1,1.91899446 1.91899446,1 3.05263158,1 Z" id="矩形"></path>
            <path d="M14.5,9 C11.4624339,9 9,11.4624339 9,14.5 C9,17.5375661 11.4624339,20 14.5,20 C17.5375661,20 20,17.5375661 20,14.5 C20,11.4624339 17.5375661,9 14.5,9 Z M14.5,10 C16.9852814,10 19,12.0147186 19,14.5 C19,16.9852814 16.9852814,19 14.5,19 C12.0147186,19 10,16.9852814 10,14.5 C10,12.0147186 12.0147186,10 14.5,10 Z" id="椭圆形"></path>
        </g>
    </g>
</svg>