<?xml version="1.0" encoding="UTF-8"?>
<svg width="48px" height="48px" viewBox="0 0 48 48" version="1.1" xmlns="http://www.w3.org/2000/svg" xmlns:xlink="http://www.w3.org/1999/xlink">
    <!-- Generator: Sketch 58 (84663) - https://sketch.com -->
    <title>clockwise rotation_hover</title>
    <desc>Created with Sketch.</desc>
    <g id="画板" stroke="none" stroke-width="1" fill="none" fill-rule="evenodd">
        <g id="btn状态备份" transform="translate(-466.000000, -351.000000)">
            <g id="Group-20" transform="translate(406.000000, 351.000000)">
                <g id="Group-16" transform="translate(60.000000, 0.000000)">
                    <g id="clockwise-rotation_hover">
                        <rect id="rect34162" fill-opacity="0.05" fill="#000000" x="4" y="6" width="40" height="36" rx="8"></rect>
                        <g transform="translate(18.000000, 17.000000)" fill="#001A2E" id="path34172">
                            <path d="M6.61053195,0.00996028108 C5.54163195,0.0689602811 4.47913195,0.375560281 3.50903195,0.933860281 C0.922031955,2.42226028 -0.437568045,5.39146028 0.126231955,8.32246028 C0.690031955,11.2532603 3.05443195,13.5074603 6.00903195,13.9299603 C7.71903195,14.1744603 9.41223195,13.7759603 10.798032,12.8810603 C10.9508168,12.7852937 11.0402093,12.6146869 11.0319854,12.4345569 C11.0237615,12.2544268 10.919195,12.0926753 10.7583195,12.011229 C10.5974439,11.9297827 10.4051783,11.9412575 10.255132,12.0412603 C9.06693195,12.8084603 7.61923195,13.1495603 6.15163195,12.9396603 C3.61573195,12.5771603 1.59253195,10.6485603 1.10863195,8.13306028 C0.624731955,5.61746028 1.78663195,3.07666028 4.00703195,1.79906028 C6.13443195,0.575160281 8.76833195,0.788660281 10.684832,2.28736028 L8.96023195,4.00216028 L12.964132,4.01616028 L12.974132,0.0122602811 L11.401832,1.57676028 C10.313532,0.694560281 9.01943195,0.164360281 7.68113195,0.0337602811 C7.32673195,-0.00123971892 6.96913195,-0.00923971892 6.61273195,0.0107602811 L6.61053195,0.00996028108 Z M6.97383195,6.00026028 C6.42307155,6.00455214 5.97946726,6.4533874 5.98163195,7.00416028 C5.98377999,7.55492135 6.43086669,8.00026441 6.98163195,8.00026028 C7.53317554,8.00026122 7.98058397,7.55370287 7.98163195,7.00216028 C7.98268787,6.45143053 7.53825314,6.00350864 6.98753195,6.00026028 L6.97353195,6.00026028 L6.97383195,6.00026028 Z"></path>
                        </g>
                    </g>
                </g>
            </g>
        </g>
    </g>
</svg>