<?xml version="1.0" encoding="UTF-8"?>
<svg width="48px" height="48px" viewBox="0 0 48 48" version="1.1" xmlns="http://www.w3.org/2000/svg" xmlns:xlink="http://www.w3.org/1999/xlink">
    <!-- Generator: Sketch 58 (84663) - https://sketch.com -->
    <title>contrarotate_normal</title>
    <desc>Created with Sketch.</desc>
    <defs>
        <linearGradient x1="50%" y1="0%" x2="50%" y2="95.6533653%" id="linearGradient-1">
            <stop stop-color="#E6E6E6" offset="0%"></stop>
            <stop stop-color="#E3E3E3" offset="100%"></stop>
        </linearGradient>
        <path d="M4,14.0007413 C4,9.58205387 7.58493529,6 11.9984599,6 L36.0015401,6 C40.4189675,6 44,9.58343124 44,14.0007413 L44,33.9992587 C44,38.4179461 40.4150647,42 36.0015401,42 L11.9984599,42 C7.58103249,42 4,38.4165688 4,33.9992587 L4,14.0007413 Z" id="path-2"></path>
        <filter x="-17.5%" y="-13.9%" width="135.0%" height="138.9%" filterUnits="objectBoundingBox" id="filter-3">
            <feOffset dx="0" dy="2" in="SourceAlpha" result="shadowOffsetOuter1"></feOffset>
            <feGaussianBlur stdDeviation="2" in="shadowOffsetOuter1" result="shadowBlurOuter1"></feGaussianBlur>
            <feComposite in="shadowBlurOuter1" in2="SourceAlpha" operator="out" result="shadowBlurOuter1"></feComposite>
            <feColorMatrix values="0 0 0 0 0   0 0 0 0 0   0 0 0 0 0  0 0 0 0.05 0" type="matrix" in="shadowBlurOuter1"></feColorMatrix>
        </filter>
    </defs>
    <g id="画板" stroke="none" stroke-width="1" fill="none" fill-rule="evenodd">
        <g id="btn状态备份" transform="translate(-66.000000, -351.000000)">
            <g id="Group-20" transform="translate(66.000000, 351.000000)">
                <g id="contrarotate_normal">
                    <g id="rect34160">
                        <use fill="black" fill-opacity="1" filter="url(#filter-3)" xlink:href="#path-2"></use>
                        <use fill-opacity="0.08" fill="#000000" fill-rule="evenodd" xlink:href="#path-2"></use>
                        <path stroke-opacity="0.03" stroke="#000000" stroke-width="1" d="M4.5,14.0007413 L4.5,33.9992587 C4.5,38.1409473 7.85769562,41.5 11.9984599,41.5 L36.0015401,41.5 C40.140276,41.5 43.5,38.1404501 43.5,33.9992587 L43.5,14.0007413 C43.5,9.85905269 40.1423044,6.5 36.0015401,6.5 L11.9984599,6.5 C7.85972395,6.5 4.5,9.85954989 4.5,14.0007413 Z" stroke-linejoin="square" fill="url(#linearGradient-1)" fill-rule="evenodd"></path>
                    </g>
                    <g transform="translate(17.000000, 17.000000)" fill="#536076" id="path34164">
                        <path d="M2.27373675e-13,0.0001 L2.27373675e-13,4.0001 L4,4.0001 L2.2988,2.2989 C4.2165,0.7896 6.8592,0.5737 8.9922,1.8009 C11.2126,3.0784 12.3764,5.6192 11.8925,8.1349 C11.4086,10.6504 9.3855,12.5789 6.8496,12.9415 C5.3819,13.1514 3.9323,12.8083 2.7441,12.0411 C2.59406314,11.9340352 2.39729324,11.9181894 2.23205715,11.9998654 C2.06682105,12.0815413 1.95991402,12.2474942 1.9538592,12.431715 C1.94780438,12.6159357 2.04358364,12.7885503 2.2031,12.8809 C3.5889,13.7757 5.2822,14.1763 6.9922,13.9317 C9.9467,13.5093 12.3112,11.2552 12.875,8.3242 C13.4388,5.3933 12.0792,2.4221 9.4922,0.9337 C8.1986,0.1894 6.7378,-0.1033 5.3203,0.0352 C3.9762,0.1664 2.6769,0.697 1.5859,1.586 L0,2.27373675e-13 L2.27373675e-13,0.0001 Z M6.0136,6.0001 C5.46209597,6.00334975 5.01733958,6.45249063 5.0195,7.004 C5.02164804,7.55476107 5.46873474,8.00010413 6.0195,8.0001 C6.57026526,8.00010413 7.01735196,7.55476107 7.0195,7.004 C7.0216647,6.45322712 6.57806041,6.00439186 6.0273,6.0001 L6.0133,6.0001 L6.0136,6.0001 Z"></path>
                    </g>
                </g>
            </g>
        </g>
    </g>
</svg>