<?xml version="1.0" encoding="UTF-8"?>
<svg width="48px" height="48px" viewBox="0 0 48 48" version="1.1" xmlns="http://www.w3.org/2000/svg" xmlns:xlink="http://www.w3.org/1999/xlink">
    <!-- Generator: Sketch 58 (84663) - https://sketch.com -->
    <title>contrarotate_hover</title>
    <desc>Created with Sketch.</desc>
    <g id="画板" stroke="none" stroke-width="1" fill="none" fill-rule="evenodd">
        <g id="btn状态备份" transform="translate(-406.000000, -351.000000)">
            <g id="Group-20" transform="translate(406.000000, 351.000000)">
                <g id="Group-7">
                    <g id="contrarotate_hover">
                        <path d="M4,14.0007413 C4,9.58205387 7.58493529,6 11.9984599,6 L36.0015401,6 C40.4189675,6 44,9.58343124 44,14.0007413 L44,33.9992587 C44,38.4179461 40.4150647,42 36.0015401,42 L11.9984599,42 C7.58103249,42 4,38.4165688 4,33.9992587 L4,14.0007413 Z" id="rect34160" fill-opacity="0.05" fill="#000000"></path>
                        <g transform="translate(17.000000, 17.000000)" fill="#001A2E" id="path34164">
                            <path d="M2.27373675e-13,0.0001 L2.27373675e-13,4.0001 L4,4.0001 L2.2988,2.2989 C4.2165,0.7896 6.8592,0.5737 8.9922,1.8009 C11.2126,3.0784 12.3764,5.6192 11.8925,8.1349 C11.4086,10.6504 9.3855,12.5789 6.8496,12.9415 C5.3819,13.1514 3.9323,12.8083 2.7441,12.0411 C2.59406314,11.9340352 2.39729324,11.9181894 2.23205715,11.9998654 C2.06682105,12.0815413 1.95991402,12.2474942 1.9538592,12.431715 C1.94780438,12.6159357 2.04358364,12.7885503 2.2031,12.8809 C3.5889,13.7757 5.2822,14.1763 6.9922,13.9317 C9.9467,13.5093 12.3112,11.2552 12.875,8.3242 C13.4388,5.3933 12.0792,2.4221 9.4922,0.9337 C8.1986,0.1894 6.7378,-0.1033 5.3203,0.0352 C3.9762,0.1664 2.6769,0.697 1.5859,1.586 L0,2.27373675e-13 L2.27373675e-13,0.0001 Z M6.0136,6.0001 C5.46209597,6.00334975 5.01733958,6.45249063 5.0195,7.004 C5.02164804,7.55476107 5.46873474,8.00010413 6.0195,8.0001 C6.57026526,8.00010413 7.01735196,7.55476107 7.0195,7.004 C7.0216647,6.45322712 6.57806041,6.00439186 6.0273,6.0001 L6.0133,6.0001 L6.0136,6.0001 Z"></path>
                        </g>
                    </g>
                </g>
            </g>
        </g>
    </g>
</svg>