<?xml version="1.0" encoding="UTF-8"?>
<svg width="48px" height="48px" viewBox="0 0 48 48" version="1.1" xmlns="http://www.w3.org/2000/svg" xmlns:xlink="http://www.w3.org/1999/xlink">
    <!-- Generator: Sketch 58 (84663) - https://sketch.com -->
    <title>flip vertical_hover</title>
    <desc>Created with Sketch.</desc>
    <g id="画板" stroke="none" stroke-width="1" fill="none" fill-rule="evenodd">
        <g id="btn状态备份" transform="translate(-586.000000, -351.000000)">
            <g id="Group-20" transform="translate(406.000000, 351.000000)">
                <g id="Group-19" transform="translate(180.000000, 0.000000)">
                    <g id="flip-vertical_hover">
                        <rect id="rect34212" fill-opacity="0.05" fill="#000000" x="4" y="6" width="40" height="36" rx="8"></rect>
                        <g transform="translate(15.000000, 17.000000)" fill="#001A2E" id="path34226">
                            <path d="M2.53379827,2.85004628e-06 C2.25840961,0.00107674896 2.0357237,0.224612098 2.03569827,0.50000285 L2.03569827,5.50000285 C2.03572587,5.7761338 2.25956733,5.99997526 2.53569827,6.00000285 L14.5356983,6.00000285 C14.7736706,5.99979233 14.9785269,5.83190446 15.0254772,5.59860947 C15.0724275,5.36531448 14.9484633,5.13125191 14.7290983,5.03900285 L2.72909827,0.03900285 C2.66727174,0.0130394603 2.60085472,-0.000223539269 2.53379827,2.85004628e-06 L2.53379827,2.85004628e-06 Z M3.03569827,1.24810285 L12.0376983,5.00000285 L3.03569827,5.00000285 L3.03569827,1.24810285 L3.03569827,1.24810285 Z M0.475198274,7.00000285 C0.296553254,7.00909667 0.136332046,7.11281155 0.0548951371,7.27207476 C-0.0265417719,7.43133797 -0.0168205364,7.62195043 0.080396541,7.77210229 C0.177613618,7.92225415 0.347554992,8.00913074 0.526198274,8.00000285 L16.5593983,8.00000285 C16.7397152,8.00255145 16.9074363,7.90781331 16.9983386,7.75206517 C17.0892408,7.59631703 17.0892408,7.40368867 16.9983386,7.24794053 C16.9074363,7.09219239 16.7397152,6.99745425 16.5593983,7.00000285 L0.526198274,7.00000285 C0.50920934,6.99913537 0.492187207,6.99913537 0.475198274,7.00000285 L0.475198274,7.00000285 Z M2.53569827,9.00000285 C2.25956733,9.00003044 2.03572587,9.22387191 2.03569827,9.50000285 L2.03569827,14.5000029 C2.0357508,14.6673648 2.1195263,14.823604 2.25889726,14.9162634 C2.39826821,15.0089228 2.57475345,15.0257153 2.72909827,14.9610029 L14.7290983,9.96100285 C14.9484633,9.86875379 15.0724275,9.63469122 15.0254772,9.40139623 C14.9785269,9.16810124 14.7736706,9.00021337 14.5356983,9.00000285 L2.53569827,9.00000285 L2.53569827,9.00000285 Z M3.03569827,10.0000029 L12.0376983,10.0000029 L3.03569827,13.7519029 L3.03569827,10.0000029 L3.03569827,10.0000029 Z"></path>
                        </g>
                    </g>
                </g>
            </g>
        </g>
    </g>
</svg>