<?xml version="1.0" encoding="UTF-8"?>
<svg width="48px" height="48px" viewBox="0 0 48 48" version="1.1" xmlns="http://www.w3.org/2000/svg" xmlns:xlink="http://www.w3.org/1999/xlink">
    <!-- Generator: Sketch 58 (84663) - https://sketch.com -->
    <title>flip horizontal_normal</title>
    <desc>Created with Sketch.</desc>
    <defs>
        <linearGradient x1="50%" y1="0%" x2="50%" y2="95.6533653%" id="linearGradient-1">
            <stop stop-color="#E6E6E6" offset="0%"></stop>
            <stop stop-color="#E3E3E3" offset="100%"></stop>
        </linearGradient>
        <rect id="path-2" x="4" y="6" width="40" height="36" rx="8"></rect>
        <filter x="-17.5%" y="-13.9%" width="135.0%" height="138.9%" filterUnits="objectBoundingBox" id="filter-3">
            <feOffset dx="0" dy="2" in="SourceAlpha" result="shadowOffsetOuter1"></feOffset>
            <feGaussianBlur stdDeviation="2" in="shadowOffsetOuter1" result="shadowBlurOuter1"></feGaussianBlur>
            <feComposite in="shadowBlurOuter1" in2="SourceAlpha" operator="out" result="shadowBlurOuter1"></feComposite>
            <feColorMatrix values="0 0 0 0 0   0 0 0 0 0   0 0 0 0 0  0 0 0 0.05 0" type="matrix" in="shadowBlurOuter1"></feColorMatrix>
        </filter>
    </defs>
    <g id="画板" stroke="none" stroke-width="1" fill="none" fill-rule="evenodd">
        <g id="btn状态备份" transform="translate(-186.000000, -351.000000)">
            <g id="Group-20" transform="translate(66.000000, 351.000000)">
                <g id="flip-horizontal_normal" transform="translate(120.000000, 0.000000)">
                    <g id="rect34210">
                        <use fill="black" fill-opacity="1" filter="url(#filter-3)" xlink:href="#path-2"></use>
                        <use fill-opacity="0.08" fill="#000000" fill-rule="evenodd" xlink:href="#path-2"></use>
                        <rect stroke-opacity="0.03" stroke="#000000" stroke-width="1" stroke-linejoin="square" fill="url(#linearGradient-1)" fill-rule="evenodd" x="4.5" y="6.5" width="39" height="35" rx="8"></rect>
                    </g>
                    <g transform="translate(15.000000, 16.000000)" fill="#536076" id="path34220">
                        <path d="M9.55350682,6.10956341e-05 C9.4043215,0.00212690843 9.26217002,0.0567883874 9.15832575,0.152019997 C9.05448147,0.247251606 8.99745128,0.37525201 8.99978182,0.507861096 L8.99978182,15.5410611 C8.99691464,15.721378 9.10349505,15.8890992 9.27871171,15.9800014 C9.45392836,16.0709036 9.67063527,16.0709036 9.84585193,15.9800014 C10.0210686,15.8890992 10.127649,15.721378 10.1247818,15.5410611 L10.1247818,0.507861096 C10.12716,0.372547181 10.0677363,0.242154384 9.96008156,0.146461322 C9.85242687,0.0507682597 9.70573497,-0.00205284421 9.55350682,6.10956341e-05 L9.55350682,6.10956341e-05 Z M7.29473182,2.0312611 C7.09476026,2.03692566 6.9132206,2.1365721 6.81795682,2.2929611 L0.0679568192,13.2929611 C-0.0264874579,13.4478753 -0.0222400725,13.6355387 0.0791372926,13.786951 C0.180514658,13.9383634 0.36405796,14.0311751 0.562281819,14.0312611 L7.31228182,14.0312611 C7.62292913,14.0312335 7.87475078,13.807392 7.87478182,13.5312611 L7.87478182,2.5312611 C7.87484025,2.39590956 7.81316907,2.26631836 7.7038566,2.17209159 C7.59454412,2.07786482 7.44692867,2.02705207 7.29473182,2.0312611 L7.29473182,2.0312611 Z M11.7969818,2.0312611 C11.4923255,2.03865608 11.2496987,2.26035453 11.2497818,2.5312611 L11.2497818,13.5312611 C11.2498129,13.807392 11.5016345,14.0312335 11.8122818,14.0312611 L18.5622818,14.0312611 C18.7605257,14.0312103 18.9441054,13.9384126 19.04551,13.786994 C19.1469147,13.6355753 19.1511731,13.447891 19.0567193,13.2929611 L12.3067193,2.2929611 C12.2058057,2.12736341 12.0087789,2.02620956 11.7969818,2.0312611 L11.7969818,2.0312611 Z M6.74978182,4.4940611 L6.74978182,13.0312611 L1.51155682,13.0312611 L6.74978182,4.4940611 L6.74978182,4.4940611 Z M12.3747818,4.4940611 L17.6131193,13.0312611 L12.3747818,13.0312611 L12.3747818,4.4940611 L12.3747818,4.4940611 Z"></path>
                    </g>
                </g>
            </g>
        </g>
    </g>
</svg>