<?xml version="1.0" encoding="UTF-8"?>
<svg width="36px" height="36px" viewBox="0 0 36 36" version="1.1" xmlns="http://www.w3.org/2000/svg" xmlns:xlink="http://www.w3.org/1999/xlink">
    <!-- Generator: Sketch 56.2 (81672) - https://sketch.com -->
    <title>smudge tool_checked</title>
    <desc>Created with Sketch.</desc>
    <defs>
        <path d="M27,21.5 L27,18 L18,18 L18,27 L25,27 L13,27 C10.790861,27 9,25.209139 9,23 L9,14.5 L9,18 L18,18 L18,9 L11,9 L23,9 C25.209139,9 27,10.790861 27,13 L27,21.5 Z" id="path-1"></path>
        <filter x="-61.1%" y="-38.9%" width="222.2%" height="222.2%" filterUnits="objectBoundingBox" id="filter-2">
            <feOffset dx="0" dy="4" in="SourceAlpha" result="shadowOffsetOuter1"></feOffset>
            <feGaussianBlur stdDeviation="3" in="shadowOffsetOuter1" result="shadowBlurOuter1"></feGaussianBlur>
            <feColorMatrix values="0 0 0 0 0.17254902   0 0 0 0 0.654901961   0 0 0 0 0.97254902  0 0 0 0.4 0" type="matrix" in="shadowBlurOuter1"></feColorMatrix>
        </filter>
    </defs>
    <g id="页面-1" stroke="none" stroke-width="1" fill="none" fill-rule="evenodd">
        <g id="画板" transform="translate(-1198.000000, -264.000000)">
            <g id="编组-6" transform="translate(1108.000000, 264.000000)">
                <g id="smudge-tool_checked" transform="translate(90.000000, 0.000000)">
                    <g id="Combined-Shape">
                        <use fill="black" fill-opacity="1" filter="url(#filter-2)" xlink:href="#path-1"></use>
                        <use fill="#0081FF" fill-rule="evenodd" xlink:href="#path-1"></use>
                    </g>
                    <path d="M13,9 L18,9 L18,18 L9,18 L9,13 C9,10.790861 10.790861,9 13,9 Z M18,18 L27,18 L27,23 C27,25.209139 25.209139,27 23,27 L18,27 L18,18 Z" id="Combined-Shape" fill="#536076" opacity="0.200000003"></path>
                </g>
            </g>
        </g>
    </g>
</svg>