<?xml version="1.0" encoding="UTF-8"?>
<svg width="20px" height="20px" viewBox="0 0 20 20" version="1.1" xmlns="http://www.w3.org/2000/svg" xmlns:xlink="http://www.w3.org/1999/xlink">
    <title>menu_group_normal</title>
    <g id="浅色主题" stroke="none" stroke-width="1" fill="none" fill-rule="evenodd">
        <g id="1040切图" transform="translate(-61.000000, -255.000000)">
            <g id="菜单-3备份" transform="translate(42.000000, 239.000000)">
                <g id="menu_group_normal" transform="translate(19.000000, 16.000000)">
                    <path d="M17,1 C18.1045695,1 19,1.8954305 19,3 L19,17 C19,18.1045695 18.1045695,19 17,19 L3,19 C1.8954305,19 1,18.1045695 1,17 L1,3 C1,1.8954305 1.8954305,1 3,1 L17,1 Z M17,2 L3,2 C2.48716416,2 2.06449284,2.38604019 2.00672773,2.88337887 L2,3 L2,17 C2,17.5128358 2.38604019,17.9355072 2.88337887,17.9932723 L3,18 L17,18 C17.5128358,18 17.9355072,17.6139598 17.9932723,17.1166211 L18,17 L18,3 C18,2.48716416 17.6139598,2.06449284 17.1166211,2.00672773 L17,2 Z M10,4 C11.1045695,4 12,4.8954305 12,6 L12,8 L14,8 C15.1045695,8 16,8.8954305 16,10 L16,14 C16,15.1045695 15.1045695,16 14,16 L10,16 C8.8954305,16 8,15.1045695 8,14 L8,12 L6,12 C4.8954305,12 4,11.1045695 4,10 L4,6 C4,4.8954305 4.8954305,4 6,4 L10,4 Z M14,9 L10,9 C9.48716416,9 9.06449284,9.38604019 9.00672773,9.88337887 L9,10 L9,14 C9,14.5128358 9.38604019,14.9355072 9.88337887,14.9932723 L10,15 L14,15 C14.5128358,15 14.9355072,14.6139598 14.9932723,14.1166211 L15,14 L15,10 C15,9.48716416 14.6139598,9.06449284 14.1166211,9.00672773 L14,9 Z M10,5 L6,5 C5.48716416,5 5.06449284,5.38604019 5.00672773,5.88337887 L5,6 L5,10 C5,10.5128358 5.38604019,10.9355072 5.88337887,10.9932723 L6,11 L8,11 L8,10 C8,8.8954305 8.8954305,8 10,8 L11,8 L11,6 C11,5.48716416 10.6139598,5.06449284 10.1166211,5.00672773 L10,5 Z" id="形状结合" fill="#536076" fill-rule="nonzero"></path>
                    <rect id="矩形" x="0" y="0" width="20" height="20"></rect>
                </g>
            </g>
        </g>
    </g>
</svg>