<?xml version="1.0" encoding="UTF-8"?>
<svg width="24px" height="24px" viewBox="0 0 24 24" version="1.1" xmlns="http://www.w3.org/2000/svg" xmlns:xlink="http://www.w3.org/1999/xlink">
    <!-- Generator: Sketch 48.2 (47327) - http://www.bohemiancoding.com/sketch -->
    <title>color_draw_normal</title>
    <desc>Created with Sketch.</desc>
    <defs>
        <linearGradient x1="50%" y1="0%" x2="50%" y2="100%" id="linearGradient-1">
            <stop stop-color="#FFFFFF" offset="0%"></stop>
            <stop stop-color="#FDFDFD" offset="100%"></stop>
        </linearGradient>
        <rect id="path-2" x="0" y="0" width="24" height="24" rx="4"></rect>
        <filter x="-2.1%" y="-2.1%" width="104.2%" height="108.3%" filterUnits="objectBoundingBox" id="filter-3">
            <feOffset dx="0" dy="1" in="SourceAlpha" result="shadowOffsetOuter1"></feOffset>
            <feComposite in="shadowOffsetOuter1" in2="SourceAlpha" operator="out" result="shadowOffsetOuter1"></feComposite>
            <feColorMatrix values="0 0 0 0 0   0 0 0 0 0   0 0 0 0 0  0 0 0 0.02 0" type="matrix" in="shadowOffsetOuter1"></feColorMatrix>
        </filter>
        <filter x="-2.1%" y="-2.1%" width="104.2%" height="108.3%" filterUnits="objectBoundingBox" id="filter-4">
            <feOffset dx="0" dy="1" in="SourceAlpha" result="shadowOffsetInner1"></feOffset>
            <feComposite in="shadowOffsetInner1" in2="SourceAlpha" operator="arithmetic" k2="-1" k3="1" result="shadowInnerInner1"></feComposite>
            <feColorMatrix values="0 0 0 0 1   0 0 0 0 1   0 0 0 0 1  0 0 0 0.6 0" type="matrix" in="shadowInnerInner1"></feColorMatrix>
        </filter>
    </defs>
    <g id="浅色_图标整理" stroke="none" stroke-width="1" fill="none" fill-rule="evenodd" transform="translate(-117.000000, -209.000000)">
        <g id="Group-5" transform="translate(117.000000, 209.000000)">
            <g id="Rectangle-13">
                <use fill="black" fill-opacity="1" filter="url(#filter-3)" xlink:href="#path-2"></use>
                <use fill="url(#linearGradient-1)" fill-rule="evenodd" xlink:href="#path-2"></use>
                <use fill="black" fill-opacity="1" filter="url(#filter-4)" xlink:href="#path-2"></use>
                <rect stroke-opacity="0.08" stroke="#000000" stroke-width="1" x="0.5" y="0.5" width="23" height="23" rx="4"></rect>
            </g>
            <g id="Group-3" transform="translate(12.636039, 12.500000) rotate(-45.000000) translate(-12.636039, -12.500000) translate(1.136039, 6.500000)">
                <path d="M3.23281477,3.55025253 L0.831289124,5.57372513 L3.22972925,7.55025253 L19.5467964,7.55025253 C20.6554458,7.55025253 21.5502525,6.65588328 21.5502525,5.55025253 C21.5502525,4.43983526 20.6570644,3.55025253 19.5467964,3.55025253 L3.23281477,3.55025253 Z" id="Rectangle-4" stroke="#303030"></path>
                <path d="M15.0502525,3.05025253 L19.5409522,3.05025253 C20.9268005,3.05025253 22.0502525,4.15991459 22.0502525,5.55025253 C22.0502525,6.93096441 20.9378868,8.05025253 19.5409522,8.05025253 L15.0502525,8.05025253 L15.0502525,11.0502525 L13.0502525,11.0502525 L13.0502525,0.0502525317 L15.0502525,0.0502525317 L15.0502525,3.05025253 Z" id="Combined-Shape" fill="#303030"></path>
            </g>
        </g>
    </g>
</svg>