<?xml version="1.0" encoding="UTF-8"?>
<svg width="36px" height="36px" viewBox="0 0 36 36" version="1.1" xmlns="http://www.w3.org/2000/svg" xmlns:xlink="http://www.w3.org/1999/xlink">
    <!-- Generator: Sketch 58 (84663) - https://sketch.com -->
    <title>dorpper_active</title>
    <desc>Created with Sketch.</desc>
    <defs>
        <path d="M2.79606482,2.79606482 L17.9178967,2.79606482 C19.185299,2.79606482 20.2127315,3.81325504 20.2127315,5.08773149 L20.2127315,5.08773149 C20.2127315,6.35338404 19.1882625,7.37939815 17.9178967,7.37939815 L2.79606482,7.37939815 L0.0460648207,5.11315424 L2.79606482,2.79606482 Z" id="path-1"></path>
        <filter x="-54.5%" y="-152.7%" width="209.1%" height="580.0%" filterUnits="objectBoundingBox" id="filter-2">
            <feOffset dx="0" dy="4" in="SourceAlpha" result="shadowOffsetOuter1"></feOffset>
            <feMorphology radius="1" operator="erode" in="SourceAlpha" result="shadowInner"></feMorphology>
            <feOffset dx="0" dy="4" in="shadowInner" result="shadowInner"></feOffset>
            <feComposite in="shadowOffsetOuter1" in2="shadowInner" operator="out" result="shadowOffsetOuter1"></feComposite>
            <feGaussianBlur stdDeviation="3" in="shadowOffsetOuter1" result="shadowBlurOuter1"></feGaussianBlur>
            <feColorMatrix values="0 0 0 0 0.17254902   0 0 0 0 0.654901961   0 0 0 0 0.97254902  0 0 0 0.2 0" type="matrix" in="shadowBlurOuter1"></feColorMatrix>
        </filter>
        <path d="M13.7960648,0.0460648207 L13.7957315,2.79606482 L17.9125395,2.79606482 C19.1299687,2.79606482 20.1264946,3.73025514 20.2074249,4.92981693 L20.2127315,5.08773149 C20.2127315,6.35338404 19.1930629,7.37939815 17.9125395,7.37939815 L13.7957315,7.37906482 L13.7960648,10.1293982 L11.9627315,10.1293982 L11.9627315,0.0460648207 L13.7960648,0.0460648207 Z" id="path-3"></path>
        <filter x="-121.2%" y="-79.3%" width="342.4%" height="298.3%" filterUnits="objectBoundingBox" id="filter-4">
            <feOffset dx="0" dy="2" in="SourceAlpha" result="shadowOffsetOuter1"></feOffset>
            <feGaussianBlur stdDeviation="3" in="shadowOffsetOuter1" result="shadowBlurOuter1"></feGaussianBlur>
            <feColorMatrix values="0 0 0 0 0.17254902   0 0 0 0 0.654901961   0 0 0 0 0.97254902  0 0 0 0.4 0" type="matrix" in="shadowBlurOuter1"></feColorMatrix>
        </filter>
    </defs>
    <g id="画板" stroke="none" stroke-width="1" fill="none" fill-rule="evenodd">
        <g id="调色板" transform="translate(-375.000000, -16.000000)">
            <g id="dorpper_active" transform="translate(375.000000, 16.000000)">
                <rect id="Rectangle" fill-opacity="0.1" fill="#000000" opacity="0.800000012" x="0" y="0" width="36" height="36" rx="8"></rect>
                <g id="Group-3" transform="translate(18.485355, 18.464645) rotate(-45.000000) translate(-18.485355, -18.464645) translate(7.985355, 12.964645)">
                    <g id="Rectangle-4">
                        <use fill="black" fill-opacity="1" filter="url(#filter-2)" xlink:href="#path-1"></use>
                        <path stroke="#0081FF" stroke-width="1" d="M2.97862706,3.29606482 L0.827101413,5.10889293 L2.97554154,6.87939815 L17.9178967,6.87939815 C18.9111513,6.87939815 19.7127315,6.07820991 19.7127315,5.08773149 C19.7127315,4.09289867 18.9126682,3.29606482 17.9178967,3.29606482 L2.97862706,3.29606482 Z" stroke-linejoin="square"></path>
                    </g>
                    <g id="Combined-Shape">
                        <use fill="black" fill-opacity="1" filter="url(#filter-4)" xlink:href="#path-3"></use>
                        <use fill="#0081FF" fill-rule="evenodd" xlink:href="#path-3"></use>
                    </g>
                </g>
                <g id="Line-2-+-Line-3" transform="translate(17.000000, 13.000000)"></g>
            </g>
        </g>
    </g>
</svg>