<?xml version="1.0" encoding="UTF-8"?>
<svg width="25px" height="26px" viewBox="0 0 25 26" version="1.1" xmlns="http://www.w3.org/2000/svg" xmlns:xlink="http://www.w3.org/1999/xlink">
    <!-- Generator: Sketch 48.2 (47327) - http://www.bohemiancoding.com/sketch -->
    <title>reduce_hover</title>
    <desc>Created with Sketch.</desc>
    <defs>
        <linearGradient x1="50%" y1="0%" x2="50%" y2="96.8191964%" id="linearGradient-1">
            <stop stop-color="#8CCFFF" offset="0%"></stop>
            <stop stop-color="#4BB8FF" offset="100%"></stop>
        </linearGradient>
        <path d="M0,0 L0,24 L20.9971835,24 C23.207878,24 25,22.2157067 25,20.009947 L25,3.99005301 C25,1.78640758 23.2020617,0 20.9971835,0 L0,0 Z" id="path-2"></path>
        <filter x="-8.0%" y="-4.2%" width="116.0%" height="116.7%" filterUnits="objectBoundingBox" id="filter-3">
            <feOffset dx="0" dy="1" in="SourceAlpha" result="shadowOffsetOuter1"></feOffset>
            <feGaussianBlur stdDeviation="0.5" in="shadowOffsetOuter1" result="shadowBlurOuter1"></feGaussianBlur>
            <feComposite in="shadowBlurOuter1" in2="SourceAlpha" operator="out" result="shadowBlurOuter1"></feComposite>
            <feColorMatrix values="0 0 0 0 0   0 0 0 0 0   0 0 0 0 0  0 0 0 0.05 0" type="matrix" in="shadowBlurOuter1"></feColorMatrix>
        </filter>
    </defs>
    <g id="输入框" stroke="none" stroke-width="1" fill="none" fill-rule="evenodd">
        <g id="reduce_hover" transform="translate(0.000000, 1.000000)">
            <g id="Rectangle-9">
                <use fill="black" fill-opacity="1" filter="url(#filter-3)" xlink:href="#path-2"></use>
                <use fill="url(#linearGradient-1)" fill-rule="evenodd" xlink:href="#path-2"></use>
                <path stroke-opacity="0.2" stroke="#0076F3" stroke-width="1" d="M0.5,0.5 L0.5,23.5 L20.9971835,23.5 C22.9328661,23.5 24.5,21.9384349 24.5,20.009947 L24.5,3.99005301 C24.5,2.0650212 22.9283968,0.5 20.9971835,0.5 L0.5,0.5 Z"></path>
            </g>
            <g id="Line-2-+-Line-3" transform="translate(7.000000, 11.000000)" fill="#FFFFFF" fill-rule="nonzero">
                <polygon id="Line-2" points="0.5 1 0.5 0 10.5 0 10.5 1"></polygon>
            </g>
        </g>
    </g>
</svg>