<?xml version="1.0" encoding="UTF-8"?>
<svg width="48px" height="48px" viewBox="0 0 48 48" version="1.1" xmlns="http://www.w3.org/2000/svg" xmlns:xlink="http://www.w3.org/1999/xlink">
    <!-- Generator: Sketch 64 (93537) - https://sketch.com -->
    <title>flip-adjustment-normal</title>
    <desc>Created with Sketch.</desc>
    <g id="浅色主题" stroke="none" stroke-width="1" fill="none" fill-rule="evenodd" opacity="0.971">
        <g id="新增切图" transform="translate(-73.000000, -592.000000)">
            <g id="flip-adjustment-normal" transform="translate(73.000000, 592.000000)">
                <rect id="矩形" stroke="#536076" x="15.5" y="15.5" width="17" height="17" rx="4"></rect>
                <path d="M18,27 L19,27 L19,29 L21,29 L21,30 L18,30 L18,27 Z M30,27 L30,30 L27,30 L27,29 L29,29 L29,27 L30,27 Z M30,21 L29,21 L29,19 L27,19 L27,18 L30,18 L30,21 Z M21,18 L21,19 L19,19 L19,21 L18,21 L18,18 L21,18 Z" id="形状结合" fill="#576479"></path>
            </g>
        </g>
    </g>
</svg>