<?xml version="1.0" encoding="UTF-8"?>
<svg width="36px" height="36px" viewBox="0 0 36 36" version="1.1" xmlns="http://www.w3.org/2000/svg" xmlns:xlink="http://www.w3.org/1999/xlink">
    <title>icon/toolbar/编辑画板</title>
    <g id="icon/toolbar/编辑画板" stroke="none" stroke-width="1" fill="none" fill-rule="evenodd">
        <rect id="矩形" fill-opacity="0" fill="#000000" x="0" y="0" width="36" height="36" rx="8"></rect>
        <path d="M12,24 C10.3431458,24 9,22.6568542 9,21 L9,15 C9,13.3431458 10.3431458,12 12,12 L22,12 C23.6568542,12 25,13.3431458 25,15 L25,21 C25,22.6568542 23.6568542,24 22,24 L12,24 Z M17.3333333,18 L10,18 L10,21 C10,22.0543618 10.8158778,22.9181651 11.8507377,22.9945143 L12,23 L17.3333333,23 L17.3333333,18 Z M22,13 L12,13 C10.9456382,13 10.0818349,13.8158778 10.0054857,14.8507377 L10,15 L10,17 L10,17 L17.3333333,17 C17.8856181,17 18.3333333,17.4477153 18.3333333,18 L18.3333333,23 L22,23 C23.0543618,23 23.9181651,22.1841222 23.9945143,21.1492623 L24,21 L24,15 C24,13.9456382 23.1841222,13.0818349 22.1492623,13.0054857 L22,13 Z" id="形状结合" fill-opacity="0.7" fill="#000000" fill-rule="nonzero"></path>
    </g>
</svg>