<?xml version="1.0" encoding="UTF-8"?>
<svg width="50px" height="50px" viewBox="0 0 50 50" version="1.1" xmlns="http://www.w3.org/2000/svg" xmlns:xlink="http://www.w3.org/1999/xlink">
    <title>DTK / Toolbar / TitleButton / Menu</title>
    <g id="DTK-/-Toolbar-/-TitleButton-/-Menu" stroke="none" stroke-width="1" fill="none" fill-rule="evenodd">
        <g id="DTK/Toolbar/TitleButton/Menu" fill="#000000">
            <rect id="bg" fill-opacity="0.288836051" opacity="0" x="0" y="0" width="50" height="50"></rect>
            <path d="M25,16 C29.9705627,16 34,20.0294373 34,25 C34,29.9705627 29.9705627,34 25,34 C20.0294373,34 16,29.9705627 16,25 C16,20.0294373 20.0294373,16 25,16 Z M25,17 C20.581722,17 17,20.581722 17,25 C17,29.418278 20.581722,33 25,33 C29.418278,33 33,29.418278 33,25 C33,20.581722 29.418278,17 25,17 Z M21,23.5 C21.8284271,23.5 22.5,24.1715729 22.5,25 C22.5,25.8284271 21.8284271,26.5 21,26.5 C20.1715729,26.5 19.5,25.8284271 19.5,25 C19.5,24.1715729 20.1715729,23.5 21,23.5 Z M25,23.5 C25.8284271,23.5 26.5,24.1715729 26.5,25 C26.5,25.8284271 25.8284271,26.5 25,26.5 C24.1715729,26.5 23.5,25.8284271 23.5,25 C23.5,24.1715729 24.1715729,23.5 25,23.5 Z M29,23.5 C29.8284271,23.5 30.5,24.1715729 30.5,25 C30.5,25.8284271 29.8284271,26.5 29,26.5 C28.1715729,26.5 27.5,25.8284271 27.5,25 C27.5,24.1715729 28.1715729,23.5 29,23.5 Z" id="形状结合" fill-opacity="0.7" fill-rule="nonzero"></path>
        </g>
    </g>
</svg>