<?xml version="1.0" encoding="UTF-8"?>
<svg width="36px" height="36px" viewBox="0 0 36 36" version="1.1" xmlns="http://www.w3.org/2000/svg" xmlns:xlink="http://www.w3.org/1999/xlink">
    <title>icon/toolbar/旋转</title>
    <g id="icon/toolbar/旋转" stroke="none" stroke-width="1" fill="none" fill-rule="evenodd">
        <rect id="矩形" fill-opacity="0" fill="#000000" x="0" y="0" width="36" height="36" rx="8"></rect>
        <g id="icon/cut/rotate" transform="translate(10.000000, 9.000000)" fill="#000000" fill-opacity="0.7" fill-rule="nonzero">
            <path d="M15.5,5 C16.3284271,5 17,5.67157288 17,6.5 L17,6.5 L17,13.5 C17,14.3284271 16.3284271,15 15.5,15 L15.5,15 L4.5,15 C3.67157288,15 3,14.3284271 3,13.5 L3,13.5 L3,6.5 C3,5.67157288 3.67157288,5 4.5,5 L4.5,5 Z M15,6 L5,6 C4.44771525,6 4,6.44771525 4,7 L4,13 C4,13.5522847 4.44771525,14 5,14 L15,14 C15.5522847,14 16,13.5522847 16,13 L16,7 C16,6.44771525 15.5522847,6 15,6 Z" id="形状结合"></path>
            <path d="M2.76142167,0.0598724293 C3.01437658,-0.0636634279 3.32719383,0.00727579075 3.49982581,0.242139365 L3.49982581,0.242139365 L3.55532745,0.333800689 C3.67886331,0.586755596 3.60792409,0.899572854 3.37306051,1.07220483 L3.37306051,1.07220483 L2.484,1.725 L3.72287316,1.7259149 C5.2968847,1.7259149 6.58479409,2.95086382 6.68530842,4.49946877 L6.69162316,4.6946649 L6.69162316,7.01815015 C6.69162316,7.34606922 6.42579223,7.61190015 6.09787316,7.61190015 C5.80638955,7.61190015 5.56396322,7.40186089 5.51368927,7.12487746 L5.50412316,7.01815015 L5.50412316,4.6946649 C5.50412316,3.76877576 4.79769357,3.00788209 3.89441943,2.92156896 L3.72287316,2.9134149 L1.34787316,2.9134149 L1.34,2.912 L0.242157344,2.90979837 L0.155001374,2.83175725 C-0.0774145453,2.57852176 -0.0485002369,2.11337955 0.242019662,1.89983845 L0.242019662,1.89983845 L2.66976034,0.115374064 Z" id="形状结合" transform="translate(3.345812, 3.805950) scale(-1, 1) translate(-3.345812, -3.805950) "></path>
        </g>
    </g>
</svg>