<?xml version="1.0" encoding="UTF-8"?>
<svg width="36px" height="36px" viewBox="0 0 36 36" version="1.1" xmlns="http://www.w3.org/2000/svg" xmlns:xlink="http://www.w3.org/1999/xlink">
    <!-- Generator: Sketch 56.2 (81672) - https://sketch.com -->
    <title>smudge tool_disabled</title>
    <desc>Created with Sketch.</desc>
    <g id="页面-1" stroke="none" stroke-width="1" fill="none" fill-rule="evenodd" opacity="0.4">
        <g id="画板" transform="translate(-1906.000000, -264.000000)" fill="#536076">
            <g id="编组-6" transform="translate(1816.000000, 264.000000)">
                <g id="smudge-tool_disabled" transform="translate(90.000000, 0.000000)">
                    <g id="编组-2" transform="translate(9.000000, 9.000000)">
                        <path d="M18,12.5 L18,9 L9,9 L9,18 L16,18 L4,18 C1.790861,18 2.705415e-16,16.209139 0,14 L0,5.5 L0,9 L9,9 L9,0 L2,0 L14,0 C16.209139,-4.05812251e-16 18,1.790861 18,4 L18,12.5 Z" id="Combined-Shape"></path>
                        <path d="M4,0 L9,0 L9,9 L0,9 L0,4 C-2.705415e-16,1.790861 1.790861,4.05812251e-16 4,0 Z M9,9 L18,9 L18,14 C18,16.209139 16.209139,18 14,18 L9,18 L9,9 Z" id="Combined-Shape" opacity="0.2"></path>
                    </g>
                </g>
            </g>
        </g>
    </g>
</svg>