<?xml version="1.0" encoding="UTF-8"?>
<svg width="48px" height="48px" viewBox="0 0 48 48" version="1.1" xmlns="http://www.w3.org/2000/svg" xmlns:xlink="http://www.w3.org/1999/xlink">
    <!-- Generator: Sketch 58 (84663) - https://sketch.com -->
    <title>clockwise rotation_hover</title>
    <desc>Created with Sketch.</desc>
    <defs>
        <linearGradient x1="50%" y1="0%" x2="50%" y2="95.6533653%" id="linearGradient-1">
            <stop stop-color="#727272" offset="0%"></stop>
            <stop stop-color="#535353" offset="100%"></stop>
        </linearGradient>
        <rect id="path-2" x="0" y="0" width="40" height="36" rx="8"></rect>
        <filter x="-17.5%" y="-13.9%" width="135.0%" height="138.9%" filterUnits="objectBoundingBox" id="filter-3">
            <feOffset dx="0" dy="2" in="SourceAlpha" result="shadowOffsetOuter1"></feOffset>
            <feGaussianBlur stdDeviation="2" in="shadowOffsetOuter1" result="shadowBlurOuter1"></feGaussianBlur>
            <feComposite in="shadowBlurOuter1" in2="SourceAlpha" operator="out" result="shadowBlurOuter1"></feComposite>
            <feColorMatrix values="0 0 0 0 0   0 0 0 0 0   0 0 0 0 0  0 0 0 0.05 0" type="matrix" in="shadowBlurOuter1"></feColorMatrix>
        </filter>
    </defs>
    <g id="深色主题" stroke="none" stroke-width="1" fill="none" fill-rule="evenodd" opacity="0.971">
        <g id="btn状态" transform="translate(-466.000000, -351.000000)">
            <g id="Group-20" transform="translate(406.000000, 351.000000)">
                <g id="Group-16" transform="translate(60.000000, 0.000000)">
                    <g id="clockwise-rotation_hover" transform="translate(4.000000, 6.000000)">
                        <g>
                            <g id="rect34162">
                                <use fill="black" fill-opacity="1" filter="url(#filter-3)" xlink:href="#path-2"></use>
                                <use fill-opacity="0.08" fill="#000000" fill-rule="evenodd" xlink:href="#path-2"></use>
                                <rect stroke-opacity="0.03" stroke="#FFFFFF" stroke-width="1" stroke-linejoin="square" fill="url(#linearGradient-1)" fill-rule="evenodd" x="0.5" y="0.5" width="39" height="35" rx="8"></rect>
                            </g>
                            <path d="M20.610532,11.0099603 C19.541632,11.0689603 18.479132,11.3755603 17.509032,11.9338603 C14.922032,13.4222603 13.562432,16.3914603 14.126232,19.3224603 C14.690032,22.2532603 17.054432,24.5074603 20.009032,24.9299603 C21.719032,25.1744603 23.412232,24.7759603 24.798032,23.8810603 C24.9508168,23.7852937 25.0402093,23.6146869 25.0319854,23.4345569 C25.0237615,23.2544268 24.919195,23.0926753 24.7583195,23.011229 C24.5974439,22.9297827 24.4051783,22.9412575 24.255132,23.0412603 C23.066932,23.8084603 21.619232,24.1495603 20.151632,23.9396603 C17.615732,23.5771603 15.592532,21.6485603 15.108632,19.1330603 C14.624732,16.6174603 15.786632,14.0766603 18.007032,12.7990603 C20.134432,11.5751603 22.768332,11.7886603 24.684832,13.2873603 L22.960232,15.0021603 L26.964132,15.0161603 L26.974132,11.0122603 L25.401832,12.5767603 C24.313532,11.6945603 23.019432,11.1643603 21.681132,11.0337603 C21.326732,10.9987603 20.969132,10.9907603 20.612732,11.0107603 L20.610532,11.0099603 Z M20.973832,17.0002603 C20.4230715,17.0045521 19.9794673,17.4533874 19.981632,18.0041603 C19.98378,18.5549214 20.4308667,19.0002644 20.981632,19.0002603 C21.5331755,19.0002612 21.980584,18.5537029 21.981632,18.0021603 C21.9826879,17.4514305 21.5382531,17.0035086 20.987532,17.0002603 L20.973532,17.0002603 L20.973832,17.0002603 Z" id="path34172" fill="#FFFFFF"></path>
                        </g>
                    </g>
                </g>
            </g>
        </g>
    </g>
</svg>