<?xml version="1.0" encoding="UTF-8"?>
<svg width="48px" height="48px" viewBox="0 0 48 48" version="1.1" xmlns="http://www.w3.org/2000/svg" xmlns:xlink="http://www.w3.org/1999/xlink">
    <!-- Generator: Sketch 58 (84663) - https://sketch.com -->
    <title>clockwise rotation_press</title>
    <desc>Created with Sketch.</desc>
    <g id="深色主题" stroke="none" stroke-width="1" fill="none" fill-rule="evenodd" opacity="0.971">
        <g id="btn状态" transform="translate(-796.000000, -351.000000)">
            <g id="Group-20" transform="translate(736.000000, 351.000000)">
                <g id="Group-16" transform="translate(60.000000, 0.000000)">
                    <g id="clockwise-rotation_press" transform="translate(4.000000, 6.000000)">
                        <rect id="rect34162" fill-opacity="0.5" fill="#000000" x="0" y="0" width="40" height="36" rx="8"></rect>
                        <g transform="translate(2.000000, 0.000000)" fill="#0059D2" id="path34172">
                            <path d="M18.610532,11.0099603 C17.541632,11.0689603 16.479132,11.3755603 15.509032,11.9338603 C12.922032,13.4222603 11.562432,16.3914603 12.126232,19.3224603 C12.690032,22.2532603 15.054432,24.5074603 18.009032,24.9299603 C19.719032,25.1744603 21.412232,24.7759603 22.798032,23.8810603 C22.9508168,23.7852937 23.0402093,23.6146869 23.0319854,23.4345569 C23.0237615,23.2544268 22.919195,23.0926753 22.7583195,23.011229 C22.5974439,22.9297827 22.4051783,22.9412575 22.255132,23.0412603 C21.066932,23.8084603 19.619232,24.1495603 18.151632,23.9396603 C15.615732,23.5771603 13.592532,21.6485603 13.108632,19.1330603 C12.624732,16.6174603 13.786632,14.0766603 16.007032,12.7990603 C18.134432,11.5751603 20.768332,11.7886603 22.684832,13.2873603 L20.960232,15.0021603 L24.964132,15.0161603 L24.974132,11.0122603 L23.401832,12.5767603 C22.313532,11.6945603 21.019432,11.1643603 19.681132,11.0337603 C19.326732,10.9987603 18.969132,10.9907603 18.612732,11.0107603 L18.610532,11.0099603 Z M18.973832,17.0002603 C18.4230715,17.0045521 17.9794673,17.4533874 17.981632,18.0041603 C17.98378,18.5549214 18.4308667,19.0002644 18.981632,19.0002603 C19.5331755,19.0002612 19.980584,18.5537029 19.981632,18.0021603 C19.9826879,17.4514305 19.5382531,17.0035086 18.987532,17.0002603 L18.973532,17.0002603 L18.973832,17.0002603 Z"></path>
                        </g>
                    </g>
                </g>
            </g>
        </g>
    </g>
</svg>