<?xml version="1.0" encoding="UTF-8"?>
<svg width="48px" height="48px" viewBox="0 0 48 48" version="1.1" xmlns="http://www.w3.org/2000/svg" xmlns:xlink="http://www.w3.org/1999/xlink">
    <!-- Generator: Sketch 58 (84663) - https://sketch.com -->
    <title>contrarotate_press</title>
    <desc>Created with Sketch.</desc>
    <g id="深色主题" stroke="none" stroke-width="1" fill="none" fill-rule="evenodd" opacity="0.971">
        <g id="btn状态" transform="translate(-736.000000, -351.000000)">
            <g id="Group-20" transform="translate(736.000000, 351.000000)">
                <g id="Group-7">
                    <g id="contrarotate_press" transform="translate(4.000000, 6.000000)">
                        <path d="M0,8.00074125 C0,3.58205387 3.58493529,-3.06954487e-13 7.99845994,-3.06954487e-13 L32.0015401,-3.06954487e-13 C36.4189675,-3.06954487e-13 40,3.58343124 40,8.00074125 L40,27.9992587 C40,32.4179461 36.4150647,36 32.0015401,36 L7.99845994,36 C3.58103249,36 0,32.4165688 0,27.9992587 L0,8.00074125 Z" id="rect34160" fill-opacity="0.5" fill="#000000" transform="translate(20.000000, 18.000000) scale(1, -1) translate(-20.000000, -18.000000) "></path>
                        <g transform="translate(2.000000, 0.000000)" fill="#0059D2" id="path34164">
                            <path d="M11,11.0001 L11,15.0001 L15,15.0001 L13.2988,13.2989 C15.2165,11.7896 17.8592,11.5737 19.9922,12.8009 C22.2126,14.0784 23.3764,16.6192 22.8925,19.1349 C22.4086,21.6504 20.3855,23.5789 17.8496,23.9415 C16.3819,24.1514 14.9323,23.8083 13.7441,23.0411 C13.5940631,22.9340352 13.3972932,22.9181894 13.2320571,22.9998654 C13.0668211,23.0815413 12.959914,23.2474942 12.9538592,23.431715 C12.9478044,23.6159357 13.0435836,23.7885503 13.2031,23.8809 C14.5889,24.7757 16.2822,25.1763 17.9922,24.9317 C20.9467,24.5093 23.3112,22.2552 23.875,19.3242 C24.4388,16.3933 23.0792,13.4221 20.4922,11.9337 C19.1986,11.1894 17.7378,10.8967 16.3203,11.0352 C14.9762,11.1664 13.6769,11.697 12.5859,12.586 L11,11 L11,11.0001 Z M17.0136,17.0001 C16.462096,17.0033498 16.0173396,17.4524906 16.0195,18.004 C16.021648,18.5547611 16.4687347,19.0001041 17.0195,19.0001 C17.5702653,19.0001041 18.017352,18.5547611 18.0195,18.004 C18.0216647,17.4532271 17.5780604,17.0043919 17.0273,17.0001 L17.0133,17.0001 L17.0136,17.0001 Z"></path>
                        </g>
                    </g>
                </g>
            </g>
        </g>
    </g>
</svg>