<?xml version="1.0" encoding="UTF-8"?>
<svg width="48px" height="48px" viewBox="0 0 48 48" version="1.1" xmlns="http://www.w3.org/2000/svg" xmlns:xlink="http://www.w3.org/1999/xlink">
    <!-- Generator: Sketch 58 (84663) - https://sketch.com -->
    <title>contrarotate_hover</title>
    <desc>Created with Sketch.</desc>
    <defs>
        <linearGradient x1="50%" y1="0%" x2="50%" y2="95.6533653%" id="linearGradient-1">
            <stop stop-color="#727272" offset="0%"></stop>
            <stop stop-color="#535353" offset="100%"></stop>
        </linearGradient>
        <path d="M0,8.00074125 C0,3.58205387 3.58493529,-3.06954487e-13 7.99845994,-3.06954487e-13 L32.0015401,-3.06954487e-13 C36.4189675,-3.06954487e-13 40,3.58343124 40,8.00074125 L40,27.9992587 C40,32.4179461 36.4150647,36 32.0015401,36 L7.99845994,36 C3.58103249,36 0,32.4165688 0,27.9992587 L0,8.00074125 Z" id="path-2"></path>
        <filter x="-17.5%" y="-13.9%" width="135.0%" height="138.9%" filterUnits="objectBoundingBox" id="filter-3">
            <feOffset dx="0" dy="2" in="SourceAlpha" result="shadowOffsetOuter1"></feOffset>
            <feGaussianBlur stdDeviation="2" in="shadowOffsetOuter1" result="shadowBlurOuter1"></feGaussianBlur>
            <feComposite in="shadowBlurOuter1" in2="SourceAlpha" operator="out" result="shadowBlurOuter1"></feComposite>
            <feColorMatrix values="0 0 0 0 0   0 0 0 0 0   0 0 0 0 0  0 0 0 0.05 0" type="matrix" in="shadowBlurOuter1"></feColorMatrix>
        </filter>
    </defs>
    <g id="深色主题" stroke="none" stroke-width="1" fill="none" fill-rule="evenodd" opacity="0.971">
        <g id="btn状态" transform="translate(-406.000000, -351.000000)">
            <g id="Group-20" transform="translate(406.000000, 351.000000)">
                <g id="Group-7">
                    <g id="contrarotate_hover" transform="translate(4.000000, 6.000000)">
                        <g>
                            <g id="rect34160">
                                <use fill="black" fill-opacity="1" filter="url(#filter-3)" xlink:href="#path-2"></use>
                                <use fill-opacity="0.08" fill="#000000" fill-rule="evenodd" xlink:href="#path-2"></use>
                                <path stroke-opacity="0.03" stroke="#FFFFFF" stroke-width="1" d="M0.5,8.00074125 L0.5,27.9992587 C0.5,32.1409473 3.85769562,35.5 7.99845994,35.5 L32.0015401,35.5 C36.140276,35.5 39.5,32.1404501 39.5,27.9992587 L39.5,8.00074125 C39.5,3.85905269 36.1423044,0.5 32.0015401,0.5 L7.99845994,0.5 C3.85972395,0.5 0.5,3.85954989 0.5,8.00074125 Z" stroke-linejoin="square" fill="url(#linearGradient-1)" fill-rule="evenodd"></path>
                            </g>
                            <path d="M13,11.0001 L13,15.0001 L17,15.0001 L15.2988,13.2989 C17.2165,11.7896 19.8592,11.5737 21.9922,12.8009 C24.2126,14.0784 25.3764,16.6192 24.8925,19.1349 C24.4086,21.6504 22.3855,23.5789 19.8496,23.9415 C18.3819,24.1514 16.9323,23.8083 15.7441,23.0411 C15.5940631,22.9340352 15.3972932,22.9181894 15.2320571,22.9998654 C15.0668211,23.0815413 14.959914,23.2474942 14.9538592,23.431715 C14.9478044,23.6159357 15.0435836,23.7885503 15.2031,23.8809 C16.5889,24.7757 18.2822,25.1763 19.9922,24.9317 C22.9467,24.5093 25.3112,22.2552 25.875,19.3242 C26.4388,16.3933 25.0792,13.4221 22.4922,11.9337 C21.1986,11.1894 19.7378,10.8967 18.3203,11.0352 C16.9762,11.1664 15.6769,11.697 14.5859,12.586 L13,11 L13,11.0001 Z M19.0136,17.0001 C18.462096,17.0033498 18.0173396,17.4524906 18.0195,18.004 C18.021648,18.5547611 18.4687347,19.0001041 19.0195,19.0001 C19.5702653,19.0001041 20.017352,18.5547611 20.0195,18.004 C20.0216647,17.4532271 19.5780604,17.0043919 19.0273,17.0001 L19.0133,17.0001 L19.0136,17.0001 Z" id="path34164" fill="#FFFFFF"></path>
                        </g>
                    </g>
                </g>
            </g>
        </g>
    </g>
</svg>