<?xml version="1.0" encoding="UTF-8"?>
<svg width="48px" height="48px" viewBox="0 0 48 48" version="1.1" xmlns="http://www.w3.org/2000/svg" xmlns:xlink="http://www.w3.org/1999/xlink">
    <!-- Generator: Sketch 58 (84663) - https://sketch.com -->
    <title>flip horizontal_hover</title>
    <desc>Created with Sketch.</desc>
    <g id="深色主题" stroke="none" stroke-width="1" fill="none" fill-rule="evenodd" opacity="0.971">
        <g id="btn状态" transform="translate(-526.000000, -351.000000)" fill="#FFFFFF">
            <g id="Group-20" transform="translate(406.000000, 351.000000)">
                <g id="Group-18" transform="translate(120.000000, 0.000000)">
                    <g id="flip-horizontal_hover" transform="translate(4.000000, 6.000000)">
                        <g>
                            <rect id="rect34210" fill-opacity="0.1" x="0" y="0" width="40" height="36" rx="8"></rect>
                            <path d="M20.5535068,10.0000611 C20.4043215,10.0021269 20.26217,10.0567884 20.1583257,10.15202 C20.0544815,10.2472516 19.9974513,10.375252 19.9997818,10.5078611 L19.9997818,25.5410611 C19.9969146,25.721378 20.103495,25.8890992 20.2787117,25.9800014 C20.4539284,26.0709036 20.6706353,26.0709036 20.8458519,25.9800014 C21.0210686,25.8890992 21.127649,25.721378 21.1247818,25.5410611 L21.1247818,10.5078611 C21.12716,10.3725472 21.0677363,10.2421544 20.9600816,10.1464613 C20.8524269,10.0507683 20.705735,9.99794716 20.5535068,10.0000611 L20.5535068,10.0000611 Z M18.2947318,12.0312611 C18.0947603,12.0369257 17.9132206,12.1365721 17.8179568,12.2929611 L11.0679568,23.2929611 C10.9735125,23.4478753 10.9777599,23.6355387 11.0791373,23.786951 C11.1805147,23.9383634 11.364058,24.0311751 11.5622818,24.0312611 L18.3122818,24.0312611 C18.6229291,24.0312335 18.8747508,23.807392 18.8747818,23.5312611 L18.8747818,12.5312611 C18.8748402,12.3959096 18.8131691,12.2663184 18.7038566,12.1720916 C18.5945441,12.0778648 18.4469287,12.0270521 18.2947318,12.0312611 L18.2947318,12.0312611 Z M22.7969818,12.0312611 C22.4923255,12.0386561 22.2496987,12.2603545 22.2497818,12.5312611 L22.2497818,23.5312611 C22.2498129,23.807392 22.5016345,24.0312335 22.8122818,24.0312611 L29.5622818,24.0312611 C29.7605257,24.0312103 29.9441054,23.9384126 30.04551,23.786994 C30.1469147,23.6355753 30.1511731,23.447891 30.0567193,23.2929611 L23.3067193,12.2929611 C23.2058057,12.1273634 23.0087789,12.0262096 22.7969818,12.0312611 L22.7969818,12.0312611 Z M17.7497818,14.4940611 L17.7497818,23.0312611 L12.5115568,23.0312611 L17.7497818,14.4940611 L17.7497818,14.4940611 Z M23.3747818,14.4940611 L28.6131193,23.0312611 L23.3747818,23.0312611 L23.3747818,14.4940611 L23.3747818,14.4940611 Z" id="path34220"></path>
                        </g>
                    </g>
                </g>
            </g>
        </g>
    </g>
</svg>