<?xml version="1.0" encoding="UTF-8"?>
<svg width="48px" height="48px" viewBox="0 0 48 48" version="1.1" xmlns="http://www.w3.org/2000/svg" xmlns:xlink="http://www.w3.org/1999/xlink">
    <!-- Generator: Sketch 58 (84663) - https://sketch.com -->
    <title>flip vertical_hover</title>
    <desc>Created with Sketch.</desc>
    <g id="深色主题" stroke="none" stroke-width="1" fill="none" fill-rule="evenodd" opacity="0.971">
        <g id="btn状态" transform="translate(-586.000000, -351.000000)" fill="#FFFFFF">
            <g id="Group-20" transform="translate(406.000000, 351.000000)">
                <g id="Group-19" transform="translate(180.000000, 0.000000)">
                    <g id="flip-vertical_hover" transform="translate(4.000000, 6.000000)">
                        <g>
                            <rect id="rect34212" fill-opacity="0.1" x="0" y="0" width="40" height="36" rx="8"></rect>
                            <path d="M13.5337983,11.0000029 C13.2584096,11.0010767 13.0357237,11.2246121 13.0356983,11.5000029 L13.0356983,16.5000029 C13.0357259,16.7761338 13.2595673,16.9999753 13.5356983,17.0000029 L25.5356983,17.0000029 C25.7736706,16.9997923 25.9785269,16.8319045 26.0254772,16.5986095 C26.0724275,16.3653145 25.9484633,16.1312519 25.7290983,16.0390029 L13.7290983,11.0390029 C13.6672717,11.0130395 13.6008547,10.9997765 13.5337983,11.0000029 L13.5337983,11.0000029 Z M14.0356983,12.2481029 L23.0376983,16.0000029 L14.0356983,16.0000029 L14.0356983,12.2481029 L14.0356983,12.2481029 Z M11.4751983,18.0000029 C11.2965533,18.0090967 11.136332,18.1128115 11.0548951,18.2720748 C10.9734582,18.431338 10.9831795,18.6219504 11.0803965,18.7721023 C11.1776136,18.9222541 11.347555,19.0091307 11.5261983,19.0000029 L27.5593983,19.0000029 C27.7397152,19.0025514 27.9074363,18.9078133 27.9983386,18.7520652 C28.0892408,18.596317 28.0892408,18.4036887 27.9983386,18.2479405 C27.9074363,18.0921924 27.7397152,17.9974543 27.5593983,18.0000029 L11.5261983,18.0000029 C11.5092093,17.9991354 11.4921872,17.9991354 11.4751983,18.0000029 L11.4751983,18.0000029 Z M13.5356983,20.0000029 C13.2595673,20.0000304 13.0357259,20.2238719 13.0356983,20.5000029 L13.0356983,25.5000029 C13.0357508,25.6673648 13.1195263,25.823604 13.2588973,25.9162634 C13.3982682,26.0089228 13.5747534,26.0257153 13.7290983,25.9610029 L25.7290983,20.9610029 C25.9484633,20.8687538 26.0724275,20.6346912 26.0254772,20.4013962 C25.9785269,20.1681012 25.7736706,20.0002134 25.5356983,20.0000029 L13.5356983,20.0000029 L13.5356983,20.0000029 Z M14.0356983,21.0000029 L23.0376983,21.0000029 L14.0356983,24.7519029 L14.0356983,21.0000029 L14.0356983,21.0000029 Z" id="path34226"></path>
                        </g>
                    </g>
                </g>
            </g>
        </g>
    </g>
</svg>