<?xml version="1.0" encoding="UTF-8"?>
<svg width="36px" height="36px" viewBox="0 0 36 36" version="1.1" xmlns="http://www.w3.org/2000/svg" xmlns:xlink="http://www.w3.org/1999/xlink">
    <!-- Generator: Sketch 58 (84663) - https://sketch.com -->
    <title>flip vertical_normal</title>
    <desc>Created with Sketch.</desc>
    <g id="深色主题备份" stroke="none" stroke-width="1" fill="none" fill-rule="evenodd">
        <g id="btn状态" transform="translate(-252.000000, -357.000000)" fill="#C5CFE0">
            <g id="Group-20" transform="translate(70.000000, 357.000000)">
                <g id="flip-vertical_normal" transform="translate(180.000000, 0.000000)">
                    <g transform="translate(2.000000, 0.000000)" id="path34226">
                        <path d="M11.5337983,11.0000029 C11.2584096,11.0010767 11.0357237,11.2246121 11.0356983,11.5000029 L11.0356983,16.5000029 C11.0357259,16.7761338 11.2595673,16.9999753 11.5356983,17.0000029 L23.5356983,17.0000029 C23.7736706,16.9997923 23.9785269,16.8319045 24.0254772,16.5986095 C24.0724275,16.3653145 23.9484633,16.1312519 23.7290983,16.0390029 L11.7290983,11.0390029 C11.6672717,11.0130395 11.6008547,10.9997765 11.5337983,11.0000029 L11.5337983,11.0000029 Z M12.0356983,12.2481029 L21.0376983,16.0000029 L12.0356983,16.0000029 L12.0356983,12.2481029 L12.0356983,12.2481029 Z M9.47519827,18.0000029 C9.29655325,18.0090967 9.13633205,18.1128115 9.05489514,18.2720748 C8.97345823,18.431338 8.98317946,18.6219504 9.08039654,18.7721023 C9.17761362,18.9222541 9.34755499,19.0091307 9.52619827,19.0000029 L25.5593983,19.0000029 C25.7397152,19.0025514 25.9074363,18.9078133 25.9983386,18.7520652 C26.0892408,18.596317 26.0892408,18.4036887 25.9983386,18.2479405 C25.9074363,18.0921924 25.7397152,17.9974543 25.5593983,18.0000029 L9.52619827,18.0000029 C9.50920934,17.9991354 9.49218721,17.9991354 9.47519827,18.0000029 L9.47519827,18.0000029 Z M11.5356983,20.0000029 C11.2595673,20.0000304 11.0357259,20.2238719 11.0356983,20.5000029 L11.0356983,25.5000029 C11.0357508,25.6673648 11.1195263,25.823604 11.2588973,25.9162634 C11.3982682,26.0089228 11.5747534,26.0257153 11.7290983,25.9610029 L23.7290983,20.9610029 C23.9484633,20.8687538 24.0724275,20.6346912 24.0254772,20.4013962 C23.9785269,20.1681012 23.7736706,20.0002134 23.5356983,20.0000029 L11.5356983,20.0000029 L11.5356983,20.0000029 Z M12.0356983,21.0000029 L21.0376983,21.0000029 L12.0356983,24.7519029 L12.0356983,21.0000029 L12.0356983,21.0000029 Z"></path>
                    </g>
                </g>
            </g>
        </g>
    </g>
</svg>