<?xml version="1.0" encoding="UTF-8"?>
<svg width="36px" height="36px" viewBox="0 0 36 36" version="1.1" xmlns="http://www.w3.org/2000/svg" xmlns:xlink="http://www.w3.org/1999/xlink">
    <!-- Generator: Sketch 58 (84663) - https://sketch.com -->
    <title>smudge tool_press</title>
    <desc>Created with Sketch.</desc>
    <g id="深色主题" stroke="none" stroke-width="1" fill="none" fill-rule="evenodd">
        <g id="btn状态" transform="translate(-862.000000, -264.000000)">
            <g id="编组-6" transform="translate(772.000000, 264.000000)">
                <g id="smudge-tool_press" transform="translate(90.000000, 0.000000)">
                    <rect id="占位" fill-opacity="0.5" fill="#000000" x="0" y="0" width="36" height="36" rx="8"></rect>
                    <path d="M18,18 L18,27 L13,27 C10.790861,27 9,25.209139 9,23 L9,18 L18,18 Z M18,18 L18,9 L23,9 C25.209139,9 27,10.790861 27,13 L27,18 L18,18 Z" id="Combined-Shape" fill="#0081FF"></path>
                    <path d="M27,18 L27,23 C27,25.209139 25.209139,27 23,27 L18,27 L18,18 L27,18 Z M18,9 L18,18 L9,18 L9,13 C9,10.790861 10.790861,9 13,9 L18,9 Z" id="Combined-Shape" fill="#C5CFE0" opacity="0.12"></path>
                </g>
            </g>
        </g>
    </g>
</svg>