<?xml version="1.0" encoding="UTF-8"?>
<svg width="24px" height="24px" viewBox="0 0 24 24" version="1.1" xmlns="http://www.w3.org/2000/svg" xmlns:xlink="http://www.w3.org/1999/xlink">
    <!-- Generator: Sketch 48.1 (47250) - http://www.bohemiancoding.com/sketch -->
    <title>cut_active</title>
    <desc>Created with Sketch.</desc>
    <defs>
        <path d="M7.14215136,4.15195893 C7.04984534,4.24719053 6.99915183,4.37519092 7.0012234,4.5078 L7.0012234,7.0059 L4.5071234,7.0059 C4.32680493,7.00334908 4.1590814,7.0980867 4.06817774,7.2538358 C3.97727409,7.40958489 3.97727409,7.60221511 4.06817774,7.7579642 C4.1590814,7.9137133 4.32680493,8.00845092 4.5071234,8.0059 L6.9992234,8.0059 L6.9992234,16.5 C6.99925102,16.7761309 7.22309246,16.9999724 7.4992234,17 L17.9992234,17 L17.9992234,19.4942 C17.9966725,19.6745185 18.0914101,19.842242 18.2471592,19.9331457 C18.4029083,20.0240493 18.5955385,20.0240493 18.7512876,19.9331457 C18.9070367,19.842242 19.0017743,19.6745185 18.9992234,19.4942 L18.9992234,17 L21.4914234,17 C21.6717419,17.0025509 21.8394654,16.9078133 21.930369,16.7520642 C22.0212727,16.5963151 22.0212727,16.4036849 21.930369,16.2479358 C21.8394654,16.0921867 21.6717419,15.9974491 21.4914234,16 L18.9992234,16 L18.9992234,7.4981 C18.9991958,7.22196907 18.7753543,6.99812763 18.4992234,6.9981 L7.9992234,7.0081 L7.9992234,4.5099 C8.00139202,4.37455168 7.94859507,4.24410667 7.85289592,4.14836983 C7.75719677,4.05263299 7.62677255,3.99978468 7.4914234,4.0019 C7.36081423,4.00206584 7.23445738,4.05672732 7.14215136,4.15195893 Z" id="path-1"></path>
    </defs>
    <g id="浅色_图标整理" stroke="none" stroke-width="1" fill="none" fill-rule="evenodd" transform="translate(-764.000000, -297.000000)" opacity="0.971">
        <g id="hover-copy" transform="translate(696.000000, 77.000000)">
            <g id="cutting-normal" transform="translate(68.000000, 220.000000)">
                <rect id="rect34214" fill="#D8D8D8" opacity="0" transform="translate(12.000000, 12.000000) scale(1, -1) translate(-12.000000, -12.000000) " x="0" y="0" width="24" height="24" rx="1.7382798e-05"></rect>
                <g id="path34216">
                    <use fill="#2CA7F8" fill-rule="evenodd" xlink:href="#path-1"></use>
                    <path stroke="#2CA7F8" stroke-width="1" d="M7.2502234,7.5059 L7.0012234,7.5059 L4.50005074,7.50584998 C4.5000327,7.50584972 4.50001592,7.5058592 4.50000682,7.50587478 C4.49999773,7.50589036 4.49999773,7.50590964 4.50000682,7.50592522 C4.50001592,7.5059408 4.5000327,7.50595028 4.5071234,7.5059 L7.2502234,7.5059 Z M7.4992234,7.50723821 L7.4992234,8.0059 L7.49922339,16.49995 C7.4992234,16.4999776 7.49924579,16.5 7.4992234,16.5 L18.4992234,16.5 L18.4992234,16.75 L18.4992234,16.5 L18.7492234,16.5 L18.4992234,16.5 L18.4992234,16 L18.4992234,7.49815002 C18.4992234,7.4981224 18.499201,7.4981 18.4996996,7.49809977 L7.4992234,7.50857642 L7.4992234,7.50723821 Z M18.4992234,16.75 L18.4992234,17 L18.4991734,19.5012727 C18.4991731,19.5012907 18.4991826,19.5013075 18.4991982,19.5013166 C18.4992138,19.5013257 18.499233,19.5013257 18.4992486,19.5013166 C18.4992642,19.5013075 18.4992737,19.5012907 18.4992234,19.4942 L18.4992234,16.75 Z M18.7492234,16.5 L18.9992234,16.5 L21.4984961,16.50005 C21.4985141,16.5000503 21.4985309,16.5000408 21.49854,16.5000252 C21.4985491,16.5000096 21.4985491,16.4999904 21.49854,16.4999748 C21.4985309,16.4999592 21.4985141,16.4999497 21.4914234,16.5 L18.7492234,16.5 Z"></path>
                </g>
            </g>
        </g>
    </g>
</svg>