<?xml version="1.0" encoding="UTF-8"?>
<svg width="24px" height="24px" viewBox="0 0 24 24" version="1.1" xmlns="http://www.w3.org/2000/svg" xmlns:xlink="http://www.w3.org/1999/xlink">
    <!-- Generator: Sketch 48.1 (47250) - http://www.bohemiancoding.com/sketch -->
    <title>filp_Vertical_active</title>
    <desc>Created with Sketch.</desc>
    <defs>
        <path d="M6.53379827,5.00000285 C6.25840961,5.00107675 6.0357237,5.2246121 6.03569827,5.50000285 L6.03569827,10.5000029 C6.03572587,10.7761338 6.25956733,10.9999753 6.53569827,11.0000029 L18.5356983,11.0000029 C18.7736706,10.9997923 18.9785269,10.8319045 19.0254772,10.5986095 C19.0724275,10.3653145 18.9484633,10.1312519 18.7290983,10.0390029 L6.72909827,5.03900285 C6.66727174,5.01303946 6.60085472,4.99977646 6.53379827,5.00000285 L6.53379827,5.00000285 Z M4.47519827,12.0000029 C4.29655325,12.0090967 4.13633205,12.1128115 4.05489514,12.2720748 C3.97345823,12.431338 3.98317946,12.6219504 4.08039654,12.7721023 C4.17761362,12.9222541 4.34755499,13.0091307 4.52619827,13.0000029 L20.5593983,13.0000029 C20.7397152,13.0025514 20.9074363,12.9078133 20.9983386,12.7520652 C21.0892408,12.596317 21.0892408,12.4036887 20.9983386,12.2479405 C20.9074363,12.0921924 20.7397152,11.9974543 20.5593983,12.0000029 L4.52619827,12.0000029 C4.50920934,11.9991354 4.49218721,11.9991354 4.47519827,12.0000029 L4.47519827,12.0000029 Z M6.53569827,14.0000029 C6.25956733,14.0000304 6.03572587,14.2238719 6.03569827,14.5000029 L6.03569827,19.5000029 C6.0357508,19.6673648 6.1195263,19.823604 6.25889726,19.9162634 C6.39826821,20.0089228 6.57475345,20.0257153 6.72909827,19.9610029 L18.7290983,14.9610029 C18.9484633,14.8687538 19.0724275,14.6346912 19.0254772,14.4013962 C18.9785269,14.1681012 18.7736706,14.0002134 18.5356983,14.0000029 L6.53569827,14.0000029 L6.53569827,14.0000029 Z" id="path-1"></path>
    </defs>
    <g id="浅色_图标整理" stroke="none" stroke-width="1" fill="none" fill-rule="evenodd" transform="translate(-832.000000, -297.000000)" opacity="0.971">
        <g id="hover-copy" transform="translate(696.000000, 77.000000)">
            <g id="flip-vertical-normal" transform="translate(136.000000, 220.000000)">
                <rect id="rect34212" fill="#D8D8D8" opacity="0" x="-5.68434189e-14" y="0" width="24" height="24" rx="1.7382799e-05"></rect>
                <g id="path34226">
                    <use fill="#2CA7F8" fill-rule="evenodd" xlink:href="#path-1"></use>
                    <path stroke="#2CA7F8" stroke-width="1" d="M6.53569827,5.50008408 L6.53569827,10.4999529 C6.53569827,10.4999805 6.53572064,10.5000028 6.53569827,10.5000029 L18.535256,10.500003 C18.5352797,10.500003 18.5353002,10.4999862 18.5353049,10.4999629 C18.5353089,10.4999429 18.5353003,10.4999227 18.536251,10.5003165 L6.53569827,5.50008408 Z M4.50069573,12.4993523 L4.50061756,12.4993563 C4.50038568,12.4993681 4.50017772,12.4995027 4.50007202,12.4997094 C4.49996631,12.4999162 4.49997893,12.5001636 4.50010512,12.5003585 C4.5002313,12.5005533 4.50045188,12.5006661 4.52619827,12.5000029 L20.5664646,12.5000528 C20.5664826,12.500053 20.5664993,12.5000436 20.5665084,12.500028 C20.5665175,12.5000125 20.5665175,12.4999932 20.5665084,12.4999777 C20.5664993,12.4999621 20.5664826,12.4999527 20.5593983,12.5000029 L4.50069573,12.4993523 Z M6.53572326,14.5000028 L6.53574824,14.5000028 C6.53572064,14.5000029 6.53569827,14.5000252 6.53569827,14.5000029 L6.53569825,19.4998459 C6.53569825,19.4998626 6.53570663,19.4998783 6.53572055,19.4998875 C6.53573448,19.4998968 6.53575212,19.4998985 6.53679058,19.4994644 L18.5352753,14.5000987 C18.5352972,14.5000895 18.5353096,14.5000661 18.5353049,14.5000428 C18.5353002,14.5000195 18.5352797,14.5000027 18.5356983,14.5000029 L6.53572326,14.5000029 Z M6.53572326,14.5000029 L6.53569827,14.5000029 L6.53572326,14.5000028 Z"></path>
                </g>
            </g>
        </g>
    </g>
</svg>