<?xml version="1.0" encoding="UTF-8"?>
<svg width="24px" height="24px" viewBox="0 0 24 24" version="1.1" xmlns="http://www.w3.org/2000/svg" xmlns:xlink="http://www.w3.org/1999/xlink">
    <!-- Generator: Sketch 48.1 (47250) - http://www.bohemiancoding.com/sketch -->
    <title>rotate_left_normal</title>
    <desc>Created with Sketch.</desc>
    <defs></defs>
    <g id="浅色_图标整理" stroke="none" stroke-width="1" fill="none" fill-rule="evenodd" transform="translate(-49.000000, -297.000000)" opacity="0.971">
        <g id="contrarotate-normal" transform="translate(49.000000, 297.000000)">
            <rect id="rect34160" fill="#D8D8D8" opacity="0" transform="translate(12.000000, 12.000000) scale(1, -1) translate(-12.000000, -12.000000) " x="0" y="-3.41060542e-13" width="24" height="24" rx="1.7382798e-05"></rect>
            <path d="M6,5.0001 L6,9.0001 L10,9.0001 L8.2988,7.2989 C10.2165,5.7896 12.8592,5.5737 14.9922,6.8009 C17.2126,8.0784 18.3764,10.6192 17.8925,13.1349 C17.4086,15.6504 15.3855,17.5789 12.8496,17.9415 C11.3819,18.1514 9.9323,17.8083 8.7441,17.0411 C8.59406314,16.9340352 8.39729324,16.9181894 8.23205715,16.9998654 C8.06682105,17.0815413 7.95991402,17.2474942 7.9538592,17.431715 C7.94780438,17.6159357 8.04358364,17.7885503 8.2031,17.8809 C9.5889,18.7757 11.2822,19.1763 12.9922,18.9317 C15.9467,18.5093 18.3112,16.2552 18.875,13.3242 C19.4388,10.3933 18.0792,7.4221 15.4922,5.9337 C14.1986,5.1894 12.7378,4.8967 11.3203,5.0352 C9.9762,5.1664 8.6769,5.697 7.5859,6.586 L6,5 L6,5.0001 Z M12.0136,11.0001 C11.462096,11.0033498 11.0173396,11.4524906 11.0195,12.004 C11.021648,12.5547611 11.4687347,13.0001041 12.0195,13.0001 C12.5702653,13.0001041 13.017352,12.5547611 13.0195,12.004 C13.0216647,11.4532271 12.5780604,11.0043919 12.0273,11.0001 L12.0133,11.0001 L12.0136,11.0001 Z" id="path34164" fill="#303030"></path>
        </g>
    </g>
</svg>