<?xml version="1.0" encoding="UTF-8"?>
<svg width="24px" height="24px" viewBox="0 0 24 24" version="1.1" xmlns="http://www.w3.org/2000/svg" xmlns:xlink="http://www.w3.org/1999/xlink">
    <!-- Generator: Sketch 48.1 (47250) - http://www.bohemiancoding.com/sketch -->
    <title>rotate_right_normal</title>
    <desc>Created with Sketch.</desc>
    <defs></defs>
    <g id="浅色_图标整理" stroke="none" stroke-width="1" fill="none" fill-rule="evenodd" transform="translate(-83.000000, -297.000000)" opacity="0.971">
        <g id="clockwise-rotation-normal" transform="translate(83.000000, 297.000000)">
            <rect id="rect34162" fill="#D8D8D8" opacity="0" x="0" y="0" width="24" height="24" rx="1.7382799e-05"></rect>
            <path d="M12.610532,5.00996028 C11.541632,5.06896028 10.479132,5.37556028 9.50903195,5.93386028 C6.92203195,7.42226028 5.56243195,10.3914603 6.12623195,13.3224603 C6.69003195,16.2532603 9.05443195,18.5074603 12.009032,18.9299603 C13.719032,19.1744603 15.412232,18.7759603 16.798032,17.8810603 C16.9508168,17.7852937 17.0402093,17.6146869 17.0319854,17.4345569 C17.0237615,17.2544268 16.919195,17.0926753 16.7583195,17.011229 C16.5974439,16.9297827 16.4051783,16.9412575 16.255132,17.0412603 C15.066932,17.8084603 13.619232,18.1495603 12.151632,17.9396603 C9.61573195,17.5771603 7.59253195,15.6485603 7.10863195,13.1330603 C6.62473195,10.6174603 7.78663195,8.07666028 10.007032,6.79906028 C12.134432,5.57516028 14.768332,5.78866028 16.684832,7.28736028 L14.960232,9.00216028 L18.964132,9.01616028 L18.974132,5.01226028 L17.401832,6.57676028 C16.313532,5.69456028 15.019432,5.16436028 13.681132,5.03376028 C13.326732,4.99876028 12.969132,4.99076028 12.612732,5.01076028 L12.610532,5.00996028 Z M12.973832,11.0002603 C12.4230715,11.0045521 11.9794673,11.4533874 11.981632,12.0041603 C11.98378,12.5549214 12.4308667,13.0002644 12.981632,13.0002603 C13.5331755,13.0002612 13.980584,12.5537029 13.981632,12.0021603 C13.9826879,11.4514305 13.5382531,11.0035086 12.987532,11.0002603 L12.973532,11.0002603 L12.973832,11.0002603 Z" id="path34172" fill="#303030"></path>
        </g>
    </g>
</svg>