<?xml version="1.0" encoding="UTF-8"?>
<svg width="24px" height="24px" viewBox="0 0 24 24" version="1.1" xmlns="http://www.w3.org/2000/svg" xmlns:xlink="http://www.w3.org/1999/xlink">
    <!-- Generator: Sketch 48.1 (47250) - http://www.bohemiancoding.com/sketch -->
    <title>rotate_left_active</title>
    <desc>Created with Sketch.</desc>
    <defs>
        <path d="M6,5.0001 L6,9.0001 L10,9.0001 L8.2988,7.2989 C10.2165,5.7896 12.8592,5.5737 14.9922,6.8009 C17.2126,8.0784 18.3764,10.6192 17.8925,13.1349 C17.4086,15.6504 15.3855,17.5789 12.8496,17.9415 C11.3819,18.1514 9.9323,17.8083 8.7441,17.0411 C8.59406314,16.9340352 8.39729324,16.9181894 8.23205715,16.9998654 C8.06682105,17.0815413 7.95991402,17.2474942 7.9538592,17.431715 C7.94780438,17.6159357 8.04358364,17.7885503 8.2031,17.8809 C9.5889,18.7757 11.2822,19.1763 12.9922,18.9317 C15.9467,18.5093 18.3112,16.2552 18.875,13.3242 C19.4388,10.3933 18.0792,7.4221 15.4922,5.9337 C14.1986,5.1894 12.7378,4.8967 11.3203,5.0352 C9.9762,5.1664 8.6769,5.697 7.5859,6.586 L6,5 L6,5.0001 Z M12.0077,10.0001 C10.9046963,10.0065995 10.015187,10.9048813 10.0195078,12.0079 C10.0238039,13.1094221 10.9179738,14.0001083 12.0195,14.0001 C13.1210262,14.0001083 14.015196,13.1094221 14.0194921,12.0079 C14.0238215,10.9063542 13.1366164,10.0086837 12.0350999,10.0001 L12.0071,10.0001 L12.0077,10.0001 Z" id="path-1"></path>
    </defs>
    <g id="浅色_图标整理" stroke="none" stroke-width="1" fill="none" fill-rule="evenodd" transform="translate(-696.000000, -297.000000)" opacity="0.971">
        <g id="hover-copy" transform="translate(696.000000, 77.000000)">
            <g id="contrarotate-normal" transform="translate(0.000000, 220.000000)">
                <rect id="rect34160" fill="#D8D8D8" opacity="0" transform="translate(12.000000, 12.000000) scale(1, -1) translate(-12.000000, -12.000000) " x="0" y="-3.41060542e-13" width="24" height="24" rx="1.7382798e-05"></rect>
                <g id="path34164">
                    <use fill="#2CA7F8" fill-rule="evenodd" xlink:href="#path-1"></use>
                    <path stroke="#2CA7F8" stroke-width="1" d="M6.5,6.2071606 L6.5,8.5001 L8.79289322,8.5001 L7.55166556,7.25887234 L7.55165447,7.25888138 L6.5,6.2071606 Z M7.84771125,7.01763988 L7.9895681,6.90599335 C10.0768389,5.26323494 12.9414721,5.04418612 15.2415485,6.36751181 C16.537181,7.11294981 17.500686,8.25551765 18.032062,9.5769582 C17.499675,8.25511822 16.53647,7.11135639 15.2428436,6.36708364 C14.0623664,5.68787122 12.7097531,5.40182139 11.368875,5.53283487 C10.1124976,5.65547212 8.90835231,6.15337782 7.90174438,6.97361105 L7.84771125,7.01763988 Z M18.4957531,11.7361986 C18.51571,12.2291131 18.4796067,12.7297011 18.3834978,13.2293519 C18.2731743,13.8028564 18.088985,14.3482009 17.8413015,14.8554983 C18.0893553,14.3481286 18.2737571,13.8028742 18.3840019,13.2297496 C18.4800885,12.7302459 18.5160052,12.2294805 18.4957531,11.7361986 Z M17.8413015,14.8554983 C17.4961123,15.5625034 17.0275973,16.1956087 16.4638318,16.7280496 C17.0270836,16.1950118 17.4959002,15.5619824 17.8413015,14.8554982 Z M8.45693461,17.4502098 C8.45584572,17.4495071 8.45475699,17.448804 8.45366842,17.4481006 C8.45365341,17.4480899 8.45363372,17.4480883 8.45361719,17.4480965 C8.45360066,17.4481047 8.45358996,17.4481213 8.45358936,17.4481397 C8.45358903,17.4481497 8.45359171,17.4481594 8.45693461,17.4502098 Z M12.009277,10.5001 C12.0097333,10.5000969 12.0101898,10.500094 12.0106462,10.5000913 L12.0077,9.5001 L12.0071,9.5001 L12.0071,10.0001 L12.0071,10.5001 L12.009277,10.5001 Z"></path>
                </g>
            </g>
        </g>
    </g>
</svg>