<?xml version="1.0" encoding="UTF-8"?>
<svg width="24px" height="24px" viewBox="0 0 24 24" version="1.1" xmlns="http://www.w3.org/2000/svg" xmlns:xlink="http://www.w3.org/1999/xlink">
    <!-- Generator: Sketch 48.1 (47250) - http://www.bohemiancoding.com/sketch -->
    <title>rotate_right_active</title>
    <desc>Created with Sketch.</desc>
    <defs>
        <path d="M12.610532,5.00996028 C11.541632,5.06896028 10.479132,5.37556028 9.50903195,5.93386028 C6.92203195,7.42226028 5.56243195,10.3914603 6.12623195,13.3224603 C6.69003195,16.2532603 9.05443195,18.5074603 12.009032,18.9299603 C13.719032,19.1744603 15.412232,18.7759603 16.798032,17.8810603 C16.9508168,17.7852937 17.0402093,17.6146869 17.0319854,17.4345569 C17.0237615,17.2544268 16.919195,17.0926753 16.7583195,17.011229 C16.5974439,16.9297827 16.4051783,16.9412575 16.255132,17.0412603 C15.066932,17.8084603 13.619232,18.1495603 12.151632,17.9396603 C9.61573195,17.5771603 7.59253195,15.6485603 7.10863195,13.1330603 C6.62473195,10.6174603 7.78663195,8.07666028 10.007032,6.79906028 C12.134432,5.57516028 14.768332,5.78866028 16.684832,7.28736028 L14.960232,9.00216028 L18.964132,9.01616028 L18.974132,5.01226028 L17.401832,6.57676028 C16.313532,5.69456028 15.019432,5.16436028 13.681132,5.03376028 C13.326732,4.99876028 12.969132,4.99076028 12.612732,5.01076028 L12.610532,5.00996028 Z M12.966035,10.0002603 C11.8645169,10.008844 10.9773105,10.9065145 10.9816398,12.0080603 C10.9859359,13.1095824 11.8801071,14.0002685 12.981635,14.0002603 C14.0847194,14.0002622 14.9795341,13.1071455 14.9816301,12.0040603 C14.9837419,10.9026008 14.0948746,10.006757 12.9934349,10.0002603 L12.965435,10.0002603 L12.966035,10.0002603 Z" id="path-1"></path>
    </defs>
    <g id="浅色_图标整理" stroke="none" stroke-width="1" fill="none" fill-rule="evenodd" transform="translate(-730.000000, -297.000000)" opacity="0.971">
        <g id="hover-copy" transform="translate(696.000000, 77.000000)">
            <g id="clockwise-rotation-normal" transform="translate(34.000000, 220.000000)">
                <rect id="rect34162" fill="#D8D8D8" opacity="0" x="0" y="0" width="24" height="24" rx="1.7382799e-05"></rect>
                <g id="path34172">
                    <use fill="#2CA7F8" fill-rule="evenodd" xlink:href="#path-1"></use>
                    <path stroke="#2CA7F8" stroke-width="1" d="M12.6362008,5.50930481 C12.0519229,5.54172689 11.4751048,5.65346689 10.9200769,5.84167338 C12.9627008,5.15444688 15.2467358,5.52804275 16.992837,6.89349115 L17.1545091,7.0199185 L17.0869752,6.96517402 C16.0804877,6.14929301 14.8804335,5.65317104 13.6319918,5.53133966 C13.3016716,5.49871776 12.9698808,5.49150491 12.6407462,5.50997486 L12.6362008,5.50930481 Z M6.50090387,12.1068006 C6.50701889,12.4787672 6.54523375,12.8537262 6.61722944,13.2280068 C6.87472212,14.5665302 7.53672622,15.753058 8.46941562,16.6599899 C7.53664187,15.7541327 6.87544249,14.5676999 6.61763347,13.2275086 C6.54564048,12.8532462 6.50728126,12.478472 6.50090387,12.1068006 Z M14.856036,18.2299619 C15.4294173,18.0589991 15.9800274,17.8086338 16.4918983,17.4834011 C15.981082,17.8087124 15.4310192,18.0592085 14.8576306,18.2302029 Z M16.4918983,17.4834011 C16.5054536,17.4747884 16.5189817,17.4661231 16.5324823,17.4574055 C16.5324976,17.4573959 16.5325065,17.4573788 16.5325057,17.4573608 C16.5325049,17.4573428 16.5324944,17.4573266 16.5324783,17.4573185 C16.5324622,17.4573103 16.532443,17.4573115 16.52635,17.4613088 C16.5148861,17.4687108 16.5034022,17.476075 16.4918983,17.4834011 Z M17.4345928,7.24696051 L16.1679756,8.50638021 L18.4653835,8.51441331 L18.4711186,6.21813322 L17.4360086,7.2481082 L17.4345928,7.24696051 Z M12.9681204,10.5002603 C12.9687239,10.5002549 12.9693275,10.5002498 12.9699312,10.5002451 L12.966035,9.50026028 L12.965435,9.50026028 L12.965435,10.5002603 L12.9681204,10.5002603 Z"></path>
                </g>
            </g>
        </g>
    </g>
</svg>