<?xml version="1.0" encoding="UTF-8"?>
<svg width="24px" height="24px" viewBox="0 0 24 24" version="1.1" xmlns="http://www.w3.org/2000/svg" xmlns:xlink="http://www.w3.org/1999/xlink">
    <!-- Generator: Sketch 48.1 (47250) - http://www.bohemiancoding.com/sketch -->
    <title>color_more_hover</title>
    <desc>Created with Sketch.</desc>
    <defs>
        <linearGradient x1="50%" y1="0%" x2="50%" y2="96.8191964%" id="linearGradient-1">
            <stop stop-color="#8CCFFF" offset="0%"></stop>
            <stop stop-color="#4BB8FF" offset="100%"></stop>
        </linearGradient>
        <rect id="path-2" x="0" y="0" width="24" height="24" rx="4"></rect>
        <filter x="-8.3%" y="-4.2%" width="116.7%" height="116.7%" filterUnits="objectBoundingBox" id="filter-3">
            <feOffset dx="0" dy="1" in="SourceAlpha" result="shadowOffsetOuter1"></feOffset>
            <feGaussianBlur stdDeviation="0.5" in="shadowOffsetOuter1" result="shadowBlurOuter1"></feGaussianBlur>
            <feComposite in="shadowBlurOuter1" in2="SourceAlpha" operator="out" result="shadowBlurOuter1"></feComposite>
            <feColorMatrix values="0 0 0 0 0   0 0 0 0 0   0 0 0 0 0  0 0 0 0.05 0" type="matrix" in="shadowBlurOuter1"></feColorMatrix>
        </filter>
        <linearGradient x1="73.9405417%" y1="21.0502017%" x2="23.5665541%" y2="80.151846%" id="linearGradient-4">
            <stop stop-color="#7366FF" offset="0%"></stop>
            <stop stop-color="#1696FF" offset="100%"></stop>
        </linearGradient>
        <path d="M3.91185699,1.12200046 L5.35227781,3.61688252 C4.64297654,4.04627209 4.04627209,4.64297654 3.61688252,5.35227781 L1.12200046,3.91185699 C1.80470019,2.76573599 2.76573599,1.80470019 3.91185699,1.12200046 Z" id="path-5"></path>
        <linearGradient x1="100%" y1="50%" x2="20.3050981%" y2="50%" id="linearGradient-6">
            <stop stop-color="#8D47FF" offset="0%"></stop>
            <stop stop-color="#6671FF" offset="100%"></stop>
        </linearGradient>
        <path d="M4.19000896,0.963773817 C5.32277982,0.349102399 6.62062129,0 8,0 L8,2.88 C7.14527236,2.88 6.33946224,3.08944082 5.63109099,3.45980111 L4.19000896,0.963773817 Z" id="path-7"></path>
        <linearGradient x1="18.7656306%" y1="112.692433%" x2="50%" y2="18.5205781%" id="linearGradient-8">
            <stop stop-color="#30CED6" offset="0%"></stop>
            <stop stop-color="#28BCE3" offset="31.5643564%"></stop>
            <stop stop-color="#1696FF" offset="100%"></stop>
        </linearGradient>
        <path d="M0.963773817,4.19000896 L3.45980111,5.63109099 C3.08944082,6.33946224 2.88,7.14527236 2.88,8 L0,8 C2.84217094e-16,6.62062129 0.349102399,5.32277982 0.963773817,4.19000896 Z" id="path-9"></path>
        <linearGradient x1="26.0734877%" y1="100%" x2="12.9863394%" y2="-7.14068833%" id="linearGradient-10">
            <stop stop-color="#7EE22C" offset="0%"></stop>
            <stop stop-color="#30D6B2" offset="100%"></stop>
        </linearGradient>
        <path d="M0.00628303537,8.32 L2.88983743,8.32 C2.94122271,9.15327244 3.19191576,9.93261732 3.59483126,10.6109493 L1.10015821,12.0512495 C0.451683003,10.9491859 0.0597069676,9.67808506 0.00628303537,8.32 Z" id="path-11"></path>
        <linearGradient x1="79.2169682%" y1="71.3674314%" x2="22.4673516%" y2="22.1234878%" id="linearGradient-12">
            <stop stop-color="#C1EA55" offset="0%"></stop>
            <stop stop-color="#74E126" offset="100%"></stop>
        </linearGradient>
        <path d="M1.26799567,12.3238526 L3.76693696,10.8810882 C4.21092067,11.5321533 4.80118524,12.0754993 5.49043193,12.4638275 L4.05013174,14.9585006 C2.9234702,14.3175932 1.96766781,13.4109535 1.26799567,12.3238526 Z" id="path-13"></path>
        <linearGradient x1="100%" y1="50%" x2="16.9025545%" y2="50%" id="linearGradient-14">
            <stop stop-color="#FBEF4D" offset="0%"></stop>
            <stop stop-color="#B9EA56" offset="100%"></stop>
        </linearGradient>
        <path d="M4.33149168,15.1111709 L5.7742647,12.6122148 C6.44728155,12.9375926 7.202339,13.12 8,13.12 L8,16 C6.67770741,16 5.4303428,15.6791951 4.33149168,15.1111709 Z" id="path-15"></path>
        <linearGradient x1="77.7195811%" y1="30.6807362%" x2="-7.12363596%" y2="61.2644471%" id="linearGradient-16">
            <stop stop-color="#FFD600" offset="0%"></stop>
            <stop stop-color="#FFED58" offset="100%"></stop>
        </linearGradient>
        <path d="M8.32,15.993717 L8.32,13.1101626 C9.09698788,13.0622482 9.82708737,12.8410417 10.4721245,12.4847172 L11.9125455,14.9795995 C10.8430553,15.58041 9.62146917,15.9425202 8.32,15.993717 Z" id="path-17"></path>
        <linearGradient x1="74.5321316%" y1="18.9772162%" x2="23.7979283%" y2="80.4040297%" id="linearGradient-18">
            <stop stop-color="#FFC134" offset="0%"></stop>
            <stop stop-color="#FBE04D" offset="100%"></stop>
        </linearGradient>
        <path d="M12.188352,14.8173103 L10.7472716,12.3212858 C11.3799778,11.918201 11.918201,11.3799778 12.3212858,10.7472716 L14.8173103,12.188352 C14.1593229,13.2570677 13.2570677,14.1593229 12.188352,14.8173103 Z" id="path-19"></path>
        <linearGradient x1="61.4537126%" y1="95.2866854%" x2="84.0807769%" y2="-4.7725386%" id="linearGradient-20">
            <stop stop-color="#F5B543" offset="0%"></stop>
            <stop stop-color="#EF7640" offset="100%"></stop>
        </linearGradient>
        <path d="M14.9795995,11.9125455 L12.4847172,10.4721245 C12.8410417,9.82708737 13.0622482,9.09698788 13.1101626,8.32 L15.993717,8.32 C15.9425197,9.62147071 15.5804097,10.843056 14.9795995,11.9125455 Z" id="path-21"></path>
        <linearGradient x1="50%" y1="112.679845%" x2="32.704457%" y2="28.6945141%" id="linearGradient-22">
            <stop stop-color="#EF7640" offset="0%"></stop>
            <stop stop-color="#FB563F" offset="100%"></stop>
        </linearGradient>
        <path d="M16,8 L13.12,8 C13.12,7.202339 12.9375926,6.44728155 12.6122148,5.7742647 L15.1111709,4.33149168 C15.6791951,5.4303428 16,6.67770741 16,8 Z" id="path-23"></path>
        <linearGradient x1="72.1738741%" y1="87.8524752%" x2="17.2142262%" y2="25.9630097%" id="linearGradient-24">
            <stop stop-color="#FB563F" offset="0%"></stop>
            <stop stop-color="#DA377B" offset="100%"></stop>
        </linearGradient>
        <path d="M14.9585006,4.05013174 L12.4638275,5.49043193 C12.0754993,4.80118524 11.5321533,4.21092067 10.8810882,3.76693696 L12.3238526,1.26799567 C13.4109535,1.96766781 14.3175932,2.9234702 14.9585006,4.05013174 Z" id="path-25"></path>
        <linearGradient x1="88.1678911%" y1="50%" x2="-9.28071388%" y2="37.7200704%" id="linearGradient-26">
            <stop stop-color="#DA377B" offset="0%"></stop>
            <stop stop-color="#894CEC" offset="100%"></stop>
        </linearGradient>
        <path d="M12.0512495,1.10015821 L10.6109493,3.59483126 C9.93261732,3.19191576 9.15327244,2.94122271 8.32,2.88983743 L8.32,0.00628303537 C9.6780866,0.0597074425 10.9491865,0.451683396 12.0512495,1.10015821 Z" id="path-27"></path>
    </defs>
    <g id="浅色_图标整理" stroke="none" stroke-width="1" fill="none" fill-rule="evenodd" transform="translate(-403.000000, -209.000000)">
        <g id="more_color" transform="translate(403.000000, 209.000000)">
            <g id="Rectangle-596">
                <use fill="black" fill-opacity="1" filter="url(#filter-3)" xlink:href="#path-2"></use>
                <use fill="url(#linearGradient-1)" fill-rule="evenodd" xlink:href="#path-2"></use>
                <rect stroke-opacity="0.2" stroke="#0076F3" stroke-width="1" x="0.5" y="0.5" width="23" height="23" rx="4"></rect>
            </g>
            <g id="Group-4" transform="translate(4.000000, 4.000000)">
                <g id="Path">
                    <use fill="url(#linearGradient-4)" fill-rule="evenodd" xlink:href="#path-5"></use>
                    <path stroke="#FFFFFF" stroke-width="1" d="M4.09144021,0.433047724 L6.03015371,3.79099801 L5.61121254,4.04461234 C4.97097922,4.43219027 4.43219027,4.97097922 4.04461234,5.61121254 L3.79099801,6.03015371 L0.433047724,4.09144021 L0.692433912,3.65598089 C1.41768699,2.43842104 2.43842104,1.41768699 3.65598089,0.692433912 L4.09144021,0.433047724 Z"></path>
                </g>
                <g id="Path">
                    <use fill="url(#linearGradient-6)" fill-rule="evenodd" xlink:href="#path-7"></use>
                    <path stroke="#FFFFFF" stroke-width="1" d="M3.95154134,0.524304598 C5.18423455,-0.144587327 6.56699127,-0.5 8,-0.5 L8.5,-0.5 L8.5,3.38 L8,3.38 C7.24476978,3.38 6.51666508,3.56100837 5.8627551,3.90289449 L5.43782838,4.12506045 L3.50029878,0.769160743 L3.95154134,0.524304598 Z"></path>
                </g>
                <g id="Path">
                    <use fill="url(#linearGradient-8)" fill-rule="evenodd" xlink:href="#path-9"></use>
                    <path stroke="#FFFFFF" stroke-width="1" d="M0.769160743,3.50029878 L4.12506045,5.43782838 L3.90289449,5.8627551 C3.56100837,6.51666508 3.38,7.24476978 3.38,8 L3.38,8.5 L-0.5,8.5 L-0.5,8 C-0.5,6.56699127 -0.144587327,5.18423455 0.524304598,3.95154134 L0.769160743,3.50029878 Z"></path>
                </g>
                <g id="Path">
                    <use fill="url(#linearGradient-10)" fill-rule="evenodd" xlink:href="#path-11"></use>
                    <path stroke="#FFFFFF" stroke-width="1" d="M-0.513772525,7.82 L3.35995382,7.82 L3.38888944,8.28922504 C3.43435201,9.02645386 3.65359347,9.73080149 4.02471526,10.3556069 L4.28323915,10.7908471 L0.920708277,12.7322052 L0.669225715,12.3048184 C-0.0353819931,11.1073593 -0.437742625,9.75274937 -0.49333055,8.33965365 L-0.513772525,7.82 Z"></path>
                </g>
                <g id="Path">
                    <use fill="url(#linearGradient-12)" fill-rule="evenodd" xlink:href="#path-13"></use>
                    <path stroke="#FFFFFF" stroke-width="1" d="M0.563558751,12.1532092 L3.91867388,10.2161326 L4.18002828,10.599387 C4.58162128,11.1882897 5.11501089,11.6784149 5.73586349,12.0282092 L6.17608822,12.276236 L4.23473802,15.6387532 L3.8029058,15.3931031 C2.60755215,14.7131198 1.59178087,13.7507877 0.847551026,12.5944562 L0.563558751,12.1532092 Z"></path>
                </g>
                <g id="Path">
                    <use fill="url(#linearGradient-14)" fill-rule="evenodd" xlink:href="#path-15"></use>
                    <path stroke="#FFFFFF" stroke-width="1" d="M3.63657438,15.314803 L5.57357439,11.9598206 L5.99189583,12.1620629 C6.61245231,12.4620781 7.29448265,12.62 8,12.62 L8.5,12.62 L8.5,16.5 L8,16.5 C6.62552231,16.5 5.29690823,16.173072 4.1018909,15.555337 L3.63657438,15.314803 Z"></path>
                </g>
                <g id="Path">
                    <use fill="url(#linearGradient-16)" fill-rule="evenodd" xlink:href="#path-17"></use>
                    <path stroke="#FFFFFF" stroke-width="1" d="M7.82,16.5137725 L7.82,12.6400462 L8.28922504,12.6111106 C8.97723518,12.5686832 9.63681852,12.3749309 10.230356,12.0470552 L10.65982,11.8098153 L12.5985161,15.1677354 L12.1574353,15.4155227 C10.9960226,16.0679728 9.69453326,16.4400327 8.33965365,16.4933305 L7.82,16.5137725 Z"></path>
                </g>
                <g id="Path">
                    <use fill="url(#linearGradient-18)" fill-rule="evenodd" xlink:href="#path-19"></use>
                    <path stroke="#FFFFFF" stroke-width="1" d="M12.0125088,15.5127409 L10.0749377,12.1567694 L10.4786187,11.8995921 C11.0497497,11.5357356 11.5357356,11.0497497 11.8995921,10.4786187 L12.1567694,10.0749377 L15.5127409,12.0125088 L15.2430832,12.450492 C14.5440979,13.5857974 13.5857974,14.5440979 12.450492,15.2430832 L12.0125088,15.5127409 Z"></path>
                </g>
                <g id="Path">
                    <use fill="url(#linearGradient-20)" fill-rule="evenodd" xlink:href="#path-21"></use>
                    <path stroke="#FFFFFF" stroke-width="1" d="M15.1677354,12.5985161 L11.8098153,10.65982 L12.0470552,10.230356 C12.3749309,9.63681852 12.5686832,8.97723518 12.6111106,8.28922504 L12.6400462,7.82 L16.5137727,7.82 L16.4933305,8.3396538 C16.4400322,9.6945346 16.0679725,10.996023 15.4155227,12.1574353 L15.1677354,12.5985161 Z"></path>
                </g>
                <g id="Path">
                    <use fill="url(#linearGradient-22)" fill-rule="evenodd" xlink:href="#path-23"></use>
                    <path stroke="#FFFFFF" stroke-width="1" d="M16.5,8.5 L12.62,8.5 L12.62,8 C12.62,7.29448265 12.4620781,6.61245231 12.1620629,5.99189583 L11.9598206,5.57357439 L15.314803,3.63657438 L15.555337,4.1018909 C16.173072,5.29690823 16.5,6.62552231 16.5,8 L16.5,8.5 Z"></path>
                </g>
                <g id="Path">
                    <use fill="url(#linearGradient-24)" fill-rule="evenodd" xlink:href="#path-25"></use>
                    <path stroke="#FFFFFF" stroke-width="1" d="M15.6387532,4.23473802 L12.276236,6.17608822 L12.0282092,5.73586349 C11.6784149,5.11501089 11.1882897,4.58162128 10.599387,4.18002828 L10.2161326,3.91867388 L12.1532092,0.563558751 L12.5944562,0.847551026 C13.7507877,1.59178087 14.7131198,2.60755215 15.3931031,3.8029058 L15.6387532,4.23473802 Z"></path>
                </g>
                <g id="Path">
                    <use fill="url(#linearGradient-26)" fill-rule="evenodd" xlink:href="#path-27"></use>
                    <path stroke="#FFFFFF" stroke-width="1" d="M12.7322052,0.920708277 L10.7908471,4.28323915 L10.3556069,4.02471526 C9.73080149,3.65359347 9.02645386,3.43435201 8.28922504,3.38888944 L7.82,3.35995382 L7.82,-0.513772683 L8.3396538,-0.493330544 C9.7527507,-0.437742141 11.1073598,-0.0353817194 12.3048184,0.669225715 L12.7322052,0.920708277 Z"></path>
                </g>
            </g>
        </g>
    </g>
</svg>