<?xml version="1.0" encoding="UTF-8"?>
<svg width="24px" height="24px" viewBox="0 0 24 24" version="1.1" xmlns="http://www.w3.org/2000/svg" xmlns:xlink="http://www.w3.org/1999/xlink">
    <!-- Generator: Sketch 48.1 (47250) - http://www.bohemiancoding.com/sketch -->
    <title>curve_active</title>
    <desc>Created with Sketch.</desc>
    <defs>
        <path d="M5.85248387,11.7210408 C7.57896563,13.7867434 8.99052967,13.8047136 12.3214038,12.6648025 C14.0371817,12.077619 14.8924784,11.8759865 15.9382888,11.9195433 C16.7484262,11.9532847 17.5275134,12.1716809 18.3139427,12.6127195 L18.8030848,11.7405154 C17.8786058,11.222057 16.9460863,10.96065 15.9799016,10.9204095 C14.7709236,10.8700569 13.8272581,11.092522 11.997614,11.7186734 C9.02149585,12.7371779 7.99410239,12.7240984 6.61977945,11.0797472 L5.85248387,11.7210408 Z" id="path-1"></path>
    </defs>
    <g id="浅色_图标整理" stroke="none" stroke-width="1" fill="none" fill-rule="evenodd" transform="translate(-730.000000, -165.000000)">
        <g id="hover-copy" transform="translate(696.000000, 77.000000)">
            <g id="Group-2" transform="translate(34.000000, 88.000000)">
                <rect id="Rectangle" fill="#D8D8D8" opacity="0" x="0" y="0" width="24" height="24"></rect>
                <g id="Path-2" fill-rule="nonzero">
                    <use fill="#2CA7F8" fill-rule="evenodd" xlink:href="#path-1"></use>
                    <path stroke="#2CA7F8" stroke-width="1" d="M17.2805417,11.6349951 C17.712289,11.7603356 18.1367905,11.9401102 18.5585138,12.1766174 C18.1375611,11.9405423 17.7134892,11.7607857 17.2817641,11.635346 Z M18.5585138,12.1766174 L18.3669827,11.4959443 L17.8778407,12.3681485 L18.5585138,12.1766174 Z M14.3470094,11.5517754 C13.7632786,11.6712781 13.0836453,11.8754746 12.1595089,12.1917379 C8.83803019,13.3284337 7.7350547,13.1938269 6.23613166,11.400394 L6.17313067,12.1046886 L6.94042625,11.463395 L6.23613166,11.400394 C7.72794384,13.1853189 8.90585637,13.3052218 12.1595089,12.1917379 C13.0973751,11.870776 13.777231,11.6665887 14.3576407,11.5482653 Z"></path>
                </g>
            </g>
        </g>
    </g>
</svg>