<?xml version="1.0" encoding="UTF-8"?>
<svg width="48px" height="48px" viewBox="0 0 48 48" version="1.1" xmlns="http://www.w3.org/2000/svg" xmlns:xlink="http://www.w3.org/1999/xlink">
    <!-- Generator: Sketch 58 (84663) - https://sketch.com -->
    <title>flip horizontal_press</title>
    <desc>Created with Sketch.</desc>
    <defs>
        <linearGradient x1="50%" y1="0%" x2="50%" y2="95.6533653%" id="linearGradient-1">
            <stop stop-color="#242424" offset="0%"></stop>
            <stop stop-color="#282828" offset="100%"></stop>
        </linearGradient>
        <rect id="path-2" x="0" y="0" width="40" height="36" rx="8"></rect>
        <filter x="-17.5%" y="-13.9%" width="135.0%" height="138.9%" filterUnits="objectBoundingBox" id="filter-3">
            <feOffset dx="0" dy="2" in="SourceAlpha" result="shadowOffsetOuter1"></feOffset>
            <feGaussianBlur stdDeviation="2" in="shadowOffsetOuter1" result="shadowBlurOuter1"></feGaussianBlur>
            <feComposite in="shadowBlurOuter1" in2="SourceAlpha" operator="out" result="shadowBlurOuter1"></feComposite>
            <feColorMatrix values="0 0 0 0 0   0 0 0 0 0   0 0 0 0 0  0 0 0 0.05 0" type="matrix" in="shadowBlurOuter1"></feColorMatrix>
        </filter>
    </defs>
    <g id="深色主题" stroke="none" stroke-width="1" fill="none" fill-rule="evenodd" opacity="0.971">
        <g id="btn状态" transform="translate(-856.000000, -351.000000)">
            <g id="Group-20" transform="translate(736.000000, 351.000000)">
                <g id="Group-18" transform="translate(120.000000, 0.000000)">
                    <g id="flip-horizontal_press" transform="translate(4.000000, 6.000000)">
                        <g id="rect34210" transform="translate(20.000000, 18.000000) scale(1, -1) translate(-20.000000, -18.000000) ">
                            <use fill="black" fill-opacity="1" filter="url(#filter-3)" xlink:href="#path-2"></use>
                            <use fill-opacity="0.08" fill="#000000" fill-rule="evenodd" xlink:href="#path-2"></use>
                            <rect stroke-opacity="0.03" stroke="#FFFFFF" stroke-width="1" stroke-linejoin="square" fill="url(#linearGradient-1)" fill-rule="evenodd" x="0.5" y="0.5" width="39" height="35" rx="8"></rect>
                        </g>
                        <g transform="translate(2.000000, 0.000000)" fill="#0081FF" id="path34220">
                            <path d="M18.5535068,10.0000611 C18.4043215,10.0021269 18.26217,10.0567884 18.1583257,10.15202 C18.0544815,10.2472516 17.9974513,10.375252 17.9997818,10.5078611 L17.9997818,25.5410611 C17.9969146,25.721378 18.103495,25.8890992 18.2787117,25.9800014 C18.4539284,26.0709036 18.6706353,26.0709036 18.8458519,25.9800014 C19.0210686,25.8890992 19.127649,25.721378 19.1247818,25.5410611 L19.1247818,10.5078611 C19.12716,10.3725472 19.0677363,10.2421544 18.9600816,10.1464613 C18.8524269,10.0507683 18.705735,9.99794716 18.5535068,10.0000611 L18.5535068,10.0000611 Z M16.2947318,12.0312611 C16.0947603,12.0369257 15.9132206,12.1365721 15.8179568,12.2929611 L9.06795682,23.2929611 C8.97351254,23.4478753 8.97775993,23.6355387 9.07913729,23.786951 C9.18051466,23.9383634 9.36405796,24.0311751 9.56228182,24.0312611 L16.3122818,24.0312611 C16.6229291,24.0312335 16.8747508,23.807392 16.8747818,23.5312611 L16.8747818,12.5312611 C16.8748402,12.3959096 16.8131691,12.2663184 16.7038566,12.1720916 C16.5945441,12.0778648 16.4469287,12.0270521 16.2947318,12.0312611 L16.2947318,12.0312611 Z M20.7969818,12.0312611 C20.4923255,12.0386561 20.2496987,12.2603545 20.2497818,12.5312611 L20.2497818,23.5312611 C20.2498129,23.807392 20.5016345,24.0312335 20.8122818,24.0312611 L27.5622818,24.0312611 C27.7605257,24.0312103 27.9441054,23.9384126 28.04551,23.786994 C28.1469147,23.6355753 28.1511731,23.447891 28.0567193,23.2929611 L21.3067193,12.2929611 C21.2058057,12.1273634 21.0087789,12.0262096 20.7969818,12.0312611 L20.7969818,12.0312611 Z M15.7497818,14.4940611 L15.7497818,23.0312611 L10.5115568,23.0312611 L15.7497818,14.4940611 L15.7497818,14.4940611 Z M21.3747818,14.4940611 L26.6131193,23.0312611 L21.3747818,23.0312611 L21.3747818,14.4940611 L21.3747818,14.4940611 Z"></path>
                        </g>
                    </g>
                </g>
            </g>
        </g>
    </g>
</svg>