<?xml version="1.0" encoding="UTF-8"?>
<svg width="20px" height="20px" viewBox="0 0 20 20" version="1.1" xmlns="http://www.w3.org/2000/svg" xmlns:xlink="http://www.w3.org/1999/xlink">
    <title>公共能力/工具栏/清除</title>
    <g id="页面-1" stroke="none" stroke-width="1" fill="none" fill-rule="evenodd">
        <g id="公共能力/工具栏/清除">
            <g id="编组">
                <rect id="矩形" fill="#D8D8D8" opacity="0" x="0" y="0" width="20" height="20"></rect>
                <path d="M17,9 L17,16 C17,16.5522847 16.5522847,17 16,17 L13,17 L13,13.5 C13,13.2545401 12.8231248,13.0503916 12.5898756,13.0080557 L12.5,13 C12.2238576,13 12,13.2238576 12,13.5 L12,13.5 L12,17 L8,17 L8,13.5 C8,13.2545401 7.82312484,13.0503916 7.58987563,13.0080557 L7.5,13 C7.22385763,13 7,13.2238576 7,13.5 L7,13.5 L7,17 L4,17 C3.44771525,17 3,16.5522847 3,16 L3,9 L17,9 Z M3,6 C3,5.44771525 3.44771525,5 4,5 L8,5 L8,3.5 C8,3.22385763 8.22385763,3 8.5,3 L11.5,3 C11.7761424,3 12,3.22385763 12,3.5 L12,5 L16,5 C16.5522847,5 17,5.44771525 17,6 L17,8 L3,8 L3,6 Z" id="形状结合" fill="#626E88" fill-rule="nonzero"></path>
            </g>
            <rect id="矩形" fill="#D8D8D8" opacity="0" x="0" y="0" width="20" height="20"></rect>
        </g>
    </g>
</svg>