<?xml version="1.0" encoding="UTF-8"?>
<svg width="20px" height="20px" viewBox="0 0 20 20" version="1.1" xmlns="http://www.w3.org/2000/svg" xmlns:xlink="http://www.w3.org/1999/xlink">
    <title>公共能力/工具栏/橡皮</title>
    <g id="页面-1" stroke="none" stroke-width="1" fill="none" fill-rule="evenodd">
        <g id="编组">
            <rect id="矩形" fill="#D8D8D8" opacity="0" x="0" y="0" width="20" height="20"></rect>
            <path d="M9.12535713,4.18670094 L9.12535713,12.6867009 L6.08435713,12.6867009 L12.0546465,18.6569066 L11.3475397,19.3640133 L4.27647186,12.2929455 L4.30719725,12.2618374 C4.19263312,12.0991636 4.12535713,11.9007888 4.12535713,11.6867009 L4.12535713,5.18670094 C4.12535713,4.63441619 4.57307238,4.18670094 5.12535713,4.18670094 L9.12535713,4.18670094 Z M18.4253571,4.18670094 C18.9776419,4.18670094 19.4253571,4.63441619 19.4253571,5.18670094 L19.4253571,11.6867009 C19.4253571,12.2389857 18.9776419,12.6867009 18.4253571,12.6867009 L10.1253571,12.6867009 L10.1253571,4.18670094 L18.4253571,4.18670094 Z" id="形状结合" fill="#626E88" fill-rule="nonzero" transform="translate(11.775357, 11.775357) rotate(-45.000000) translate(-11.775357, -11.775357) "></path>
        </g>
    </g>
</svg>