<?xml version="1.0" encoding="UTF-8"?>
<svg width="28px" height="28px" viewBox="0 0 28 28" version="1.1" xmlns="http://www.w3.org/2000/svg" xmlns:xlink="http://www.w3.org/1999/xlink">
    <title>编组</title>
    <g id="页面-1" stroke="none" stroke-width="1" fill="none" fill-rule="evenodd">
        <g id="公共能力/文本功能" transform="translate(-825.000000, -787.000000)" fill="#000000">
            <g id="编组-10" transform="translate(390.000000, 155.000000)">
                <g id="编组-17" transform="translate(424.000000, 572.337889)">
                    <g id="编组" transform="translate(11.000000, 59.662111)">
                        <rect id="矩形" fill-opacity="0.03" opacity="0" x="0" y="0" width="28" height="28"></rect>
                        <path d="M17,6 C17.5522847,6 18,6.44771525 18,7 C18,7.55228475 17.5522847,8 17,8 L11.999,8 L12,20 C12,20.5522847 11.5522847,21 11,21 C10.4477153,21 10,20.5522847 10,20 L9.999,8 L5,8 C4.44771525,8 4,7.55228475 4,7 C4,6.44771525 4.44771525,6 5,6 L17,6 Z M22,13 C22.5522847,13 23,13.4477153 23,14 C23,14.5522847 22.5522847,15 22,15 L20,15 L20,20 C20,20.5522847 19.5522847,21 19,21 C18.4477153,21 18,20.5522847 18,20 L18,15 L16,15 C15.4477153,15 15,14.5522847 15,14 C15,13.4477153 15.4477153,13 16,13 L22,13 Z" id="形状结合"></path>
                    </g>
                </g>
            </g>
        </g>
    </g>
</svg>