<?xml version="1.0" encoding="UTF-8"?>
<svg width="20px" height="20px" viewBox="0 0 20 20" version="1.1" xmlns="http://www.w3.org/2000/svg" xmlns:xlink="http://www.w3.org/1999/xlink">
    <title>公共能力/工具栏/重做</title>
    <g id="页面-1" stroke="none" stroke-width="1" fill="none" fill-rule="evenodd">
        <g id="编组">
            <rect id="矩形" fill="#D8D8D8" opacity="0" x="0" y="0" width="20" height="20"></rect>
            <path d="M6.158539,9.803257 L2,5.9016285 L6.158539,2 L6.158,5 L12.4700461,5 C15.54346,5 18,7.70364756 18,11 C18,14.2262173 15.6468816,16.8846829 12.665366,16.9963486 L12.4700461,17 L6,17 L6,15.2857143 L12.4700461,15.2857143 C14.5580767,15.2857143 16.2857143,13.3842907 16.2857143,11 C16.2857143,8.6819396 14.6527235,6.82029294 12.6431851,6.71865675 L12.4700461,6.71428571 L6.158,6.714 L6.158539,9.803257 Z" id="形状结合" fill="#626E88" fill-rule="nonzero" transform="translate(10.000000, 9.500000) scale(-1, 1) translate(-10.000000, -9.500000) "></path>
        </g>
    </g>
</svg>