<?xml version="1.0" encoding="UTF-8"?>
<svg width="24px" height="24px" viewBox="0 0 24 24" version="1.1" xmlns="http://www.w3.org/2000/svg" xmlns:xlink="http://www.w3.org/1999/xlink">
    <!-- Generator: Sketch 48.2 (47327) - http://www.bohemiancoding.com/sketch -->
    <title>mouse_oval</title>
    <desc>Created with Sketch.</desc>
    <defs>
        <path d="M6,13 L6,7 L7,7 L7,13 L13,13 L13,14 L7,14 L7,20 L6,20 L6,14 L0,14 L0,13 L6,13 Z M6,13 L6,14 L7,14 L7,13 L6,13 Z" id="path-1"></path>
    </defs>
    <g id="浅色_图标整理" stroke="none" stroke-width="1" fill="none" fill-rule="evenodd" transform="translate(-139.000000, -455.000000)">
        <g id="Group-8" transform="translate(140.000000, 458.000000)" fill-rule="nonzero">
            <path d="M15,0 C12.2385763,4.4408921e-16 10,2.23857625 10,5 C10,7.76142375 12.2385763,10 15,10 C17.7614237,10 20,7.76142375 20,5 C20,2.23857625 17.7614237,-5.55111512e-16 15,0 Z M15,-1 C18.3137085,-1 21,1.6862915 21,5 C21,8.3137085 18.3137085,11 15,11 C11.6862915,11 9,8.3137085 9,5 C9,1.6862915 11.6862915,-1 15,-1 Z" id="Rectangle-6" fill-opacity="0.4" fill="#FFFFFF"></path>
            <path d="M15,1 C12.790861,1 11,2.790861 11,5 C11,7.209139 12.790861,9 15,9 C17.209139,9 19,7.209139 19,5 C19,2.790861 17.209139,1 15,1 Z M15,0 C17.7614237,-5.07265313e-16 20,2.23857625 20,5 C20,7.76142375 17.7614237,10 15,10 C12.2385763,10 10,7.76142375 10,5 C10,2.23857625 12.2385763,5.07265313e-16 15,0 Z" id="Rectangle-6" fill="#000000"></path>
            <g id="Combined-Shape">
                <use fill="#000000" fill-rule="evenodd" xlink:href="#path-1"></use>
                <path stroke-opacity="0.4" stroke="#FFFFFF" stroke-width="1" d="M5.5,12.5 L5.5,6.5 L7.5,6.5 L7.5,12.5 L13.5,12.5 L13.5,14.5 L7.5,14.5 L7.5,20.5 L5.5,20.5 L5.5,14.5 L-0.5,14.5 L-0.5,12.5 L5.5,12.5 Z M6.5,13.5 L7,13.5 L6.5,13 L6.5,13.5 L6.5,13 L6,13.5 L6.5,13.5 L6,13.5 L6.5,14 L6.5,13.5 L6.5,14 L7,13.5 L6.5,13.5 Z"></path>
            </g>
        </g>
    </g>
</svg>